{"glyphs":{"0":{"ha":2054,"x_min":28,"x_max":2026,"o":"m 2026 442 q 1964 267 2026 331 q 1790 203 1901 203 q 1617 267 1679 203 q 1554 442 1554 331 q 1617 617 1554 553 q 1790 681 1679 681 q 1964 616 1901 681 q 2026 442 2026 551 m 461 440 q 413 297 461 357 q 285 219 365 236 q 237 213 261 214 q 189 213 213 213 l 28 213 l 28 671 l 193 671 q 299 658 250 671 q 383 618 347 646 q 440 547 419 590 q 461 440 461 503 m 551 213 l 551 671 l 883 671 l 883 582 l 669 582 l 669 503 l 868 503 l 868 415 l 669 415 l 669 301 l 883 301 l 883 213 l 551 213 m 1346 213 l 1346 519 l 1261 319 l 1179 319 l 1093 519 l 1093 213 l 982 213 l 982 671 l 1119 671 l 1222 440 l 1326 671 l 1464 671 l 1464 213 l 1346 213 m 1790 289 q 1844 303 1822 289 q 1880 338 1867 317 q 1899 388 1893 360 q 1904 442 1904 415 q 1899 497 1904 469 q 1880 545 1893 524 q 1844 581 1867 567 q 1790 594 1822 594 q 1736 581 1758 594 q 1701 545 1714 567 q 1682 497 1688 524 q 1676 442 1676 469 q 1682 388 1676 415 q 1701 338 1688 360 q 1736 303 1714 317 q 1790 289 1758 289 m 339 443 q 327 510 339 483 q 294 554 315 538 q 243 578 274 571 q 175 585 213 585 l 146 585 l 146 299 l 175 299 q 295 329 251 299 q 339 443 339 360 z "},"1":{"ha":2054,"x_min":28,"x_max":2026,"o":"m 2026 442 q 1964 267 2026 331 q 1790 203 1901 203 q 1617 267 1679 203 q 1554 442 1554 331 q 1617 617 1554 553 q 1790 681 1679 681 q 1964 616 1901 681 q 2026 442 2026 551 m 461 440 q 413 297 461 357 q 285 219 365 236 q 237 213 261 214 q 189 213 213 213 l 28 213 l 28 671 l 193 671 q 299 658 250 671 q 383 618 347 646 q 440 547 419 590 q 461 440 461 503 m 551 213 l 551 671 l 883 671 l 883 582 l 669 582 l 669 503 l 868 503 l 868 415 l 669 415 l 669 301 l 883 301 l 883 213 l 551 213 m 1346 213 l 1346 519 l 1261 319 l 1179 319 l 1093 519 l 1093 213 l 982 213 l 982 671 l 1119 671 l 1222 440 l 1326 671 l 1464 671 l 1464 213 l 1346 213 m 1790 289 q 1844 303 1822 289 q 1880 338 1867 317 q 1899 388 1893 360 q 1904 442 1904 415 q 1899 497 1904 469 q 1880 545 1893 524 q 1844 581 1867 567 q 1790 594 1822 594 q 1736 581 1758 594 q 1701 545 1714 567 q 1682 497 1688 524 q 1676 442 1676 469 q 1682 388 1676 415 q 1701 338 1688 360 q 1736 303 1714 317 q 1790 289 1758 289 m 339 443 q 327 510 339 483 q 294 554 315 538 q 243 578 274 571 q 175 585 213 585 l 146 585 l 146 299 l 175 299 q 295 329 251 299 q 339 443 339 360 z "},"2":{"ha":2054,"x_min":28,"x_max":2026,"o":"m 2026 442 q 1964 267 2026 331 q 1790 203 1901 203 q 1617 267 1679 203 q 1554 442 1554 331 q 1617 617 1554 553 q 1790 681 1679 681 q 1964 616 1901 681 q 2026 442 2026 551 m 461 440 q 413 297 461 357 q 285 219 365 236 q 237 213 261 214 q 189 213 213 213 l 28 213 l 28 671 l 193 671 q 299 658 250 671 q 383 618 347 646 q 440 547 419 590 q 461 440 461 503 m 551 213 l 551 671 l 883 671 l 883 582 l 669 582 l 669 503 l 868 503 l 868 415 l 669 415 l 669 301 l 883 301 l 883 213 l 551 213 m 1346 213 l 1346 519 l 1261 319 l 1179 319 l 1093 519 l 1093 213 l 982 213 l 982 671 l 1119 671 l 1222 440 l 1326 671 l 1464 671 l 1464 213 l 1346 213 m 1790 289 q 1844 303 1822 289 q 1880 338 1867 317 q 1899 388 1893 360 q 1904 442 1904 415 q 1899 497 1904 469 q 1880 545 1893 524 q 1844 581 1867 567 q 1790 594 1822 594 q 1736 581 1758 594 q 1701 545 1714 567 q 1682 497 1688 524 q 1676 442 1676 469 q 1682 388 1676 415 q 1701 338 1688 360 q 1736 303 1714 317 q 1790 289 1758 289 m 339 443 q 327 510 339 483 q 294 554 315 538 q 243 578 274 571 q 175 585 213 585 l 146 585 l 146 299 l 175 299 q 295 329 251 299 q 339 443 339 360 z "},"3":{"ha":2054,"x_min":28,"x_max":2026,"o":"m 2026 442 q 1964 267 2026 331 q 1790 203 1901 203 q 1617 267 1679 203 q 1554 442 1554 331 q 1617 617 1554 553 q 1790 681 1679 681 q 1964 616 1901 681 q 2026 442 2026 551 m 461 440 q 413 297 461 357 q 285 219 365 236 q 237 213 261 214 q 189 213 213 213 l 28 213 l 28 671 l 193 671 q 299 658 250 671 q 383 618 347 646 q 440 547 419 590 q 461 440 461 503 m 551 213 l 551 671 l 883 671 l 883 582 l 669 582 l 669 503 l 868 503 l 868 415 l 669 415 l 669 301 l 883 301 l 883 213 l 551 213 m 1346 213 l 1346 519 l 1261 319 l 1179 319 l 1093 519 l 1093 213 l 982 213 l 982 671 l 1119 671 l 1222 440 l 1326 671 l 1464 671 l 1464 213 l 1346 213 m 1790 289 q 1844 303 1822 289 q 1880 338 1867 317 q 1899 388 1893 360 q 1904 442 1904 415 q 1899 497 1904 469 q 1880 545 1893 524 q 1844 581 1867 567 q 1790 594 1822 594 q 1736 581 1758 594 q 1701 545 1714 567 q 1682 497 1688 524 q 1676 442 1676 469 q 1682 388 1676 415 q 1701 338 1688 360 q 1736 303 1714 317 q 1790 289 1758 289 m 339 443 q 327 510 339 483 q 294 554 315 538 q 243 578 274 571 q 175 585 213 585 l 146 585 l 146 299 l 175 299 q 295 329 251 299 q 339 443 339 360 z "},"4":{"ha":2054,"x_min":28,"x_max":2026,"o":"m 2026 442 q 1964 267 2026 331 q 1790 203 1901 203 q 1617 267 1679 203 q 1554 442 1554 331 q 1617 617 1554 553 q 1790 681 1679 681 q 1964 616 1901 681 q 2026 442 2026 551 m 461 440 q 413 297 461 357 q 285 219 365 236 q 237 213 261 214 q 189 213 213 213 l 28 213 l 28 671 l 193 671 q 299 658 250 671 q 383 618 347 646 q 440 547 419 590 q 461 440 461 503 m 551 213 l 551 671 l 883 671 l 883 582 l 669 582 l 669 503 l 868 503 l 868 415 l 669 415 l 669 301 l 883 301 l 883 213 l 551 213 m 1346 213 l 1346 519 l 1261 319 l 1179 319 l 1093 519 l 1093 213 l 982 213 l 982 671 l 1119 671 l 1222 440 l 1326 671 l 1464 671 l 1464 213 l 1346 213 m 1790 289 q 1844 303 1822 289 q 1880 338 1867 317 q 1899 388 1893 360 q 1904 442 1904 415 q 1899 497 1904 469 q 1880 545 1893 524 q 1844 581 1867 567 q 1790 594 1822 594 q 1736 581 1758 594 q 1701 545 1714 567 q 1682 497 1688 524 q 1676 442 1676 469 q 1682 388 1676 415 q 1701 338 1688 360 q 1736 303 1714 317 q 1790 289 1758 289 m 339 443 q 327 510 339 483 q 294 554 315 538 q 243 578 274 571 q 175 585 213 585 l 146 585 l 146 299 l 175 299 q 295 329 251 299 q 339 443 339 360 z "},"5":{"ha":2054,"x_min":28,"x_max":2026,"o":"m 2026 442 q 1964 267 2026 331 q 1790 203 1901 203 q 1617 267 1679 203 q 1554 442 1554 331 q 1617 617 1554 553 q 1790 681 1679 681 q 1964 616 1901 681 q 2026 442 2026 551 m 461 440 q 413 297 461 357 q 285 219 365 236 q 237 213 261 214 q 189 213 213 213 l 28 213 l 28 671 l 193 671 q 299 658 250 671 q 383 618 347 646 q 440 547 419 590 q 461 440 461 503 m 551 213 l 551 671 l 883 671 l 883 582 l 669 582 l 669 503 l 868 503 l 868 415 l 669 415 l 669 301 l 883 301 l 883 213 l 551 213 m 1346 213 l 1346 519 l 1261 319 l 1179 319 l 1093 519 l 1093 213 l 982 213 l 982 671 l 1119 671 l 1222 440 l 1326 671 l 1464 671 l 1464 213 l 1346 213 m 1790 289 q 1844 303 1822 289 q 1880 338 1867 317 q 1899 388 1893 360 q 1904 442 1904 415 q 1899 497 1904 469 q 1880 545 1893 524 q 1844 581 1867 567 q 1790 594 1822 594 q 1736 581 1758 594 q 1701 545 1714 567 q 1682 497 1688 524 q 1676 442 1676 469 q 1682 388 1676 415 q 1701 338 1688 360 q 1736 303 1714 317 q 1790 289 1758 289 m 339 443 q 327 510 339 483 q 294 554 315 538 q 243 578 274 571 q 175 585 213 585 l 146 585 l 146 299 l 175 299 q 295 329 251 299 q 339 443 339 360 z "},"6":{"ha":2054,"x_min":28,"x_max":2026,"o":"m 2026 442 q 1964 267 2026 331 q 1790 203 1901 203 q 1617 267 1679 203 q 1554 442 1554 331 q 1617 617 1554 553 q 1790 681 1679 681 q 1964 616 1901 681 q 2026 442 2026 551 m 461 440 q 413 297 461 357 q 285 219 365 236 q 237 213 261 214 q 189 213 213 213 l 28 213 l 28 671 l 193 671 q 299 658 250 671 q 383 618 347 646 q 440 547 419 590 q 461 440 461 503 m 551 213 l 551 671 l 883 671 l 883 582 l 669 582 l 669 503 l 868 503 l 868 415 l 669 415 l 669 301 l 883 301 l 883 213 l 551 213 m 1346 213 l 1346 519 l 1261 319 l 1179 319 l 1093 519 l 1093 213 l 982 213 l 982 671 l 1119 671 l 1222 440 l 1326 671 l 1464 671 l 1464 213 l 1346 213 m 1790 289 q 1844 303 1822 289 q 1880 338 1867 317 q 1899 388 1893 360 q 1904 442 1904 415 q 1899 497 1904 469 q 1880 545 1893 524 q 1844 581 1867 567 q 1790 594 1822 594 q 1736 581 1758 594 q 1701 545 1714 567 q 1682 497 1688 524 q 1676 442 1676 469 q 1682 388 1676 415 q 1701 338 1688 360 q 1736 303 1714 317 q 1790 289 1758 289 m 339 443 q 327 510 339 483 q 294 554 315 538 q 243 578 274 571 q 175 585 213 585 l 146 585 l 146 299 l 175 299 q 295 329 251 299 q 339 443 339 360 z "},"7":{"ha":2054,"x_min":28,"x_max":2026,"o":"m 2026 442 q 1964 267 2026 331 q 1790 203 1901 203 q 1617 267 1679 203 q 1554 442 1554 331 q 1617 617 1554 553 q 1790 681 1679 681 q 1964 616 1901 681 q 2026 442 2026 551 m 461 440 q 413 297 461 357 q 285 219 365 236 q 237 213 261 214 q 189 213 213 213 l 28 213 l 28 671 l 193 671 q 299 658 250 671 q 383 618 347 646 q 440 547 419 590 q 461 440 461 503 m 551 213 l 551 671 l 883 671 l 883 582 l 669 582 l 669 503 l 868 503 l 868 415 l 669 415 l 669 301 l 883 301 l 883 213 l 551 213 m 1346 213 l 1346 519 l 1261 319 l 1179 319 l 1093 519 l 1093 213 l 982 213 l 982 671 l 1119 671 l 1222 440 l 1326 671 l 1464 671 l 1464 213 l 1346 213 m 1790 289 q 1844 303 1822 289 q 1880 338 1867 317 q 1899 388 1893 360 q 1904 442 1904 415 q 1899 497 1904 469 q 1880 545 1893 524 q 1844 581 1867 567 q 1790 594 1822 594 q 1736 581 1758 594 q 1701 545 1714 567 q 1682 497 1688 524 q 1676 442 1676 469 q 1682 388 1676 415 q 1701 338 1688 360 q 1736 303 1714 317 q 1790 289 1758 289 m 339 443 q 327 510 339 483 q 294 554 315 538 q 243 578 274 571 q 175 585 213 585 l 146 585 l 146 299 l 175 299 q 295 329 251 299 q 339 443 339 360 z "},"8":{"ha":2054,"x_min":28,"x_max":2026,"o":"m 2026 442 q 1964 267 2026 331 q 1790 203 1901 203 q 1617 267 1679 203 q 1554 442 1554 331 q 1617 617 1554 553 q 1790 681 1679 681 q 1964 616 1901 681 q 2026 442 2026 551 m 461 440 q 413 297 461 357 q 285 219 365 236 q 237 213 261 214 q 189 213 213 213 l 28 213 l 28 671 l 193 671 q 299 658 250 671 q 383 618 347 646 q 440 547 419 590 q 461 440 461 503 m 551 213 l 551 671 l 883 671 l 883 582 l 669 582 l 669 503 l 868 503 l 868 415 l 669 415 l 669 301 l 883 301 l 883 213 l 551 213 m 1346 213 l 1346 519 l 1261 319 l 1179 319 l 1093 519 l 1093 213 l 982 213 l 982 671 l 1119 671 l 1222 440 l 1326 671 l 1464 671 l 1464 213 l 1346 213 m 1790 289 q 1844 303 1822 289 q 1880 338 1867 317 q 1899 388 1893 360 q 1904 442 1904 415 q 1899 497 1904 469 q 1880 545 1893 524 q 1844 581 1867 567 q 1790 594 1822 594 q 1736 581 1758 594 q 1701 545 1714 567 q 1682 497 1688 524 q 1676 442 1676 469 q 1682 388 1676 415 q 1701 338 1688 360 q 1736 303 1714 317 q 1790 289 1758 289 m 339 443 q 327 510 339 483 q 294 554 315 538 q 243 578 274 571 q 175 585 213 585 l 146 585 l 146 299 l 175 299 q 295 329 251 299 q 339 443 339 360 z "},"9":{"ha":2054,"x_min":28,"x_max":2026,"o":"m 2026 442 q 1964 267 2026 331 q 1790 203 1901 203 q 1617 267 1679 203 q 1554 442 1554 331 q 1617 617 1554 553 q 1790 681 1679 681 q 1964 616 1901 681 q 2026 442 2026 551 m 461 440 q 413 297 461 357 q 285 219 365 236 q 237 213 261 214 q 189 213 213 213 l 28 213 l 28 671 l 193 671 q 299 658 250 671 q 383 618 347 646 q 440 547 419 590 q 461 440 461 503 m 551 213 l 551 671 l 883 671 l 883 582 l 669 582 l 669 503 l 868 503 l 868 415 l 669 415 l 669 301 l 883 301 l 883 213 l 551 213 m 1346 213 l 1346 519 l 1261 319 l 1179 319 l 1093 519 l 1093 213 l 982 213 l 982 671 l 1119 671 l 1222 440 l 1326 671 l 1464 671 l 1464 213 l 1346 213 m 1790 289 q 1844 303 1822 289 q 1880 338 1867 317 q 1899 388 1893 360 q 1904 442 1904 415 q 1899 497 1904 469 q 1880 545 1893 524 q 1844 581 1867 567 q 1790 594 1822 594 q 1736 581 1758 594 q 1701 545 1714 567 q 1682 497 1688 524 q 1676 442 1676 469 q 1682 388 1676 415 q 1701 338 1688 360 q 1736 303 1714 317 q 1790 289 1758 289 m 339 443 q 327 510 339 483 q 294 554 315 538 q 243 578 274 571 q 175 585 213 585 l 146 585 l 146 299 l 175 299 q 295 329 251 299 q 339 443 339 360 z "},"\u0000":{"ha":0,"x_min":0,"x_max":0,"o":""},"\r":{"ha":347,"x_min":0,"x_max":0,"o":""}," ":{"ha":368,"x_min":0,"x_max":0,"o":""},"O":{"ha":704,"x_min":28,"x_max":676,"o":"m 347 -43 q 197 -21 258 -43 q 99 51 136 1 q 44 183 61 101 q 28 385 28 265 q 48 603 28 517 q 110 743 68 690 q 216 817 151 796 q 369 839 281 839 q 603 737 529 839 q 676 414 676 635 q 659 201 676 288 q 603 60 642 114 q 501 -19 564 6 q 347 -43 438 -43 m 451 758 q 441 746 444 754 q 442 731 438 738 q 455 716 444 724 q 478 699 465 708 q 503 677 490 690 q 526 647 517 664 q 534 628 531 639 q 542 608 538 617 q 552 592 546 599 q 568 586 558 586 q 591 608 588 586 q 583 658 594 631 q 556 705 574 683 q 518 740 538 726 q 481 760 499 754 q 451 758 463 765 m 261 356 q 262 300 261 331 q 271 244 263 269 q 297 201 279 218 q 350 183 315 183 q 412 208 392 183 q 440 267 432 232 q 447 340 447 301 q 446 408 446 379 q 420 551 446 500 q 350 603 394 603 q 297 574 315 603 q 271 505 279 544 q 262 423 263 465 q 261 356 261 381 m 567 549 q 567 530 564 539 q 578 518 571 521 q 597 519 588 513 q 608 538 606 526 q 606 554 610 546 q 596 565 603 563 q 577 567 585 572 q 567 549 569 563 z "},"H":{"ha":657,"x_min":46,"x_max":617,"o":"m 46 324 l 46 393 l 47 532 l 47 601 q 50 685 47 646 q 64 751 53 724 q 98 795 75 779 q 160 811 121 811 q 247 790 215 811 q 279 711 279 769 q 276 596 279 653 q 274 481 274 539 q 331 481 303 481 q 389 483 360 482 l 389 522 l 386 601 q 385 621 385 611 q 385 640 385 631 q 388 703 385 671 q 404 763 392 736 q 440 806 417 789 q 503 824 464 824 q 565 813 542 824 q 599 782 588 801 q 613 735 610 763 q 617 675 617 708 l 617 522 l 614 215 q 613 140 613 178 q 613 63 613 101 q 582 -19 613 3 q 496 -42 551 -42 q 427 -22 451 -42 q 391 28 403 -3 q 377 94 379 58 q 375 164 375 131 q 378 221 375 192 q 381 278 381 250 l 272 275 q 277 199 272 236 q 282 122 282 161 q 279 62 282 92 q 266 10 276 32 q 233 -26 256 -12 q 171 -40 211 -40 q 122 -36 144 -40 q 82 -22 99 -32 q 56 8 65 -11 q 46 57 46 26 l 46 324 m 215 763 q 196 756 201 763 q 194 738 190 749 q 204 708 200 725 q 208 682 208 692 q 215 672 208 675 q 226 669 221 669 q 246 713 246 669 q 244 724 246 715 q 240 740 243 732 q 231 756 236 749 q 215 763 225 763 m 544 746 q 526 733 531 744 q 519 706 521 721 q 519 677 518 692 q 521 654 521 663 q 521 634 521 647 q 522 608 521 621 q 529 587 524 596 q 544 578 535 578 q 562 585 556 578 q 571 601 568 592 q 574 622 574 611 q 575 640 575 632 q 574 665 575 647 q 569 701 572 682 q 560 733 567 719 q 544 746 554 747 m 556 553 q 533 540 542 553 q 525 515 525 528 q 544 496 525 496 q 566 505 557 496 q 575 526 575 514 q 570 544 575 535 q 556 553 565 553 z "},"A":{"ha":658,"x_min":7,"x_max":651,"o":"m 135 -26 q 37 1 67 -26 q 7 92 7 29 q 13 147 7 111 q 26 227 18 182 q 47 324 35 272 q 72 426 58 375 q 98 522 85 476 q 124 601 111 568 q 169 709 147 667 q 215 777 190 751 q 271 813 240 803 q 343 824 301 824 q 440 808 400 824 q 509 747 479 792 q 560 626 539 703 q 601 425 582 549 q 617 324 608 382 q 633 211 625 267 q 646 111 640 156 q 651 49 651 67 q 529 -39 651 -39 q 463 -26 486 -39 q 428 11 440 -12 q 409 67 415 35 q 393 140 403 100 l 244 140 q 237 84 240 114 q 223 30 233 54 q 192 -10 213 6 q 135 -26 172 -26 m 429 722 q 417 692 417 715 q 431 632 418 668 q 493 567 460 551 q 500 647 524 582 q 465 709 485 688 q 429 722 444 731 m 492 528 q 494 492 482 504 q 507 486 500 486 q 524 492 515 486 q 535 506 532 497 q 528 539 542 525 q 513 546 521 546 q 492 528 500 546 m 369 343 q 369 399 371 365 q 364 463 368 432 q 354 515 360 493 q 342 538 349 538 q 325 519 335 538 q 306 471 315 500 q 290 408 297 442 q 282 343 283 374 l 369 343 z "},"I":{"ha":436,"x_min":7,"x_max":418,"o":"m 354 819 q 395 788 378 821 q 413 708 413 754 q 392 625 413 658 q 340 592 372 592 l 321 592 q 330 392 329 496 q 324 192 331 288 q 418 88 418 192 q 385 -6 418 26 q 293 -39 353 -39 q 280 -39 288 -39 q 263 -37 272 -39 l 175 -35 q 156 -33 164 -33 q 143 -33 149 -33 q 47 1 81 -33 q 13 99 13 36 q 30 168 13 143 q 79 193 47 193 l 108 193 q 106 382 101 281 q 110 583 110 483 q 29 606 51 583 q 7 688 7 629 q 24 778 7 746 q 72 813 42 811 l 354 819 m 342 788 q 326 775 329 788 q 331 757 326 769 q 338 739 335 744 q 342 723 340 732 q 345 706 343 714 q 351 694 347 699 q 365 689 356 689 q 381 699 376 689 q 388 719 386 710 q 377 763 389 740 q 342 788 365 785 m 365 676 q 354 671 358 676 q 349 658 350 665 q 351 644 349 651 q 360 636 353 636 q 374 640 368 635 q 381 654 379 646 q 378 668 381 661 q 365 676 375 675 m 342 160 q 322 153 328 160 q 321 135 317 146 q 331 106 326 122 q 335 79 335 89 q 341 69 335 72 q 353 67 347 67 q 372 110 372 67 q 371 121 372 113 q 366 138 369 129 q 357 153 363 146 q 342 160 351 160 z "},"E":{"ha":539,"x_min":39,"x_max":539,"o":"m 153 -47 q 65 -15 89 -47 q 42 76 42 17 l 42 576 q 40 638 42 600 q 44 712 39 675 q 65 776 49 749 q 119 807 82 803 q 277 822 197 814 q 435 829 357 829 q 464 816 450 829 q 488 785 478 803 q 505 747 499 767 q 511 715 511 728 q 509 679 511 697 q 500 647 507 661 q 480 622 493 632 q 444 611 467 613 l 256 596 l 263 510 l 399 510 q 457 481 442 510 q 472 415 472 453 q 470 383 472 401 q 462 347 468 364 q 444 317 456 329 q 414 304 433 304 l 263 304 l 271 181 l 346 181 q 370 190 361 181 q 388 210 379 199 q 409 231 397 222 q 439 240 421 240 q 511 217 483 240 q 539 147 539 193 q 533 57 539 93 q 510 -1 528 21 q 458 -34 492 -24 q 371 -46 425 -44 q 306 -47 339 -47 q 240 -47 272 -47 l 153 -47 m 382 800 q 376 794 379 799 q 375 783 372 789 q 386 766 382 772 q 393 754 390 760 q 404 725 400 739 q 433 710 408 711 q 456 725 449 710 q 453 764 464 740 q 419 799 439 790 q 382 800 400 807 m 428 682 q 429 669 426 675 q 438 660 432 663 q 451 663 444 657 q 460 676 458 668 q 450 697 460 693 q 428 682 432 706 m 392 488 q 387 483 389 486 q 386 475 385 479 q 390 463 389 467 q 396 450 392 458 q 403 426 403 439 q 417 413 404 413 q 434 423 428 413 q 435 453 440 433 q 415 482 428 474 q 392 488 403 490 z "},"F":{"ha":497,"x_min":39,"x_max":486,"o":"m 39 65 l 39 193 l 40 453 l 40 581 q 41 699 40 654 q 51 768 42 743 q 81 802 60 793 q 142 815 101 811 q 274 826 208 822 q 407 831 340 831 q 470 799 454 831 q 486 714 486 767 q 484 679 486 699 q 475 643 482 660 q 456 615 468 626 q 424 601 443 603 l 263 593 l 258 440 q 310 456 283 450 q 364 463 336 463 q 411 451 393 463 q 438 422 429 440 q 451 381 447 404 q 454 335 454 358 q 431 268 454 286 q 364 244 408 250 q 312 235 338 242 q 260 229 286 229 q 264 165 260 201 q 268 101 268 129 q 265 39 268 67 q 250 -8 263 11 q 213 -36 238 -26 q 147 -46 189 -46 q 60 -23 82 -46 q 39 65 39 0 m 386 803 q 372 789 372 803 q 378 769 372 783 q 388 750 385 756 q 396 721 394 736 q 415 703 397 706 l 418 703 q 434 714 429 703 q 439 735 439 725 q 424 779 439 756 q 386 803 410 803 m 424 692 q 413 685 417 692 q 408 672 408 679 q 411 658 408 665 q 421 651 414 651 q 440 671 440 651 q 437 685 440 678 q 424 692 433 692 m 368 435 q 364 422 361 431 q 369 410 368 414 q 376 399 371 406 q 388 374 385 388 q 401 364 390 361 q 417 376 413 365 q 415 406 422 388 q 392 432 406 425 q 368 435 379 439 z "},"P":{"ha":619,"x_min":39,"x_max":599,"o":"m 39 411 l 39 447 l 40 518 l 40 554 q 44 651 40 604 q 59 736 49 699 q 88 796 69 774 q 133 818 106 818 l 164 818 l 226 821 q 384 814 315 821 q 501 778 453 807 q 574 690 549 749 q 599 528 599 631 q 586 379 599 443 q 541 272 574 315 q 453 208 508 229 q 310 188 397 188 q 288 188 299 188 q 265 190 276 189 l 265 179 q 269 132 265 158 q 274 85 274 106 q 272 31 274 56 q 260 -10 269 7 q 231 -35 251 -26 q 172 -44 210 -44 q 123 -40 147 -44 q 80 -24 99 -36 q 50 7 61 -12 q 39 57 39 26 l 39 411 m 410 751 q 399 741 403 749 q 397 725 394 733 q 408 710 400 718 q 428 690 417 701 q 451 665 440 679 q 471 633 463 651 q 476 613 475 624 q 481 592 478 601 q 490 575 485 582 q 506 567 496 568 q 531 587 525 564 q 529 638 536 610 q 507 687 522 664 q 474 726 492 710 q 439 749 457 742 q 410 751 421 757 m 276 371 q 375 405 344 374 q 406 506 406 436 q 384 579 406 547 q 317 611 363 611 q 295 611 306 611 q 274 610 285 611 q 278 490 281 550 q 276 371 276 431 m 500 531 q 507 499 493 508 q 526 498 515 492 q 540 514 538 504 q 540 531 543 522 q 531 543 538 539 q 512 547 521 550 q 500 531 503 543 z "},"D":{"ha":676,"x_min":38,"x_max":649,"o":"m 269 -42 q 103 -1 156 -42 q 49 129 50 40 l 40 614 q 61 760 38 711 q 142 824 85 810 q 258 828 176 832 q 438 798 364 822 q 559 726 513 774 q 627 604 606 678 q 649 428 649 531 q 556 73 649 188 q 269 -42 464 -42 m 415 731 q 406 717 408 726 q 407 701 403 708 q 422 689 411 696 q 445 673 432 682 q 472 652 458 664 q 497 624 486 640 q 506 605 503 615 q 514 585 510 594 q 525 571 518 576 q 542 565 532 565 q 563 589 561 567 q 553 638 565 611 q 528 676 543 658 q 496 707 513 694 q 463 727 479 719 q 432 735 446 735 q 415 731 422 735 m 267 196 q 278 176 267 181 q 301 171 289 171 q 365 200 340 171 q 402 269 389 229 q 420 351 415 308 q 425 421 425 394 q 389 560 425 514 q 265 610 353 606 l 267 196 m 543 528 q 545 509 542 518 q 556 497 549 500 q 574 501 565 493 q 585 519 583 508 q 582 535 586 528 q 571 546 578 543 q 543 528 547 557 z "},"C":{"ha":607,"x_min":14,"x_max":594,"o":"m 325 -51 q 167 -21 228 -51 q 72 67 106 10 q 26 207 38 124 q 14 394 14 290 q 26 567 14 486 q 72 708 39 647 q 165 805 106 769 q 318 840 224 840 q 489 803 426 840 q 575 664 551 765 q 588 576 583 626 q 593 493 593 526 q 558 416 593 438 q 471 394 524 394 q 415 408 438 394 q 385 456 393 421 q 381 501 381 474 q 380 553 382 528 q 368 596 378 578 q 335 614 358 614 q 281 585 300 614 q 253 519 263 557 q 242 441 244 481 q 240 379 240 401 q 242 321 240 356 q 252 253 243 286 q 280 197 261 221 q 333 174 299 174 q 383 183 368 174 q 403 207 397 193 q 412 238 410 221 q 422 269 414 256 q 448 293 429 283 q 506 303 467 303 q 578 274 561 303 q 594 194 594 244 q 574 88 594 133 q 519 10 554 42 q 434 -36 483 -21 q 325 -51 385 -51 m 424 769 q 415 758 418 767 q 417 742 413 750 q 432 713 424 729 q 451 682 440 697 q 461 661 458 672 q 467 641 464 650 q 477 626 471 632 q 496 619 483 619 q 517 644 513 621 q 508 700 522 668 q 465 759 492 739 q 424 769 439 779 m 493 581 q 496 560 492 569 q 507 547 500 550 q 528 550 518 542 q 540 572 539 558 q 525 601 543 594 q 493 581 497 615 z "},"B":{"ha":644,"x_min":38,"x_max":621,"o":"m 297 -43 q 169 -26 219 -43 q 89 28 118 -8 q 49 123 60 65 q 38 260 38 181 l 38 501 q 38 632 38 571 q 56 738 39 693 q 117 809 74 783 q 246 835 161 835 q 401 826 335 835 q 513 793 468 818 q 579 722 557 768 q 601 601 601 676 q 592 542 601 574 q 567 484 583 511 q 528 436 551 457 q 476 408 506 415 q 581 357 540 406 q 621 218 621 308 q 594 98 621 147 q 522 17 567 49 q 418 -28 476 -14 q 297 -43 360 -43 m 442 754 q 433 743 436 751 q 433 726 431 735 q 451 702 439 714 q 472 675 463 690 q 481 653 479 665 q 487 632 483 642 q 496 616 490 622 q 514 610 501 610 q 536 633 531 610 q 531 689 542 657 q 486 746 515 729 q 442 754 457 763 m 263 513 q 275 511 265 511 q 351 529 319 511 q 383 579 383 547 q 365 606 383 594 q 307 618 347 618 q 288 618 299 618 q 261 615 276 618 q 258 564 258 590 q 258 513 258 538 l 263 513 m 486 565 q 489 544 485 554 q 500 532 493 535 q 522 535 511 526 q 533 557 532 543 q 518 586 536 579 q 486 565 490 600 m 263 197 q 272 174 263 178 q 313 171 281 171 q 400 229 400 171 q 368 290 400 263 q 260 321 336 318 l 263 197 z "},"L":{"ha":497,"x_min":39,"x_max":472,"o":"m 136 -33 q 57 3 75 -33 q 39 117 39 39 l 39 607 q 42 721 39 678 q 56 788 44 764 q 93 819 68 811 q 163 826 118 826 q 213 822 192 826 q 246 806 233 818 q 264 771 258 793 q 269 711 269 749 q 270 542 269 628 q 271 350 271 457 q 270 313 271 335 q 267 267 269 290 q 261 224 265 244 q 250 188 257 203 l 392 211 q 429 203 414 215 q 454 171 444 192 q 468 123 464 150 q 472 69 472 96 q 462 9 472 29 q 432 -20 451 -11 q 387 -30 413 -29 q 329 -31 361 -31 l 297 -31 l 232 -33 l 200 -33 l 136 -33 m 200 756 q 181 742 186 754 q 175 716 176 731 q 175 687 174 701 q 176 664 176 672 q 176 644 176 657 q 178 618 176 631 q 185 597 179 606 q 200 588 190 588 q 217 594 211 588 q 226 611 224 601 q 230 631 229 621 q 231 650 231 642 q 229 674 231 657 q 225 710 228 692 q 216 743 222 729 q 200 756 210 757 m 211 563 q 189 550 197 563 q 181 525 181 538 q 200 506 181 506 q 222 515 213 506 q 231 536 231 524 q 226 553 231 544 q 211 563 221 563 m 392 175 q 372 168 378 175 q 371 150 367 161 q 376 132 374 144 q 380 107 378 119 q 383 83 382 94 q 385 67 385 71 q 391 57 385 60 q 403 54 397 54 q 422 97 422 54 q 421 113 422 100 q 416 139 419 125 q 407 164 413 153 q 392 175 401 175 z "},"K":{"ha":672,"x_min":39,"x_max":650,"o":"m 156 -33 q 66 -6 93 -33 q 39 85 39 22 l 39 711 q 73 792 39 765 q 156 818 107 818 q 228 801 199 818 q 267 735 258 783 q 276 629 276 676 q 264 515 275 582 q 314 571 293 540 q 351 635 335 601 q 382 702 368 668 q 410 768 396 736 q 449 812 425 801 q 507 822 472 822 q 547 814 526 822 q 585 792 568 806 q 614 760 603 778 q 625 721 625 742 q 623 705 625 713 q 618 690 621 697 q 585 596 604 644 q 542 502 565 547 q 489 419 518 457 q 425 357 460 382 q 449 316 433 340 q 483 268 464 292 q 522 228 501 244 q 560 208 542 211 q 629 181 608 203 q 650 97 650 158 q 519 -39 650 -39 q 476 -35 497 -39 q 436 -19 456 -32 q 392 28 417 -7 q 342 103 367 63 q 296 182 317 143 q 264 242 275 221 q 274 150 267 201 q 281 58 281 99 q 272 11 281 29 q 246 -17 263 -7 q 206 -30 229 -26 q 156 -33 183 -33 m 561 749 q 546 747 554 751 q 535 735 538 743 q 524 704 529 722 q 515 669 518 686 q 506 649 513 658 q 495 630 500 639 q 490 612 490 621 q 499 594 490 603 q 513 589 504 589 q 567 639 543 589 q 581 711 583 678 q 561 749 578 744 m 468 569 q 455 553 460 563 q 453 538 450 544 q 475 522 457 522 q 494 529 485 522 q 505 544 501 535 q 506 560 508 553 q 488 576 501 576 q 468 569 479 576 m 589 165 q 569 158 575 165 q 568 140 564 151 q 578 104 574 128 q 582 71 582 81 q 588 61 582 64 q 600 58 594 58 q 619 101 619 58 q 618 115 619 104 q 613 136 617 125 q 604 156 610 147 q 589 165 599 165 z "},"R":{"ha":644,"x_min":39,"x_max":639,"o":"m 39 411 l 39 447 l 40 518 l 40 554 q 44 651 40 604 q 60 736 49 699 q 93 796 72 774 q 146 818 114 818 q 197 819 168 818 q 257 821 225 821 q 408 810 343 821 q 515 769 472 800 q 578 680 557 738 q 599 528 599 622 q 592 453 599 492 q 572 376 586 414 q 533 306 557 339 q 471 250 508 274 q 512 213 490 229 q 553 194 533 197 q 585 189 569 193 q 613 174 600 185 q 632 146 625 164 q 639 97 639 128 q 508 -39 639 -39 q 465 -35 486 -39 q 425 -19 444 -32 q 387 19 408 -8 q 344 81 365 47 q 303 151 322 115 q 269 213 283 186 l 265 213 l 265 201 q 267 176 265 192 q 269 143 268 160 q 272 111 271 126 q 274 85 274 96 q 272 31 274 56 q 260 -10 269 7 q 231 -35 251 -26 q 172 -44 210 -44 q 123 -40 147 -44 q 80 -24 99 -36 q 50 7 61 -12 q 39 57 39 26 l 39 411 m 410 751 q 399 741 403 749 q 397 725 394 733 q 408 710 400 718 q 428 690 417 701 q 451 665 440 679 q 471 633 463 651 q 476 613 475 624 q 481 592 478 601 q 490 575 485 582 q 506 567 496 568 q 531 587 525 564 q 529 638 536 610 q 507 687 522 664 q 474 726 492 710 q 439 749 457 742 q 410 751 421 757 m 276 393 q 335 399 310 394 q 375 417 360 404 q 398 450 390 429 q 406 506 406 471 q 384 579 406 547 q 317 611 363 611 q 295 611 306 611 q 274 610 285 611 q 278 501 281 550 q 276 393 276 453 m 500 531 q 507 499 493 508 q 526 498 515 492 q 540 514 538 504 q 540 531 543 522 q 531 543 538 539 q 512 547 521 550 q 500 531 503 543 m 578 165 q 558 158 564 165 q 557 140 553 151 q 567 104 563 128 q 571 71 571 81 q 577 61 571 64 q 589 58 583 58 q 608 101 608 58 q 607 115 608 104 q 602 136 606 125 q 593 156 599 147 q 578 165 588 165 z "},"N":{"ha":708,"x_min":32,"x_max":669,"o":"m 163 -42 q 42 50 50 -42 q 33 292 32 163 q 42 578 35 422 q 49 681 44 636 q 67 757 54 726 q 103 803 81 788 q 164 819 126 819 q 221 808 193 819 q 268 774 249 796 q 285 750 276 764 q 301 720 293 736 q 315 689 308 704 q 326 661 321 674 q 353 595 339 633 q 382 517 367 557 q 413 441 397 478 q 444 378 429 404 q 444 463 444 415 q 442 556 443 510 q 440 642 440 603 q 439 704 439 682 q 470 796 439 771 q 542 821 501 821 q 631 790 596 821 q 667 713 667 760 q 668 542 667 628 q 669 372 669 456 q 665 208 668 288 q 651 57 661 128 q 640 10 647 28 q 621 -18 633 -8 q 590 -31 608 -28 q 544 -35 571 -35 q 478 -9 508 -35 q 422 53 447 17 q 376 128 396 89 q 340 193 356 167 q 298 277 321 229 q 261 369 275 325 q 263 297 263 336 q 265 216 264 257 q 265 135 265 175 q 265 63 265 96 q 243 -14 265 14 q 163 -42 221 -42 m 207 754 q 196 719 178 742 q 219 684 207 708 q 236 649 231 660 q 247 643 239 643 q 260 644 254 643 q 272 660 272 649 q 263 697 271 672 q 256 711 261 700 q 243 733 251 722 q 226 751 235 743 q 207 754 217 758 m 604 743 q 585 731 590 742 q 577 705 579 719 q 575 676 575 690 q 575 653 575 661 q 574 631 575 646 q 576 601 574 615 q 583 574 578 586 q 599 563 589 563 q 617 568 610 561 q 627 585 624 575 q 632 605 631 594 q 633 624 633 615 q 634 663 635 642 q 630 702 633 685 q 620 731 626 719 q 604 743 614 743 m 608 538 q 585 527 594 539 q 575 503 576 515 q 593 481 575 482 q 615 488 606 479 q 625 511 624 497 q 622 527 625 518 q 608 538 618 536 z "},"M":{"ha":936,"x_min":39,"x_max":899,"o":"m 39 67 q 46 326 39 197 q 64 585 53 454 q 74 669 68 626 q 94 748 79 713 q 138 806 110 783 q 211 828 165 828 q 279 818 256 828 q 321 772 303 808 q 365 671 342 732 q 410 548 389 610 q 448 431 431 486 q 475 349 465 376 q 492 422 483 374 q 515 531 501 471 q 549 653 529 590 q 600 767 569 715 q 626 798 611 786 q 655 816 640 810 q 683 824 669 822 q 707 826 697 826 q 794 808 765 826 q 842 736 824 789 q 856 681 850 714 q 867 610 863 647 q 874 536 871 574 q 879 465 878 499 q 892 268 885 365 q 899 71 899 171 q 869 -16 899 6 q 779 -37 840 -37 q 723 -26 744 -37 q 690 8 701 -15 q 675 65 679 31 q 669 144 671 99 l 663 410 q 649 361 658 396 q 626 282 639 326 q 599 188 614 238 q 568 97 583 139 q 538 24 553 54 q 511 -14 524 -7 q 493 -19 504 -17 q 472 -22 482 -22 q 429 -7 447 -22 q 401 33 417 4 q 368 102 385 63 q 334 186 351 142 q 302 272 317 231 q 276 347 288 313 q 258 397 264 381 q 263 244 260 328 q 265 90 265 160 q 260 22 265 49 q 241 -21 256 -6 q 201 -42 226 -36 q 132 -49 175 -49 q 57 -19 75 -49 q 39 67 39 11 m 258 772 q 243 739 224 763 q 252 723 247 733 q 262 701 257 713 q 271 681 267 690 q 276 665 275 671 q 286 658 279 658 q 300 658 293 657 q 313 673 313 661 q 308 710 314 685 q 303 725 307 714 q 292 747 299 736 q 277 767 286 758 q 258 772 268 775 m 758 739 q 740 724 744 736 q 735 698 735 713 q 738 669 735 683 q 740 646 740 654 q 742 624 740 639 q 749 595 744 610 q 760 570 753 581 q 776 560 767 560 q 794 568 788 561 q 802 585 800 575 q 803 606 804 596 q 803 625 803 617 q 798 663 801 643 q 789 701 794 683 q 776 729 783 718 q 758 739 768 740 m 789 536 q 767 522 775 535 q 761 497 760 510 q 782 478 764 478 q 803 489 794 479 q 810 511 811 499 q 804 528 810 519 q 789 536 799 536 z "},"T":{"ha":546,"x_min":7,"x_max":539,"o":"m 175 586 q 103 585 135 586 q 51 592 72 583 q 18 626 29 600 q 7 706 7 651 q 16 778 7 754 q 44 810 25 801 q 94 817 64 818 q 164 817 124 817 q 266 819 215 818 q 368 821 317 821 l 471 821 q 525 794 511 821 q 539 704 539 767 q 516 613 539 642 q 429 586 493 583 l 383 586 q 389 328 381 456 q 397 71 397 201 q 371 -12 397 10 q 274 -35 344 -35 q 177 -7 203 -35 q 154 71 151 21 q 163 328 161 201 q 175 586 165 456 m 472 788 q 457 775 460 788 q 460 757 457 769 q 467 739 464 744 q 471 723 469 732 q 475 706 472 714 q 482 694 478 699 q 496 689 486 689 q 511 699 507 689 q 517 719 515 710 q 507 763 518 740 q 472 788 496 785 m 496 676 q 485 671 489 676 q 479 658 481 665 q 481 643 479 651 q 490 635 483 635 q 503 640 499 633 q 510 654 508 646 q 508 668 510 661 q 496 676 506 675 z "},"S":{"ha":642,"x_min":15,"x_max":621,"o":"m 189 274 q 207 235 201 251 q 232 200 213 219 q 264 184 239 193 q 325 175 289 175 q 374 184 357 175 q 390 207 390 193 q 357 229 390 211 q 278 271 324 247 q 194 317 238 292 q 113 378 150 343 q 53 460 76 413 q 29 572 29 507 q 51 682 29 632 q 113 769 74 732 q 207 826 153 806 q 325 846 261 846 q 444 823 393 846 q 531 765 496 800 q 583 689 565 729 q 601 613 601 649 q 578 511 601 550 q 494 472 554 472 q 416 494 435 472 q 400 560 397 515 q 387 615 403 600 q 329 629 371 629 q 275 612 297 629 q 253 568 253 594 q 265 539 253 553 q 299 512 278 525 q 347 485 319 499 q 404 460 374 472 q 481 422 443 442 q 551 375 519 403 q 601 309 582 347 q 621 215 621 271 q 596 110 621 157 q 528 31 571 64 q 431 -19 486 -1 q 317 -36 376 -36 q 207 -15 261 -36 q 110 42 153 6 q 42 128 68 78 q 15 236 15 178 q 117 326 15 326 q 161 310 140 326 q 189 274 182 293 m 418 781 q 411 768 413 776 q 415 753 410 760 q 433 726 422 742 q 457 697 444 711 q 469 678 465 689 q 478 659 474 668 q 490 645 483 650 q 510 642 497 640 q 528 669 526 644 q 511 724 529 693 q 460 776 489 760 q 418 781 432 792 m 513 603 q 531 572 513 579 q 551 578 542 569 q 560 601 561 588 q 540 628 560 624 q 513 603 513 638 z "},"Z":{"ha":622,"x_min":21,"x_max":607,"o":"m 117 -47 q 69 -33 88 -47 q 40 2 50 -19 q 25 49 29 24 q 21 96 21 74 q 69 257 21 183 q 133 348 99 301 q 206 440 168 394 q 283 529 244 486 q 358 608 322 572 q 242 591 296 597 q 129 585 189 585 q 54 618 74 585 q 35 708 35 651 q 52 796 35 765 q 119 826 69 826 q 304 823 219 826 q 489 814 389 819 q 562 779 535 811 q 589 703 589 747 q 588 663 589 686 q 582 617 586 640 q 572 573 578 594 q 558 536 567 551 q 497 433 531 486 q 426 329 463 379 q 349 234 389 279 q 272 154 310 189 q 328 174 296 165 q 395 188 360 182 q 467 197 431 193 q 535 200 503 200 q 590 167 574 200 q 607 71 607 133 q 590 -10 607 13 q 529 -33 574 -33 q 323 -40 429 -33 q 117 -47 217 -47 m 503 771 q 488 758 490 771 q 491 740 488 753 q 497 722 494 728 q 501 706 500 715 q 506 690 503 697 q 513 677 508 682 q 526 672 517 672 q 542 683 538 672 q 547 703 546 693 q 538 746 549 724 q 503 771 526 768 m 526 660 q 515 654 519 660 q 510 642 511 649 q 512 626 510 635 q 521 618 514 618 q 534 623 529 617 q 540 638 539 629 q 538 651 540 644 q 526 660 536 658 m 546 163 q 531 154 535 161 q 531 139 526 147 q 540 108 536 128 q 546 79 544 88 q 551 72 546 74 q 563 71 557 71 q 574 108 578 71 q 572 120 574 111 q 567 139 571 129 q 559 156 564 149 q 546 163 554 163 z "},"G":{"ha":660,"x_min":19,"x_max":640,"o":"m 592 418 q 617 408 607 418 q 631 385 626 399 q 638 357 636 372 q 640 329 640 342 q 638 305 640 318 q 628 280 635 292 q 613 260 622 268 q 590 251 603 251 l 582 251 q 586 194 586 225 q 523 17 586 85 q 331 -51 460 -51 q 172 -21 233 -51 q 77 67 111 10 q 31 207 43 124 q 19 394 19 290 q 32 567 19 486 q 78 708 44 647 q 170 805 111 769 q 324 840 229 840 q 526 773 461 840 q 590 576 590 706 q 557 497 590 521 q 471 474 524 474 q 419 487 438 474 q 397 535 401 500 q 395 567 396 553 q 390 592 394 582 q 375 608 386 603 q 340 614 364 614 q 287 585 306 614 q 259 519 268 557 q 248 441 250 481 q 246 379 246 401 q 247 321 246 356 q 258 253 249 286 q 285 197 267 221 q 339 174 304 174 q 376 180 364 174 q 392 197 388 186 q 395 222 396 208 q 393 251 394 236 l 372 251 q 322 274 333 251 q 311 333 311 297 q 312 362 311 347 q 317 388 313 376 q 333 408 322 400 q 361 415 343 415 l 479 415 l 507 415 l 563 418 l 592 418 m 429 769 q 421 758 424 767 q 422 742 418 750 q 438 713 429 729 q 457 682 446 697 q 467 661 464 672 q 473 641 469 650 q 483 626 476 632 q 501 619 489 619 q 523 644 518 621 q 514 700 528 668 q 471 759 497 739 q 429 769 444 779 m 499 581 q 501 560 497 569 q 513 547 506 550 q 534 550 524 542 q 546 572 544 558 q 531 601 549 594 q 499 581 503 615 m 569 399 q 565 394 567 397 q 564 386 563 390 q 568 374 567 378 q 574 361 569 369 q 581 337 581 350 q 594 324 582 324 q 612 334 606 324 q 613 364 618 344 q 593 394 606 385 q 569 399 581 403 z "},"Q":{"ha":726,"x_min":28,"x_max":682,"o":"m 636 107 q 660 97 651 107 q 674 74 669 88 q 681 45 679 61 q 682 17 682 29 q 667 -27 682 -4 q 626 -53 653 -50 q 554 -58 590 -56 q 482 -60 518 -60 q 362 -54 419 -60 q 260 -37 304 -49 q 258 -37 258 -37 q 256 -36 257 -36 q 79 88 131 -14 q 28 385 28 189 q 48 603 28 517 q 110 743 68 690 q 216 817 151 796 q 369 839 281 839 q 507 814 449 839 q 603 732 565 789 q 658 581 640 675 q 676 350 676 488 q 655 219 676 282 q 597 106 633 157 q 618 106 608 106 q 636 107 628 107 m 451 758 q 441 746 444 754 q 442 731 438 738 q 455 716 444 724 q 478 699 465 708 q 503 677 490 690 q 526 647 517 664 q 534 628 531 639 q 542 608 538 617 q 552 592 546 599 q 568 586 558 586 q 591 608 588 586 q 583 658 594 631 q 556 705 574 683 q 518 740 538 726 q 481 760 499 754 q 451 758 463 765 m 261 356 q 262 300 261 331 q 271 244 263 269 q 297 201 279 218 q 350 183 315 183 q 412 208 392 183 q 440 267 432 232 q 447 340 447 301 q 446 408 446 379 q 420 551 446 500 q 350 603 394 603 q 297 574 315 603 q 271 505 279 544 q 262 423 263 465 q 261 356 261 381 m 567 549 q 567 530 564 539 q 578 518 571 521 q 597 519 588 513 q 608 538 606 526 q 606 554 610 546 q 596 565 603 563 q 577 567 585 572 q 567 549 569 563 m 618 82 q 615 78 617 81 q 613 71 613 75 q 617 60 615 64 q 622 50 618 57 q 627 29 626 40 q 639 18 628 18 q 653 27 647 18 q 654 51 658 36 q 639 78 649 71 q 618 82 629 85 z "},"J":{"ha":497,"x_min":14,"x_max":458,"o":"m 14 128 q 19 165 14 144 q 37 203 25 186 q 68 233 49 221 q 115 246 88 246 q 148 234 138 246 q 165 208 158 222 q 178 181 171 193 q 199 169 185 169 q 218 174 211 169 q 228 194 225 179 q 234 288 235 243 q 231 381 233 333 l 221 661 q 245 785 218 747 q 338 824 272 824 q 426 803 393 824 q 458 724 458 782 q 456 468 458 601 q 453 196 453 335 q 435 101 453 149 q 387 18 418 54 q 311 -41 356 -18 q 213 -64 267 -64 q 135 -49 171 -64 q 72 -9 99 -35 q 29 51 44 17 q 14 128 14 86 m 389 756 q 370 742 375 754 q 364 716 365 731 q 364 687 363 701 q 365 664 365 672 q 365 644 365 657 q 367 618 365 631 q 374 597 368 606 q 389 588 379 588 q 406 594 400 588 q 415 611 413 601 q 419 631 418 621 q 419 650 419 642 q 418 674 419 657 q 414 710 417 692 q 405 743 411 729 q 389 756 399 757 m 400 563 q 378 550 386 563 q 369 525 369 538 q 389 506 369 506 q 410 515 401 506 q 419 536 419 524 q 415 553 419 544 q 400 563 410 563 z "},"V":{"ha":671,"x_min":38,"x_max":656,"o":"m 340 -43 q 288 -40 310 -43 q 249 -30 265 -37 q 222 -9 233 -22 q 199 25 210 4 q 177 90 192 38 q 145 214 163 142 q 108 369 128 286 q 74 525 89 451 q 48 653 58 599 q 38 724 38 707 q 44 777 38 757 q 64 807 50 797 q 100 819 78 817 q 153 822 122 822 q 217 813 193 822 q 261 764 242 803 q 274 719 267 753 q 288 638 281 685 q 304 538 296 592 q 319 435 313 485 q 333 345 326 386 q 343 283 339 304 q 396 516 371 401 q 444 749 421 631 q 456 787 449 772 q 473 809 463 801 q 499 819 483 817 q 539 822 515 822 q 577 816 557 822 q 615 799 597 810 q 644 772 632 788 q 656 735 656 756 q 644 665 656 718 q 616 539 633 611 q 578 385 599 467 q 537 230 557 303 q 501 103 517 157 q 476 32 485 49 q 427 -27 457 -11 q 340 -43 397 -43 m 586 774 q 565 770 574 776 q 556 749 556 764 q 559 724 556 739 q 563 693 563 710 q 560 669 563 681 q 555 646 557 657 q 556 625 553 635 q 568 608 558 615 q 594 615 583 597 q 611 668 604 633 q 613 740 621 708 q 586 774 606 771 m 207 768 q 194 758 197 765 q 191 741 190 750 q 194 723 192 732 q 199 707 197 714 q 201 692 200 701 q 206 676 203 683 q 215 663 210 668 q 228 658 219 657 q 241 665 238 660 q 246 676 244 669 q 246 690 247 682 q 243 703 244 697 q 240 720 243 708 q 233 743 238 732 q 222 763 228 754 q 207 768 215 771 m 238 639 q 221 626 226 636 q 218 606 215 615 q 236 592 219 589 q 252 602 246 594 q 256 619 258 610 q 249 633 254 626 q 238 639 244 640 m 543 578 q 533 560 536 569 q 535 543 531 550 q 554 533 540 533 q 576 543 568 533 q 584 559 583 550 q 582 575 585 568 q 564 589 572 589 q 543 578 554 589 z "},"U":{"ha":663,"x_min":38,"x_max":625,"o":"m 324 -43 q 194 -20 247 -43 q 110 44 142 3 q 63 144 78 86 q 46 274 49 203 q 40 460 43 367 q 38 647 38 553 q 40 715 38 683 q 54 769 43 746 q 90 805 65 792 q 157 818 114 818 q 244 785 219 818 q 269 693 269 753 l 269 296 q 272 269 269 283 q 281 242 275 254 q 298 221 288 229 q 325 213 308 213 q 378 239 360 213 q 406 302 397 265 q 415 377 414 339 q 417 439 417 415 q 416 494 417 467 q 415 550 415 522 l 413 624 q 412 679 413 651 q 411 735 411 707 q 442 799 411 779 q 513 818 472 818 q 583 784 560 818 q 616 702 607 750 q 624 603 625 654 q 624 519 624 553 q 623 433 624 476 q 621 346 622 390 q 608 188 619 260 q 566 65 597 117 q 477 -15 535 14 q 324 -43 419 -43 m 551 756 q 533 742 538 754 q 526 716 528 731 q 526 687 525 701 q 528 664 528 672 q 528 644 528 657 q 529 618 528 631 q 536 597 531 606 q 551 588 542 588 q 569 594 563 588 q 578 611 575 601 q 581 631 581 621 q 582 650 582 642 q 581 674 582 657 q 576 710 579 692 q 567 743 574 729 q 551 756 561 757 m 563 563 q 540 550 549 563 q 532 525 532 538 q 551 506 532 506 q 573 515 564 506 q 582 536 582 524 q 577 553 582 544 q 563 563 572 563 z "},"Y":{"ha":628,"x_min":26,"x_max":606,"o":"m 256 274 q 130 297 175 274 q 63 363 85 321 q 35 460 40 404 q 29 583 29 517 l 31 596 l 31 601 q 28 663 31 625 q 33 735 26 700 q 58 796 39 771 q 119 821 76 821 q 128 822 124 821 l 142 822 q 213 808 188 822 q 254 750 238 794 q 263 703 263 728 q 257 610 263 656 q 251 517 251 564 q 266 483 251 489 q 304 476 281 476 q 342 485 328 476 q 365 507 357 493 q 376 540 374 521 q 379 578 379 558 q 374 653 379 615 q 369 728 369 690 q 381 774 369 756 q 412 802 393 792 q 454 817 431 813 q 500 822 478 822 q 575 802 544 822 q 606 733 606 782 q 599 559 606 646 q 593 385 593 472 q 594 354 593 369 q 594 324 594 339 l 597 283 q 598 253 597 268 q 599 222 599 238 q 577 94 599 146 q 515 11 556 43 q 417 -35 475 -21 q 289 -49 360 -49 q 106 10 178 -49 q 51 68 75 33 q 26 146 26 103 q 37 184 26 165 q 64 217 47 203 q 101 240 81 232 q 139 249 121 249 q 164 241 153 249 q 182 222 175 233 q 237 170 204 188 q 308 153 269 153 q 351 168 336 153 q 374 206 367 183 q 383 253 381 228 q 385 299 385 279 q 385 312 385 306 q 383 326 385 318 q 324 288 357 303 q 256 274 292 274 m 199 761 q 181 754 186 761 q 175 739 176 747 q 174 722 174 731 q 174 707 174 713 q 173 694 174 703 q 174 676 172 685 q 180 661 175 668 q 193 654 185 654 q 217 667 213 653 q 224 690 222 681 q 221 737 226 713 q 199 761 215 761 m 544 758 q 525 746 531 757 q 517 720 519 735 q 515 691 515 706 q 515 668 515 676 q 515 646 515 661 q 516 616 514 631 q 524 590 518 601 q 539 578 529 578 q 557 583 550 576 q 567 600 564 590 q 572 620 571 610 q 574 639 574 631 q 574 678 575 657 q 570 717 574 700 q 560 747 567 735 q 544 758 554 758 m 549 553 q 526 542 535 554 q 515 518 517 531 q 533 496 515 497 q 555 503 546 494 q 565 526 564 513 q 562 542 565 533 q 549 553 558 551 z "},"W":{"ha":838,"x_min":21,"x_max":815,"o":"m 194 -35 q 119 -7 146 -35 q 81 65 93 21 q 52 200 63 128 q 35 345 42 272 q 26 485 29 418 q 22 606 24 553 q 22 697 21 656 q 31 767 22 738 q 58 813 39 797 q 113 829 78 829 q 163 822 136 829 q 206 789 190 814 q 219 744 213 776 q 230 669 225 711 q 239 578 235 626 q 245 486 243 531 q 249 406 247 442 q 250 353 250 369 q 263 395 254 365 q 282 464 271 425 q 306 546 293 503 q 332 626 319 589 q 356 690 344 663 q 374 724 367 717 q 396 735 382 732 q 422 739 410 739 q 448 736 436 739 q 469 725 460 733 q 492 690 479 717 q 517 626 504 663 q 543 548 531 589 q 566 470 556 507 q 585 404 576 433 q 596 363 593 375 q 599 456 597 403 q 601 560 600 510 q 603 649 601 610 q 606 697 604 688 q 614 749 608 725 q 631 791 619 774 q 663 818 643 808 q 715 828 683 828 q 794 803 772 828 q 815 724 815 779 q 808 560 815 644 q 788 392 800 475 q 764 235 776 310 q 742 100 751 160 q 730 43 736 68 q 713 1 724 18 q 683 -26 701 -17 q 635 -35 664 -35 q 578 -27 604 -35 q 528 0 551 -19 q 506 33 518 8 q 482 90 494 57 q 458 160 469 122 q 436 233 446 197 q 418 298 426 268 q 404 343 410 328 q 383 267 397 319 q 353 160 369 215 q 321 58 338 104 q 289 0 304 11 q 244 -27 263 -19 q 194 -35 225 -35 m 157 792 q 133 779 136 793 q 137 761 133 774 q 143 743 140 749 q 148 727 146 736 q 152 710 150 718 q 159 696 154 701 q 174 690 164 690 q 188 703 185 690 q 192 726 192 717 q 181 769 192 749 q 157 792 171 789 m 757 774 q 735 770 744 776 q 726 749 726 764 q 730 724 726 739 q 733 693 733 710 q 731 666 733 681 q 730 639 729 651 q 735 617 731 626 q 751 608 739 608 q 775 625 769 608 q 781 694 781 642 q 776 747 781 722 q 757 774 772 771 m 174 678 q 163 672 167 678 q 157 660 158 667 q 159 644 157 653 q 168 636 161 636 q 181 641 176 635 q 188 656 186 647 q 185 669 188 663 q 174 678 183 676 m 726 578 q 717 560 719 569 q 718 543 714 550 q 738 533 724 533 q 760 543 751 533 q 767 559 767 550 q 765 575 768 568 q 747 589 756 589 q 726 578 738 589 z "},"X":{"ha":685,"x_min":14,"x_max":671,"o":"m 19 103 q 56 178 33 143 q 104 248 78 214 q 157 316 131 282 q 206 385 183 350 q 168 444 190 410 q 122 515 146 478 q 76 588 99 551 q 39 651 54 624 q 17 715 21 685 q 24 767 14 744 q 54 803 33 789 q 104 821 75 817 q 147 818 128 824 q 181 801 165 813 q 209 775 196 790 q 233 743 222 760 q 284 653 260 706 q 336 551 308 600 q 372 622 357 588 q 407 693 388 656 q 431 740 419 718 q 457 779 443 763 q 490 806 471 796 q 539 815 510 815 q 613 790 583 815 q 643 717 643 765 q 619 644 643 690 q 564 548 596 597 q 499 453 532 499 q 450 383 467 408 q 481 327 465 360 q 516 263 497 294 q 555 208 535 232 q 596 178 575 185 q 653 134 636 167 q 671 69 671 101 q 660 10 671 32 q 634 -23 650 -12 q 600 -36 618 -33 q 565 -39 582 -39 q 510 -35 533 -39 q 470 -22 488 -31 q 440 1 453 -12 q 417 32 428 14 q 368 126 386 78 q 322 224 350 175 q 293 167 307 197 q 264 105 279 136 q 232 45 249 74 q 194 -4 215 17 q 125 -35 165 -35 q 43 -10 72 -35 q 14 74 14 15 q 16 90 14 79 q 19 103 18 100 m 592 757 q 577 753 585 758 q 567 740 569 747 q 559 715 563 729 q 549 685 556 700 q 528 649 539 665 q 533 615 518 632 q 546 610 539 610 q 570 622 557 610 q 593 657 583 635 q 608 724 608 693 q 592 757 608 754 m 507 593 q 495 579 500 588 q 493 564 490 571 q 514 549 497 549 q 531 556 521 549 q 540 568 538 560 q 539 583 542 576 q 522 600 535 600 q 507 593 517 600 m 610 140 q 594 132 599 139 q 594 117 590 125 q 604 85 600 106 q 610 57 608 65 q 615 50 610 51 q 626 49 621 49 q 638 86 642 49 q 636 98 638 89 q 631 117 635 107 q 623 133 628 126 q 610 140 618 140 z "},".":{"ha":383,"x_min":63,"x_max":321,"o":"m 321 113 q 289 3 321 44 q 186 -37 257 -37 q 91 1 119 -37 q 63 101 63 39 q 93 203 63 161 q 186 244 124 244 q 321 113 321 244 m 239 199 q 222 188 225 199 q 226 168 222 181 q 233 150 231 156 q 238 135 236 143 q 241 119 239 126 q 247 106 243 111 q 261 101 251 101 q 278 111 274 101 q 283 131 283 121 q 274 174 285 151 q 239 199 263 197 m 260 88 q 248 80 253 88 q 242 65 243 72 q 244 48 242 58 q 254 38 246 38 q 271 42 265 35 q 278 58 276 49 q 275 76 279 68 q 260 88 271 85 z "},",":{"ha":381,"x_min":53,"x_max":319,"o":"m 118 15 q 69 46 86 21 q 53 108 53 71 q 63 154 53 132 q 92 194 74 176 q 134 224 110 213 q 185 235 158 235 q 283 196 247 235 q 319 94 319 157 q 304 29 319 65 q 265 -38 289 -7 q 209 -91 240 -69 q 146 -112 178 -112 q 106 -104 125 -112 q 88 -71 88 -96 q 99 -26 88 -46 q 118 15 111 -7 m 225 201 q 216 199 221 201 q 210 189 211 196 q 217 171 208 183 q 228 151 225 158 q 240 123 235 139 q 263 108 244 107 q 277 121 274 110 q 279 142 281 132 q 263 184 278 164 q 225 201 249 204 m 263 94 q 251 86 256 94 q 247 71 247 78 q 252 54 249 64 q 264 44 256 44 q 283 68 283 46 q 278 88 282 79 q 263 94 274 96 z "},":":{"ha":413,"x_min":63,"x_max":321,"o":"m 321 707 q 289 598 321 639 q 186 557 257 557 q 91 595 119 557 q 63 696 63 633 q 93 797 63 756 q 186 839 124 839 q 321 707 321 839 m 239 793 q 228 790 233 793 q 222 782 222 788 q 226 763 221 775 q 233 744 231 750 q 238 729 236 738 q 241 713 239 721 q 247 701 243 706 q 261 696 251 696 q 278 706 274 696 q 283 725 283 715 q 274 768 285 746 q 239 793 263 790 m 260 682 q 248 675 253 683 q 242 660 243 667 q 244 642 242 653 q 254 631 246 631 q 271 636 265 629 q 278 653 276 643 q 275 672 279 663 q 260 682 271 681 m 321 113 q 289 3 321 44 q 186 -37 257 -37 q 91 1 119 -37 q 63 101 63 39 q 93 203 63 161 q 186 244 124 244 q 321 113 321 244 m 239 199 q 222 188 225 199 q 226 168 222 181 q 233 150 231 156 q 238 135 236 143 q 241 119 239 126 q 247 106 243 111 q 261 101 251 101 q 278 111 274 101 q 283 131 283 121 q 274 174 285 151 q 239 199 263 196 m 260 88 q 248 80 253 88 q 242 65 243 72 q 244 47 242 58 q 254 36 246 36 q 271 42 265 35 q 278 58 276 49 q 275 76 279 68 q 260 88 271 85 z "},";":{"ha":386,"x_min":63,"x_max":329,"o":"m 321 707 q 289 598 321 639 q 186 557 257 557 q 91 595 119 557 q 63 696 63 633 q 93 797 63 756 q 186 839 124 839 q 321 707 321 839 m 239 793 q 228 790 233 793 q 222 782 222 788 q 226 763 221 775 q 233 744 231 750 q 238 729 236 738 q 241 713 239 721 q 247 701 243 706 q 261 696 251 696 q 278 706 274 696 q 283 725 283 715 q 274 768 285 746 q 239 793 263 790 m 260 682 q 248 675 253 683 q 242 660 243 667 q 244 642 242 653 q 254 631 246 631 q 271 636 265 629 q 278 653 276 643 q 275 672 279 663 q 260 682 271 681 m 128 15 q 79 46 96 21 q 63 108 63 71 q 73 154 63 132 q 101 194 83 176 q 144 224 119 213 q 194 235 168 235 q 293 196 257 235 q 329 94 329 157 q 314 29 329 65 q 274 -38 299 -7 q 219 -91 250 -69 q 156 -112 188 -112 q 116 -104 135 -112 q 97 -71 97 -96 q 109 -26 97 -46 q 128 15 121 -6 m 235 201 q 219 189 222 201 q 226 170 218 182 q 238 151 235 158 q 249 123 244 139 q 272 108 254 107 q 287 121 283 110 q 289 142 290 132 q 273 184 288 164 q 235 201 258 204 m 272 94 q 260 86 265 94 q 256 71 254 78 q 261 54 257 64 q 274 44 265 44 q 293 68 293 46 q 288 88 292 79 q 272 94 283 96 z "},"-":{"ha":539,"x_min":65,"x_max":481,"o":"m 481 389 q 463 301 481 324 q 403 278 446 278 l 157 278 q 89 301 113 278 q 65 379 65 324 q 83 458 65 435 q 143 482 100 482 l 242 482 q 263 482 253 482 q 282 483 272 482 l 365 486 q 418 484 396 486 q 454 472 440 482 q 474 443 468 463 q 481 389 481 424 m 406 460 q 390 449 393 460 q 394 431 390 443 q 400 414 397 419 q 408 383 406 400 q 428 367 410 367 q 442 376 439 367 q 447 396 446 386 q 438 436 449 415 q 406 460 428 457 m 428 354 q 417 349 421 354 q 411 338 413 344 q 413 323 411 331 q 422 315 415 315 q 440 333 438 314 q 438 347 440 340 q 428 354 436 353 z "},"+":{"ha":682,"x_min":88,"x_max":615,"o":"m 258 326 q 194 325 225 326 q 140 331 164 324 q 101 358 115 338 q 88 421 88 378 q 102 490 88 468 q 140 519 117 511 q 196 524 164 526 q 261 524 228 522 q 259 587 261 557 q 263 639 257 617 q 290 674 269 661 q 354 688 310 688 q 427 671 404 688 q 450 601 450 654 q 450 563 450 582 q 449 525 450 544 q 513 526 482 524 q 566 522 543 528 q 602 494 589 515 q 615 426 615 474 q 603 361 615 382 q 570 333 592 340 q 518 326 549 325 q 451 328 488 328 q 451 269 451 297 q 442 219 450 240 q 413 185 433 197 q 353 172 393 172 q 281 187 306 172 q 257 254 257 201 q 257 290 257 272 q 258 326 257 308 m 528 494 q 518 492 524 494 q 513 483 513 489 q 516 464 513 478 q 524 436 519 450 q 536 412 529 422 q 550 401 543 401 q 565 413 561 401 q 569 433 569 425 q 559 473 569 451 q 528 494 549 494 m 550 389 q 539 384 544 389 q 533 372 533 379 q 535 358 533 365 q 546 350 538 350 q 563 368 563 350 q 560 382 563 375 q 550 389 558 389 z "},"*":{"ha":553,"x_min":54,"x_max":486,"o":"m 132 500 q 104 510 118 500 q 80 534 90 519 q 63 565 69 549 q 57 593 57 581 q 78 636 57 621 q 126 661 100 651 q 78 679 103 664 q 54 724 54 694 q 60 760 54 742 q 78 792 67 778 q 106 817 89 807 q 143 826 122 826 q 154 822 147 826 q 169 812 161 818 q 185 800 178 806 q 194 792 192 794 l 194 799 q 211 865 194 839 q 267 890 228 890 q 328 861 311 890 q 344 792 344 832 q 372 816 356 800 q 403 832 389 832 q 433 824 418 832 q 459 801 447 815 q 478 770 471 788 q 486 736 486 753 q 467 691 486 704 q 424 671 449 678 q 467 656 449 667 q 486 615 486 644 q 481 578 486 597 q 464 542 475 558 q 438 516 453 526 q 404 506 424 506 q 369 516 385 506 q 342 538 354 526 q 340 502 342 519 q 330 472 338 485 q 307 451 322 458 q 264 443 292 443 q 213 463 225 443 q 200 518 200 482 l 200 526 q 163 508 182 515 q 132 500 143 500 m 396 807 q 390 794 388 804 q 400 783 393 790 q 410 772 407 775 q 425 751 418 764 q 444 746 432 739 q 451 758 451 749 q 449 775 451 768 q 428 801 443 789 q 396 807 413 814 m 451 742 q 445 737 447 742 q 442 728 443 732 q 444 719 442 724 q 450 714 446 714 q 463 728 463 714 q 451 742 463 742 z "},"^":{"ha":610,"x_min":67,"x_max":558,"o":"m 154 429 q 123 435 139 429 q 94 453 107 442 q 74 478 82 464 q 67 510 67 493 q 90 571 67 526 q 142 666 113 615 q 201 763 172 717 q 243 828 231 808 q 272 865 257 850 q 315 879 288 879 q 353 861 336 879 q 381 828 369 843 q 407 790 390 815 q 443 734 424 765 q 483 669 463 703 q 521 604 504 635 q 548 549 538 574 q 558 511 558 524 q 551 483 558 497 q 533 458 544 469 q 508 439 522 446 q 481 432 494 432 q 428 444 449 432 q 394 476 407 457 q 353 560 372 511 q 313 643 335 608 q 287 586 303 622 q 250 515 271 550 q 205 455 229 481 q 154 429 181 429 m 510 563 q 493 558 500 564 q 488 546 486 551 q 489 526 490 538 q 488 503 488 514 q 490 484 488 492 q 501 476 492 476 q 519 487 511 475 q 529 506 528 499 q 526 542 532 524 q 510 563 521 561 z "},"":{"ha":543,"x_min":65,"x_max":489,"o":"m 422 1101 q 454 1090 442 1101 q 474 1063 467 1079 q 485 1029 482 1047 q 489 996 489 1011 q 481 942 489 969 q 458 891 474 914 q 419 854 442 868 q 365 840 396 840 q 309 850 333 840 q 267 872 285 860 q 236 894 250 885 q 211 904 222 904 q 203 894 206 904 q 194 872 200 885 q 176 850 188 860 q 142 840 164 840 q 105 851 119 840 q 81 880 90 863 q 69 917 72 897 q 65 956 65 938 q 75 1008 65 982 q 102 1056 85 1035 q 143 1090 119 1076 q 196 1103 167 1103 q 247 1092 224 1103 q 290 1068 271 1081 q 324 1044 310 1056 q 344 1033 338 1033 q 358 1044 351 1033 q 372 1067 364 1054 q 391 1091 379 1081 q 422 1101 403 1101 m 435 1075 q 424 1065 424 1075 q 426 1051 424 1061 q 431 1036 428 1040 q 437 1011 435 1025 q 454 997 439 997 q 467 1006 464 997 q 471 1021 469 1014 q 463 1056 472 1038 q 435 1075 454 1074 z "},"/":{"ha":589,"x_min":64,"x_max":536,"o":"m 535 796 q 533 760 536 782 q 515 693 529 738 q 492 624 506 663 q 464 542 479 585 q 433 453 449 499 q 403 363 418 407 q 349 203 375 283 q 303 61 324 124 q 286 13 296 39 q 263 -37 276 -14 q 232 -78 250 -61 q 190 -96 214 -94 q 152 -91 174 -97 q 112 -73 131 -85 q 80 -47 93 -61 q 65 -17 67 -32 q 68 21 64 -4 q 81 77 72 46 q 99 143 89 108 q 121 211 110 178 q 162 331 138 257 q 215 485 186 404 q 273 647 243 567 q 329 788 303 728 q 381 864 354 844 q 438 883 407 883 q 469 877 453 883 q 500 859 486 871 q 524 831 514 847 q 535 796 533 815 m 481 818 q 469 815 475 819 q 460 804 463 811 q 453 775 456 792 q 447 743 450 758 q 441 722 446 732 q 433 704 436 713 q 429 688 429 696 q 438 674 429 681 q 450 668 446 668 q 474 681 461 668 q 494 718 488 694 q 501 785 507 754 q 481 818 496 815 m 413 649 q 403 633 406 642 q 403 618 400 625 q 422 606 407 606 q 439 613 429 606 q 447 642 453 626 q 429 657 440 657 q 413 649 421 657 z "},"<":{"ha":703,"x_min":107,"x_max":604,"o":"m 533 138 q 483 144 515 138 q 412 162 451 150 q 329 191 372 174 q 246 232 286 208 q 192 264 217 249 q 148 296 167 279 q 118 331 129 313 q 107 374 107 350 q 154 480 107 429 q 299 592 201 531 q 347 619 317 603 q 412 650 378 635 q 478 676 446 665 q 529 688 510 688 q 563 678 549 688 q 585 653 576 668 q 597 618 593 638 q 601 578 601 599 q 577 522 601 547 q 518 476 553 497 q 445 437 483 456 q 378 401 407 418 q 446 376 407 386 q 520 351 485 365 q 580 315 556 338 q 604 250 604 292 q 585 169 604 201 q 533 138 567 138 m 515 663 q 506 650 504 660 q 512 636 507 646 q 519 624 517 626 q 526 611 524 618 q 533 599 529 604 q 541 590 536 593 q 553 589 546 588 q 564 601 563 592 q 564 618 565 610 q 548 650 561 635 q 515 663 535 665 m 556 579 q 546 563 543 576 q 550 551 547 557 q 558 546 553 544 q 571 564 574 549 q 566 576 569 571 q 556 579 563 581 m 539 292 q 534 287 536 290 q 533 279 532 283 q 538 267 536 271 q 543 254 539 263 q 551 230 550 243 q 564 217 551 217 q 581 227 575 217 q 582 257 588 238 q 563 287 575 278 q 539 292 550 296 z "},">":{"ha":739,"x_min":107,"x_max":604,"o":"m 178 138 q 126 169 144 138 q 107 250 107 201 q 131 315 107 292 q 191 351 156 338 q 265 376 226 365 q 333 401 304 386 q 266 435 304 418 q 193 472 228 453 q 134 515 158 492 q 110 568 110 538 q 114 608 110 589 q 126 643 118 628 q 149 668 135 658 q 182 678 163 678 q 233 669 201 678 q 299 646 265 660 q 364 617 333 632 q 413 592 394 603 q 557 480 510 531 q 604 374 604 429 q 594 331 604 350 q 565 296 583 313 q 520 264 546 279 q 465 232 494 249 q 383 191 426 208 q 299 162 339 174 q 228 144 260 150 q 178 138 196 138 m 533 453 q 523 447 526 453 q 521 436 519 440 q 528 413 522 428 q 539 390 535 399 q 546 365 546 378 q 558 351 546 353 q 576 361 569 351 q 578 390 582 371 q 558 432 572 411 q 533 453 543 453 z "},"=":{"ha":738,"x_min":65,"x_max":661,"o":"m 586 625 q 644 601 628 625 q 661 528 661 576 q 644 440 661 463 q 583 417 626 417 l 157 417 q 89 440 113 417 q 65 518 65 463 q 83 597 65 574 q 143 621 100 621 l 242 621 q 270 621 253 621 q 311 622 288 621 l 517 625 l 586 625 m 586 599 q 571 588 574 599 q 574 570 571 582 q 581 553 578 558 q 588 522 586 539 q 608 506 590 506 q 623 515 619 506 q 628 535 626 525 q 619 575 629 554 q 586 599 608 596 m 608 493 q 597 488 601 493 q 592 476 593 483 q 594 462 592 469 q 603 454 596 454 q 621 472 618 453 q 619 485 621 479 q 608 493 617 492 m 586 371 q 644 347 628 371 q 661 274 661 322 q 644 185 661 208 q 583 163 626 163 l 157 163 q 89 185 113 163 q 65 264 65 208 q 83 343 65 319 q 143 367 100 367 l 242 367 q 270 367 253 367 q 311 368 288 367 l 517 371 l 586 371 m 603 333 q 593 326 593 333 q 594 315 592 322 q 600 303 597 307 q 605 283 603 294 q 618 272 607 272 q 627 278 625 272 q 631 292 629 285 q 625 318 632 304 q 603 333 618 332 z "},"!":{"ha":408,"x_min":96,"x_max":329,"o":"m 96 754 q 126 828 96 801 q 204 854 157 854 q 296 832 263 854 q 329 760 329 810 q 324 627 329 697 q 313 494 319 557 q 301 381 307 431 q 296 310 296 331 q 272 243 296 268 q 206 218 247 218 q 144 243 163 218 q 125 308 125 268 q 120 380 125 331 q 110 492 115 429 q 101 624 106 554 q 96 754 96 693 m 269 804 q 250 792 256 803 q 242 766 244 781 q 240 737 240 751 q 240 714 240 722 q 240 692 240 707 q 241 662 239 676 q 249 635 243 647 q 264 624 254 624 q 282 629 275 622 q 292 646 289 636 q 297 666 296 656 q 299 685 299 676 q 299 724 300 703 q 295 763 299 746 q 285 792 292 781 q 269 804 279 804 m 274 599 q 251 588 260 600 q 240 564 242 576 q 258 542 240 543 q 280 549 271 540 q 290 572 289 558 q 287 588 290 579 q 274 599 283 597 m 318 82 q 310 37 318 60 q 287 -3 301 14 q 251 -32 272 -21 q 207 -43 231 -43 q 129 -9 158 -43 q 100 72 100 25 q 126 155 100 121 q 206 189 153 189 q 285 160 253 189 q 318 82 318 131 m 251 146 q 240 136 242 142 q 239 124 238 131 q 243 110 240 117 q 247 99 246 103 q 251 88 249 94 q 256 73 253 81 q 265 61 260 65 q 278 58 271 57 q 295 76 294 64 q 293 97 296 89 q 277 133 289 117 q 251 146 265 150 z "},"?":{"ha":649,"x_min":43,"x_max":606,"o":"m 325 651 q 271 639 290 651 q 241 608 251 626 q 226 568 231 590 q 213 528 221 546 q 192 497 206 510 q 153 485 179 485 q 76 517 110 485 q 43 593 43 549 q 67 694 43 649 q 128 774 90 740 q 217 825 167 807 q 319 843 267 843 q 428 833 376 843 q 519 798 479 824 q 582 727 558 772 q 606 613 606 682 q 590 525 606 560 q 549 465 574 490 q 497 423 525 440 q 444 389 468 406 q 403 353 419 372 q 388 304 388 333 q 385 265 388 283 q 375 234 383 247 q 351 213 367 221 q 310 206 336 206 q 244 225 274 206 q 215 286 215 244 q 228 390 215 349 q 262 460 242 432 q 306 504 282 488 q 349 535 329 521 q 383 565 369 550 q 396 601 396 579 q 381 640 396 629 q 325 651 365 651 m 419 772 q 412 759 414 767 q 417 744 410 751 q 442 726 428 733 q 469 701 456 718 q 482 681 478 692 q 492 663 486 671 q 504 651 497 654 q 524 650 511 647 q 543 678 540 654 q 524 729 546 701 q 481 767 504 754 q 439 779 457 779 q 419 772 426 779 m 513 596 q 520 576 514 585 q 533 565 526 568 q 553 573 544 563 q 561 597 563 583 q 554 613 561 607 q 540 622 547 619 q 513 596 510 629 m 418 79 q 409 35 418 57 q 385 -5 400 13 q 349 -33 369 -22 q 306 -43 329 -43 q 230 -9 257 -43 q 203 71 203 25 q 228 151 203 118 q 304 185 254 185 q 383 156 349 185 q 418 79 418 126 m 325 150 q 314 139 315 146 q 315 126 313 132 q 321 113 317 119 q 326 103 325 107 q 331 92 328 99 q 340 78 335 85 q 350 67 344 71 q 363 67 356 64 q 376 86 378 74 q 372 107 375 99 q 352 142 367 126 q 325 150 338 157 z "},"'":{"ha":313,"x_min":46,"x_max":256,"o":"m 46 771 q 70 847 46 815 q 147 878 94 878 q 228 849 200 878 q 256 772 256 821 q 252 704 256 743 q 237 629 249 665 q 204 568 225 593 q 149 543 183 543 q 88 567 108 543 q 57 626 67 592 q 47 701 47 661 q 46 771 46 740 m 193 842 q 178 831 181 842 q 181 813 178 825 q 188 796 185 801 q 195 765 193 782 q 215 749 197 749 q 230 758 226 749 q 235 778 233 768 q 226 818 236 797 q 193 842 215 839 z "},"\"":{"ha":546,"x_min":46,"x_max":497,"o":"m 46 771 q 70 847 46 815 q 147 878 94 878 q 228 849 200 878 q 256 772 256 821 q 252 704 256 743 q 237 629 249 665 q 204 568 225 593 q 149 543 183 543 q 88 567 108 543 q 57 626 67 592 q 47 701 47 661 q 46 771 46 740 m 288 771 q 312 847 288 815 q 389 878 336 878 q 469 849 442 878 q 497 772 497 821 q 494 704 497 743 q 478 629 490 665 q 446 568 467 593 q 390 543 425 543 q 329 567 350 543 q 299 626 308 592 q 288 701 289 661 q 288 771 288 740 m 435 842 q 419 831 422 842 q 423 813 419 825 q 429 796 426 801 q 437 765 435 782 q 457 749 439 749 q 472 758 468 749 q 476 778 475 768 q 467 818 478 797 q 435 842 457 839 z "},"#":{"ha":844,"x_min":61,"x_max":789,"o":"m 188 360 q 188 369 188 363 q 190 386 189 376 q 193 408 192 396 q 149 410 171 408 q 109 420 126 411 q 81 449 92 429 q 71 504 71 468 q 88 572 71 543 q 143 601 106 601 q 185 601 171 601 q 226 599 199 601 q 236 658 229 621 q 254 732 243 696 q 283 794 265 768 q 328 821 301 821 q 409 800 381 821 q 438 728 438 779 q 433 660 438 694 q 421 594 428 626 q 475 593 449 593 q 529 593 501 593 q 539 656 533 618 q 556 728 544 693 q 585 790 567 764 q 632 815 603 815 q 706 793 683 815 q 728 717 728 771 q 723 656 728 686 q 711 597 718 626 q 766 573 743 592 q 789 510 789 554 q 779 451 789 472 q 753 421 769 431 q 714 409 736 411 q 667 407 692 407 l 661 356 q 742 336 717 354 q 767 261 767 318 q 757 199 767 219 q 729 171 747 178 q 687 165 711 164 q 635 165 663 165 q 622 107 631 136 q 599 56 614 78 q 562 19 585 33 q 507 6 539 6 q 456 31 472 6 q 440 93 440 57 q 443 133 440 118 q 450 171 446 147 q 398 172 424 171 q 344 172 372 174 q 333 114 339 144 q 317 58 328 83 q 287 17 306 33 q 236 0 268 0 q 203 6 221 0 q 170 24 185 13 q 146 51 156 36 q 136 85 136 67 q 139 128 136 111 q 147 171 142 146 q 84 188 107 171 q 61 263 61 206 q 69 315 61 296 q 92 344 76 333 q 132 357 108 354 q 188 360 156 360 m 735 565 q 722 557 725 565 q 725 543 722 553 q 729 531 728 533 q 736 507 735 519 q 751 494 738 494 q 763 502 760 494 q 767 517 765 510 q 759 547 768 532 q 735 565 750 563 m 751 485 q 742 481 746 485 q 738 472 739 476 q 739 460 736 467 q 747 454 742 454 q 761 468 758 454 q 751 485 761 483 m 488 357 l 494 410 q 439 412 467 411 q 383 413 411 413 l 376 357 l 488 357 m 726 314 q 717 301 715 311 q 721 285 718 292 q 727 267 725 276 q 736 257 729 257 q 745 265 743 257 q 744 283 747 272 q 738 306 743 294 q 726 314 733 317 z "},"@":{"ha":1013,"x_min":47,"x_max":976,"o":"m 47 360 q 87 551 47 463 q 195 706 126 640 q 356 809 264 771 q 556 847 449 847 q 867 753 757 847 q 976 488 976 660 q 954 360 976 422 q 896 250 932 299 q 813 172 860 201 q 718 143 767 143 q 645 163 678 143 q 592 218 613 182 q 526 149 563 174 q 450 125 490 125 q 384 144 415 125 q 329 194 353 163 q 292 268 306 226 q 278 357 278 310 q 302 475 278 419 q 367 574 326 531 q 461 642 407 617 q 575 667 515 667 q 647 656 614 667 q 703 626 679 646 q 740 581 726 607 q 753 524 753 556 q 747 463 753 500 q 735 390 740 425 q 731 329 731 354 q 746 304 732 304 q 805 356 781 304 q 829 515 829 407 q 758 662 829 607 q 567 717 686 717 q 422 691 488 717 q 308 619 356 665 q 233 510 260 574 q 207 372 207 447 q 294 160 207 236 q 550 92 382 83 q 670 103 619 96 q 756 122 721 111 q 815 142 792 132 q 851 161 838 153 q 888 172 868 172 q 923 158 910 172 q 936 128 936 144 q 846 13 936 64 q 571 -51 756 -39 q 354 -33 451 -60 q 189 48 257 -7 q 84 183 121 103 q 47 360 47 263 m 726 774 q 724 762 724 768 q 731 750 724 756 q 754 740 742 743 q 782 726 767 738 q 798 712 790 721 q 813 697 806 703 q 828 688 819 690 q 844 690 836 685 q 850 703 850 694 q 847 722 850 711 q 835 743 843 732 q 815 763 826 754 q 784 781 800 775 q 754 786 768 786 q 726 774 733 786 m 857 658 q 867 644 860 650 q 881 638 874 638 q 894 649 890 638 q 893 671 897 660 q 884 683 890 678 q 871 688 878 688 q 856 679 860 688 q 857 658 851 671 m 567 510 q 532 497 550 510 q 499 465 514 485 q 475 422 485 446 q 465 375 465 399 q 472 341 465 356 q 490 326 479 326 q 514 344 501 326 q 538 388 526 361 q 557 447 549 415 q 567 510 565 479 m 875 149 q 878 137 872 143 q 889 126 885 131 q 896 113 896 118 q 906 111 896 108 q 915 128 914 114 q 906 153 917 142 q 888 159 899 160 q 875 149 878 158 z "},"$":{"ha":653,"x_min":56,"x_max":581,"o":"m 206 290 q 221 258 217 271 q 243 226 225 244 q 271 212 250 219 q 324 204 292 204 q 366 213 351 204 q 381 232 381 221 q 352 251 381 236 q 283 288 324 267 q 210 328 249 307 q 140 381 171 350 q 88 452 108 411 q 67 550 67 493 q 111 688 67 629 q 229 772 156 747 l 229 872 q 256 939 229 914 q 324 964 282 964 q 392 943 364 964 q 421 878 421 922 q 421 847 421 860 q 420 824 421 835 q 419 800 419 813 q 418 771 418 788 q 527 688 490 743 q 564 585 564 633 q 544 497 564 531 q 471 463 524 463 q 403 481 419 463 q 389 539 386 500 q 378 587 392 575 q 328 599 364 599 q 281 584 300 599 q 261 546 261 569 q 272 521 261 533 q 300 497 282 508 q 342 474 318 486 q 393 451 367 463 q 460 419 426 436 q 520 378 493 403 q 564 322 547 354 q 581 240 581 289 q 532 109 581 161 q 411 35 483 57 q 414 8 413 22 q 417 -24 415 -6 q 392 -102 419 -72 q 315 -132 364 -132 q 241 -103 267 -132 q 215 -26 215 -74 q 216 7 215 -10 q 218 40 217 24 q 101 124 147 68 q 56 258 56 179 q 143 336 56 336 q 182 322 164 336 q 206 290 200 308 m 404 731 q 399 720 400 726 q 403 707 397 714 q 419 683 410 696 q 439 658 428 669 q 450 642 446 651 q 458 626 454 633 q 468 613 463 618 q 485 610 474 608 q 500 633 500 613 q 485 681 500 654 q 441 726 465 713 q 404 731 417 740 m 486 576 q 503 550 486 554 q 520 556 511 547 q 528 575 529 564 q 511 597 528 594 q 486 576 486 607 z "},"":{"ha":722,"x_min":14,"x_max":675,"o":"m 406 -51 q 289 -27 339 -51 q 203 38 239 -3 q 144 131 167 78 q 110 242 122 183 l 90 242 q 60 242 74 242 q 38 246 47 242 q 24 260 29 250 q 19 292 19 271 q 33 349 19 335 q 79 363 47 363 l 96 363 q 94 375 94 369 q 94 388 94 381 l 85 388 q 32 406 50 388 q 14 467 14 424 q 22 499 14 488 q 41 517 29 511 q 68 523 53 522 q 100 524 83 524 l 108 524 q 141 637 119 581 q 198 738 163 693 q 283 812 233 783 q 399 840 332 840 q 569 803 507 840 q 656 664 632 765 q 669 602 664 626 q 674 563 674 578 q 639 485 674 507 q 551 464 604 464 q 503 479 518 464 q 479 529 488 494 q 474 563 475 547 q 467 590 472 578 q 451 608 463 601 q 415 614 439 614 q 365 588 383 614 q 336 526 346 563 l 340 526 l 385 526 q 438 519 417 526 q 458 474 458 511 q 444 405 458 422 q 399 388 431 388 l 321 388 l 321 364 l 353 365 l 400 365 q 445 351 432 365 q 458 300 458 336 q 444 258 458 275 q 399 242 431 242 l 336 242 q 364 193 346 213 q 414 174 382 174 q 463 183 449 174 q 484 207 478 193 q 492 238 490 221 q 502 269 494 256 q 528 293 510 283 q 586 303 547 303 q 658 274 642 303 q 675 194 675 244 q 655 88 675 133 q 599 10 635 42 q 515 -36 564 -21 q 406 -51 465 -51 m 504 769 q 496 758 499 767 q 497 742 493 750 q 513 713 504 729 q 532 682 521 697 q 542 661 539 672 q 548 641 544 650 q 558 626 551 632 q 576 619 564 619 q 598 644 593 621 q 589 700 603 668 q 546 759 572 739 q 504 769 519 779 m 574 581 q 576 560 572 569 q 588 547 581 550 q 609 550 599 542 q 621 572 619 558 q 606 601 624 594 q 574 581 578 615 m 400 506 q 389 497 392 506 q 392 484 389 493 q 396 471 394 475 q 402 447 400 460 q 418 435 404 435 q 429 442 425 435 q 433 457 433 450 q 426 488 435 472 q 400 506 418 504 m 414 346 q 406 340 406 346 q 407 331 404 338 q 411 322 410 325 q 415 307 414 315 q 425 299 417 299 q 432 303 431 299 q 435 314 433 308 q 431 334 436 324 q 414 346 425 344 z "},"%":{"ha":1290,"x_min":65,"x_max":1249,"o":"m 307 343 q 202 363 247 343 q 126 419 157 383 q 81 503 96 454 q 65 608 65 551 q 128 805 65 729 q 318 881 190 881 q 503 810 442 881 q 564 621 564 739 q 547 510 564 561 q 498 422 531 460 q 417 364 465 385 q 307 343 369 343 m 547 68 q 524 34 538 54 q 494 -4 511 14 q 459 -35 478 -22 q 421 -49 440 -49 q 347 -19 374 -49 q 319 53 319 11 q 339 110 319 71 q 385 191 358 149 q 436 272 411 233 q 472 326 461 310 q 606 541 543 432 q 733 758 668 650 q 758 797 744 778 q 787 832 771 817 q 823 857 803 847 q 868 867 843 867 q 935 839 907 867 q 964 772 964 811 q 957 738 964 757 q 943 704 950 718 q 749 383 847 542 q 547 68 650 225 m 907 801 q 894 801 901 804 q 883 790 886 797 q 872 763 878 779 q 863 732 867 747 q 853 713 860 722 q 842 697 847 704 q 836 681 838 689 q 842 665 835 674 q 857 658 847 658 q 906 700 883 658 q 923 766 924 735 q 907 801 922 797 m 251 604 q 253 572 251 590 q 263 536 256 553 q 281 508 269 519 q 313 497 293 497 q 345 509 332 497 q 367 538 358 521 q 378 576 375 556 q 382 611 382 596 q 379 645 382 626 q 369 681 376 664 q 349 708 361 697 q 318 719 338 719 q 284 708 297 719 q 264 678 271 696 q 254 640 257 660 q 251 604 251 619 m 814 644 q 799 615 794 632 q 812 601 801 604 q 833 604 822 597 q 847 632 850 617 q 829 650 843 650 q 814 644 821 650 m 988 -43 q 807 30 868 -43 q 746 219 746 103 q 762 333 746 281 q 810 423 778 385 q 890 483 842 461 q 1004 504 939 504 q 1114 483 1068 504 q 1190 426 1160 463 q 1234 338 1219 389 q 1249 229 1249 288 q 1181 30 1249 103 q 988 -43 1114 -43 m 1064 451 q 1067 429 1056 440 q 1086 413 1075 422 q 1108 394 1097 403 q 1122 381 1117 389 q 1133 366 1128 372 q 1144 357 1138 360 q 1158 358 1150 354 q 1167 383 1169 364 q 1144 424 1164 403 q 1112 449 1129 440 q 1081 458 1094 458 q 1064 451 1068 458 m 929 228 q 931 192 929 211 q 940 158 933 174 q 960 133 947 143 q 994 122 974 122 q 1032 133 1018 122 q 1054 159 1046 143 q 1065 194 1063 175 q 1068 232 1068 214 q 1066 268 1068 249 q 1056 304 1064 288 q 1036 333 1049 321 q 1003 344 1024 344 q 966 333 981 344 q 943 305 951 322 q 932 267 935 288 q 929 228 929 246 z "},"&":{"ha":796,"x_min":36,"x_max":761,"o":"m 736 143 q 754 117 747 135 q 761 88 761 99 q 753 44 761 67 q 733 3 746 22 q 699 -27 719 -15 q 653 -39 679 -39 q 624 -28 643 -39 q 583 -3 604 -18 q 545 27 563 13 q 521 50 528 42 q 426 -8 478 14 q 318 -31 375 -31 q 217 -12 267 -31 q 126 38 167 6 q 61 117 86 71 q 36 217 36 163 q 66 333 36 286 q 149 421 96 381 q 108 515 121 465 q 96 618 96 565 q 117 724 96 679 q 174 799 138 769 q 262 844 211 829 q 374 860 313 860 q 472 848 426 860 q 551 813 517 836 q 604 751 585 789 q 624 661 624 714 q 615 626 624 642 q 591 599 606 610 q 558 581 576 588 q 522 575 540 575 q 467 588 483 575 q 441 618 451 601 q 418 648 431 635 q 374 661 406 661 q 347 655 360 661 q 326 638 335 649 q 314 611 318 626 q 313 579 310 596 q 372 459 324 524 q 482 342 421 394 q 484 403 483 375 q 492 453 485 432 q 516 485 499 474 q 569 497 533 497 q 631 482 604 497 q 658 426 658 467 q 653 324 658 378 q 633 222 647 271 l 736 143 m 461 800 q 453 787 456 794 q 458 772 451 779 q 483 753 469 761 q 511 729 497 746 q 524 708 519 719 q 532 686 528 696 q 542 672 536 676 q 561 669 549 667 q 575 681 569 672 q 582 701 581 689 q 580 728 583 714 q 565 757 576 743 q 522 794 546 782 q 481 807 499 807 q 461 800 468 807 m 242 221 q 249 198 242 208 q 269 180 257 188 q 297 168 282 172 q 326 164 313 164 q 363 176 350 164 q 313 224 336 199 q 265 275 289 249 q 249 247 256 263 q 242 221 242 232 m 692 131 q 687 126 689 129 q 686 118 685 122 q 690 106 689 110 q 696 93 692 101 q 703 69 703 82 q 717 56 704 56 q 734 66 728 56 q 735 96 740 76 q 715 126 728 117 q 692 131 703 135 z "},"(":{"ha":515,"x_min":81,"x_max":497,"o":"m 81 401 q 123 656 81 535 q 261 861 165 778 q 336 915 304 897 q 413 933 368 933 q 476 899 454 933 q 497 821 497 865 q 488 783 497 800 q 461 751 478 767 q 423 721 444 736 q 378 688 401 706 q 335 633 353 668 q 306 558 318 599 q 289 475 294 517 q 283 400 283 433 q 324 211 283 294 q 467 57 364 128 q 485 27 482 47 q 488 -8 488 7 q 482 -44 488 -25 q 466 -81 476 -64 q 440 -108 456 -97 q 406 -119 425 -119 q 369 -110 393 -119 q 319 -85 346 -100 q 265 -49 292 -69 q 218 -8 238 -29 q 117 159 154 60 q 81 401 81 258 m 408 903 q 391 891 394 900 q 394 874 388 882 q 412 846 403 863 q 424 821 421 829 q 432 813 425 814 q 444 813 439 811 q 451 860 464 818 q 447 871 450 863 q 438 887 443 879 q 424 900 432 894 q 408 903 417 906 z "},")":{"ha":494,"x_min":57,"x_max":474,"o":"m 474 401 q 437 159 474 258 q 335 -8 400 60 q 288 -49 315 -29 q 234 -85 261 -69 q 184 -110 207 -100 q 149 -119 161 -119 q 114 -108 129 -119 q 88 -81 99 -97 q 72 -44 78 -64 q 67 -8 67 -25 q 69 27 67 7 q 88 57 72 47 q 231 211 190 128 q 271 400 271 294 q 265 475 271 433 q 248 558 260 517 q 219 633 236 599 q 176 688 201 668 q 133 721 154 706 q 94 751 111 736 q 67 783 78 767 q 57 821 57 800 q 83 894 57 865 q 150 924 110 924 q 190 921 172 924 q 222 910 207 918 q 254 891 238 903 q 292 861 271 879 q 431 656 389 778 q 474 401 474 535 m 153 881 q 147 866 149 874 q 153 851 146 858 q 180 833 164 842 q 211 808 196 824 q 244 773 229 790 q 282 764 258 756 q 292 794 299 771 q 261 842 286 817 q 215 876 239 865 q 172 888 190 888 q 153 881 158 888 m 290 726 q 300 708 293 715 q 315 699 307 700 q 334 708 326 696 q 339 733 342 719 q 329 749 336 743 q 315 756 322 754 q 294 750 301 758 q 290 726 288 742 z "},"{":{"ha":400,"x_min":15,"x_max":374,"o":"m 92 706 q 97 775 92 746 q 116 828 103 804 q 153 874 129 851 q 214 921 176 896 q 253 942 233 936 q 292 949 274 949 q 353 915 332 949 q 374 833 374 881 q 358 784 374 799 q 325 761 343 769 q 292 746 307 753 q 276 719 276 739 q 288 638 276 683 q 300 542 300 593 q 283 463 300 500 q 235 396 265 425 q 283 337 263 368 q 304 265 304 306 q 298 219 304 242 q 285 175 292 196 q 272 136 278 154 q 265 103 265 118 q 276 83 265 93 q 299 65 286 72 q 324 51 311 57 q 340 44 336 46 q 356 22 353 40 q 360 -8 360 3 q 355 -42 360 -24 q 340 -76 350 -60 q 317 -103 331 -92 q 285 -114 303 -114 q 202 -103 240 -114 q 135 -69 164 -92 q 91 -10 107 -46 q 75 74 75 25 q 80 124 75 99 q 91 173 85 149 q 102 221 97 197 q 107 267 107 244 q 92 297 107 288 q 61 318 78 307 q 30 347 44 329 q 15 403 15 365 q 30 453 15 438 q 61 479 44 469 q 92 501 78 489 q 107 539 107 513 q 99 622 107 581 q 92 706 92 664 m 293 919 q 276 908 281 917 q 279 890 272 900 q 297 863 288 879 q 308 838 306 847 q 317 829 311 831 q 329 831 324 828 q 342 844 340 833 q 336 876 343 854 q 333 888 336 879 q 324 903 329 896 q 310 917 318 911 q 293 919 303 922 z "},"}":{"ha":408,"x_min":35,"x_max":393,"o":"m 317 706 q 309 622 317 664 q 301 539 301 581 q 316 501 301 513 q 347 479 331 489 q 378 453 364 469 q 393 403 393 438 q 378 347 393 365 q 347 318 364 329 q 316 297 331 307 q 301 267 301 288 q 306 221 301 244 q 317 173 311 197 q 328 124 324 149 q 333 74 333 99 q 317 -10 333 25 q 273 -69 301 -46 q 206 -103 244 -92 q 124 -114 168 -114 q 92 -103 106 -114 q 68 -76 78 -92 q 53 -42 58 -60 q 49 -8 49 -24 q 52 22 49 3 q 68 44 56 40 q 85 51 72 46 q 110 65 97 57 q 133 83 122 72 q 143 103 143 93 q 137 136 143 118 q 124 175 131 154 q 110 219 117 196 q 104 265 104 242 q 125 337 104 306 q 174 396 146 368 q 126 463 143 425 q 108 542 108 500 q 120 638 108 593 q 132 719 132 683 q 117 746 132 739 q 83 761 101 753 q 50 784 65 769 q 35 833 35 799 q 56 915 35 881 q 117 949 76 949 q 163 944 135 949 q 211 924 192 939 q 260 880 240 901 q 293 833 281 858 q 311 776 306 807 q 317 706 317 746 m 129 914 q 124 903 125 910 q 129 890 122 896 q 152 873 139 881 q 179 853 165 865 q 193 836 186 844 q 207 822 200 828 q 222 813 214 815 q 240 814 231 810 q 250 839 256 819 q 222 882 244 858 q 183 911 203 901 q 147 921 163 921 q 129 914 133 921 m 240 772 q 248 756 242 763 q 261 747 254 749 q 278 756 272 746 q 282 778 285 767 q 274 791 281 786 q 261 797 268 796 q 244 792 250 799 q 240 772 238 785 z "},"|":{"ha":415,"x_min":121,"x_max":325,"o":"m 121 -37 q 124 47 121 4 q 131 132 128 90 q 133 302 136 214 q 129 474 129 390 l 129 574 l 131 772 l 131 872 q 158 939 131 914 q 225 964 185 964 q 294 943 265 964 q 322 878 322 922 q 316 541 322 711 q 310 204 310 371 q 314 85 310 143 q 322 -35 318 26 q 297 -113 325 -83 q 221 -143 269 -143 q 147 -115 172 -143 q 121 -37 121 -86 m 264 903 q 244 890 250 901 q 237 865 239 879 q 235 835 235 850 q 235 813 235 821 q 234 791 235 806 q 235 761 233 776 q 243 735 238 746 q 258 722 249 724 q 276 728 269 722 q 287 744 283 735 q 292 765 290 754 q 293 783 293 775 q 294 823 294 801 q 290 862 293 844 q 280 891 286 879 q 264 903 274 903 m 268 697 q 245 687 254 699 q 235 663 236 675 q 253 640 235 642 q 275 648 265 639 q 285 671 285 657 q 282 687 286 678 q 268 697 278 696 z "},"[":{"ha":474,"x_min":85,"x_max":453,"o":"m 358 -115 q 315 -114 336 -115 q 271 -112 293 -112 q 188 -115 224 -112 q 130 -112 153 -118 q 96 -82 107 -106 q 85 -4 85 -58 q 90 394 85 196 q 96 793 96 593 q 97 845 96 821 q 107 888 99 869 q 133 916 115 906 q 185 926 151 926 l 372 926 q 434 895 415 926 q 453 826 453 864 q 449 794 453 811 q 438 763 446 778 q 417 740 429 749 q 386 731 404 731 q 333 733 360 731 q 279 736 306 735 q 274 517 278 635 q 271 278 271 400 q 272 175 271 226 q 276 72 274 124 q 283 83 278 79 q 296 86 289 86 l 375 86 q 413 76 399 86 q 433 49 426 65 q 442 12 440 32 q 444 -26 444 -8 q 426 -95 444 -75 q 358 -115 407 -115 m 360 899 q 344 886 347 894 q 347 868 340 878 q 364 841 356 857 q 375 815 372 825 q 384 808 378 810 q 396 808 390 807 q 408 822 407 811 q 404 856 410 832 q 399 866 403 858 q 390 882 396 874 q 377 896 385 890 q 360 899 369 901 z "},"]":{"ha":458,"x_min":42,"x_max":410,"o":"m 410 15 q 410 -20 410 1 q 406 -62 410 -42 q 391 -98 401 -83 q 360 -112 381 -112 q 253 -112 307 -112 q 146 -115 199 -112 q 73 -99 96 -118 q 50 -26 50 -79 q 52 12 50 -8 q 62 49 54 32 q 83 76 69 65 q 121 86 97 86 l 199 86 q 211 85 207 86 q 219 82 215 85 q 224 180 222 135 q 225 278 225 225 q 222 507 225 393 q 215 736 219 621 q 162 733 188 735 q 108 731 136 731 q 78 740 90 731 q 57 763 65 749 q 45 794 49 778 q 42 826 42 811 q 61 895 42 864 q 124 926 81 926 l 310 926 q 363 916 344 926 q 389 888 381 906 q 398 845 397 869 q 399 793 399 821 q 404 404 399 597 q 410 15 410 211 m 338 888 q 319 877 325 888 q 313 853 314 867 q 311 826 311 840 q 311 804 311 813 q 310 783 311 797 q 312 756 310 769 q 319 731 314 742 q 333 719 324 719 q 350 725 344 719 q 359 740 356 731 q 364 759 363 749 q 365 776 365 769 q 366 813 367 793 q 362 850 365 833 q 353 877 358 867 q 338 888 347 888 m 342 696 q 320 686 329 697 q 311 664 311 675 q 328 643 308 646 q 348 650 339 642 q 357 672 357 658 q 354 688 358 679 q 342 696 350 696 z "},"\\":{"ha":578,"x_min":63,"x_max":535,"o":"m 64 796 q 75 831 65 815 q 99 859 85 847 q 129 877 113 871 q 161 883 146 883 q 218 864 192 883 q 269 788 244 844 q 326 647 296 728 q 384 485 356 567 q 437 331 413 404 q 478 211 461 257 q 499 143 489 178 q 518 77 510 108 q 531 21 526 46 q 533 -17 535 -4 q 519 -47 532 -32 q 487 -73 506 -61 q 447 -91 468 -85 q 408 -96 425 -97 q 367 -78 385 -94 q 335 -37 349 -61 q 313 13 322 -14 q 296 61 303 39 q 249 203 275 124 q 196 363 224 283 q 166 453 182 407 q 135 542 150 499 q 106 624 119 585 q 83 693 93 663 q 66 760 69 738 q 64 796 63 782 m 479 76 q 459 72 465 79 q 456 54 453 65 q 466 18 458 40 q 471 -14 474 -4 q 476 -24 469 -21 q 488 -29 482 -28 q 504 -22 499 -31 q 513 11 510 -12 q 511 24 513 14 q 506 46 510 35 q 495 66 501 57 q 479 76 489 75 z "},"":{"ha":299,"x_min":31,"x_max":272,"o":"m 228 807 q 260 776 247 796 q 272 726 272 756 q 267 688 272 710 q 248 648 261 667 q 212 616 235 629 q 153 603 189 603 q 63 638 96 603 q 31 728 31 674 q 43 785 31 753 q 77 847 56 818 q 127 895 99 875 q 188 915 156 915 q 226 894 215 915 q 236 850 236 872 q 228 807 236 822 m 193 896 q 183 890 183 896 q 185 872 182 886 q 189 854 189 857 q 192 836 192 846 q 203 825 192 826 q 213 829 210 824 q 218 840 217 835 q 214 873 219 853 q 193 896 208 893 z "},"":{"ha":307,"x_min":31,"x_max":272,"o":"m 75 711 q 43 742 56 722 q 31 792 31 763 q 36 830 31 808 q 55 870 42 851 q 92 902 68 889 q 150 915 115 915 q 240 880 207 915 q 272 790 272 844 q 260 733 272 765 q 226 672 247 700 q 176 623 204 643 q 115 603 147 603 q 77 624 88 603 q 67 668 67 646 q 75 711 67 697 m 188 881 q 172 868 174 878 q 178 849 171 861 q 190 831 186 836 q 196 816 193 824 q 201 801 199 808 q 210 790 204 794 q 225 788 215 786 q 239 800 236 789 q 242 821 242 811 q 225 863 239 843 q 188 881 211 882 m 225 774 q 213 765 218 772 q 208 750 207 757 q 214 733 210 743 q 226 724 218 722 q 246 747 246 724 q 240 766 244 758 q 225 774 236 774 z "},"":{"ha":553,"x_min":31,"x_max":528,"o":"m 228 807 q 260 776 247 796 q 272 726 272 756 q 267 688 272 710 q 248 648 261 667 q 212 616 235 629 q 153 603 189 603 q 63 638 96 603 q 31 728 31 674 q 43 785 31 753 q 77 847 56 818 q 127 895 99 875 q 188 915 156 915 q 226 894 215 915 q 236 850 236 872 q 228 807 236 822 m 483 807 q 528 726 528 782 q 523 688 528 710 q 504 648 518 667 q 467 616 490 629 q 408 603 444 603 q 319 638 351 603 q 286 728 286 674 q 299 785 286 753 q 333 847 311 818 q 383 895 354 875 q 443 915 411 915 q 481 894 471 915 q 492 850 492 872 q 483 807 492 822 m 447 896 q 436 890 439 896 q 438 872 435 886 q 443 854 442 857 q 446 836 446 846 q 457 825 446 826 q 467 829 464 824 q 471 840 471 835 q 467 873 474 853 q 447 896 461 893 z "},"":{"ha":546,"x_min":31,"x_max":525,"o":"m 75 711 q 43 742 56 722 q 31 792 31 763 q 36 830 31 808 q 55 870 42 851 q 92 902 68 889 q 150 915 115 915 q 240 880 207 915 q 272 790 272 844 q 260 733 272 765 q 226 672 247 700 q 176 623 204 643 q 115 603 147 603 q 77 624 88 603 q 67 668 67 646 q 75 711 67 697 m 329 711 q 296 742 308 722 q 283 792 283 763 q 289 830 283 808 q 308 870 294 851 q 344 902 321 889 q 403 915 368 915 q 492 880 460 915 q 525 790 525 844 q 513 733 525 765 q 478 672 500 700 q 428 623 457 643 q 368 603 400 603 q 330 624 340 603 q 319 668 319 646 q 329 711 319 694 m 422 881 q 407 868 408 878 q 414 849 406 861 q 425 831 422 836 q 437 801 432 817 q 460 788 442 786 q 474 800 471 789 q 476 821 478 811 q 460 863 475 843 q 422 881 446 882 m 460 774 q 447 765 453 772 q 443 750 442 757 q 449 733 444 743 q 461 724 453 722 q 481 747 481 724 q 475 766 479 758 q 460 774 471 774 z "},"":{"ha":353,"x_min":31,"x_max":272,"o":"m 72 19 q 31 113 31 49 q 40 160 31 138 q 65 199 49 182 q 103 226 82 215 q 150 236 125 236 q 239 200 206 236 q 272 110 272 164 q 258 51 272 83 q 222 -10 244 18 q 172 -57 200 -37 q 115 -76 144 -76 q 77 -56 88 -76 q 67 -11 67 -35 q 72 19 67 7 m 168 211 q 157 197 157 208 q 166 183 157 192 q 179 169 175 174 q 194 147 188 160 q 217 138 201 133 q 227 151 226 142 q 225 169 228 161 q 204 202 219 188 q 168 211 189 217 m 218 126 q 210 116 213 124 q 210 103 207 108 q 217 88 213 96 q 229 83 222 81 q 242 108 246 88 q 233 123 239 117 q 218 126 228 129 z "},"":{"ha":553,"x_min":31,"x_max":526,"o":"m 325 24 q 285 117 285 57 q 292 156 285 135 q 313 197 299 178 q 351 228 328 215 q 404 242 374 242 q 494 206 461 242 q 526 115 526 171 q 513 58 526 90 q 478 -3 500 25 q 428 -52 457 -32 q 369 -72 400 -72 q 331 -51 342 -72 q 321 -7 321 -29 q 325 24 321 11 m 71 24 q 31 117 31 57 q 38 156 31 135 q 59 197 44 178 q 97 228 74 215 q 150 242 119 242 q 239 206 206 242 q 272 115 272 171 q 259 58 272 90 q 224 -3 246 25 q 174 -52 203 -32 q 115 -72 146 -72 q 77 -51 88 -72 q 67 -7 67 -29 q 71 24 67 11 m 428 211 q 417 197 417 208 q 426 183 417 192 q 439 169 435 174 q 454 147 447 160 q 476 138 461 133 q 487 151 486 142 q 485 169 488 161 q 464 202 479 188 q 428 211 449 217 m 478 126 q 469 116 472 124 q 469 103 467 108 q 477 88 472 96 q 489 83 482 81 q 501 108 506 88 q 493 123 499 117 q 478 126 488 129 z "},"":{"ha":515,"x_min":89,"x_max":438,"o":"m 438 432 q 427 368 438 401 q 396 308 417 335 q 342 263 375 281 q 264 244 310 244 q 198 257 229 244 q 142 292 167 269 q 103 349 118 315 q 89 426 89 383 q 128 558 89 510 q 263 606 167 606 q 388 560 339 606 q 438 432 438 515 m 306 564 q 296 558 300 563 q 293 547 292 554 q 303 529 294 540 q 317 513 313 518 q 326 499 322 507 q 335 483 331 490 q 347 473 340 476 q 363 472 353 469 q 376 488 374 475 q 375 510 378 500 q 350 551 368 532 q 306 564 332 571 m 365 457 q 354 444 358 454 q 353 428 350 435 q 361 410 356 421 q 375 403 367 400 q 390 415 386 406 q 392 433 394 424 q 383 452 390 444 q 365 457 376 460 z "},"_":{"ha":532,"x_min":-10,"x_max":540,"o":"m 486 15 q 517 7 506 15 q 533 -14 528 -1 q 539 -42 538 -26 q 540 -75 540 -58 q 539 -109 540 -90 q 531 -144 538 -128 q 514 -172 525 -161 q 483 -183 503 -183 l 74 -183 q 6 -162 21 -183 q -10 -93 -10 -142 q -8 -53 -10 -72 q -1 -20 -7 -35 q 20 3 6 -6 q 60 11 35 11 l 311 11 q 399 13 351 11 q 486 15 446 15 m 475 -14 q 465 -16 469 -12 q 460 -25 460 -19 q 463 -42 458 -31 q 469 -60 467 -54 q 473 -76 472 -67 q 476 -96 474 -86 q 482 -112 478 -106 q 494 -118 486 -118 q 510 -108 506 -118 q 514 -89 514 -99 q 513 -67 515 -79 q 506 -42 511 -54 q 494 -22 501 -31 q 475 -14 486 -14 z "},"":{"ha":785,"x_min":100,"x_max":689,"o":"m 624 486 q 656 478 643 486 q 676 456 669 469 q 686 427 683 443 q 689 394 689 411 q 685 362 689 381 q 674 326 682 343 q 652 299 665 310 q 621 288 639 288 l 183 288 q 115 308 131 288 q 100 378 100 329 q 101 417 100 399 q 110 451 103 436 q 131 474 117 465 q 169 482 144 482 l 460 482 q 542 484 500 482 q 624 486 583 486 m 608 460 q 598 457 603 460 q 593 449 593 454 q 596 431 592 443 q 603 414 600 419 q 610 383 608 400 q 631 367 613 367 q 645 376 642 367 q 650 396 649 386 q 641 436 651 415 q 608 460 631 457 m 631 354 q 619 350 624 356 q 614 338 614 344 q 615 323 613 331 q 625 315 618 315 q 643 333 640 314 q 641 347 643 340 q 631 354 639 353 z "},"":{"ha":882,"x_min":86,"x_max":793,"o":"m 726 486 q 780 457 767 486 q 793 394 793 428 q 789 362 793 381 q 776 326 785 343 q 756 299 768 310 q 725 288 743 288 l 169 288 q 101 308 117 288 q 86 378 86 329 q 88 417 86 399 q 96 451 89 436 q 117 474 103 465 q 156 482 131 482 q 441 484 292 482 q 726 486 590 486 m 707 460 q 697 457 701 460 q 692 449 692 454 q 694 431 690 443 q 701 414 699 419 q 709 383 707 400 q 729 367 711 367 q 744 376 740 367 q 749 396 747 386 q 740 436 750 415 q 707 460 729 457 m 729 354 q 717 350 722 356 q 713 338 713 344 q 714 323 711 331 q 724 315 717 315 q 742 333 739 314 q 740 347 742 340 q 729 354 738 353 z "},"":{"ha":538,"x_min":47,"x_max":483,"o":"m 386 1065 q 462 1040 440 1065 q 483 965 483 1015 q 465 883 483 908 q 386 857 447 857 q 332 859 358 857 q 278 861 306 861 q 209 858 243 861 q 140 856 175 856 q 69 879 90 856 q 47 951 47 903 q 68 1030 47 999 q 142 1061 89 1061 q 156 1061 149 1061 q 171 1060 164 1061 l 229 1057 l 258 1057 q 322 1061 290 1057 q 386 1065 354 1065 m 422 1035 q 411 1025 411 1035 q 414 1010 411 1021 q 418 996 417 1000 q 422 982 421 990 q 426 967 424 974 q 432 954 428 960 q 443 949 436 949 q 456 961 453 949 q 458 981 458 974 q 451 1015 461 997 q 422 1035 442 1033 z "},"":{"ha":750,"x_min":63,"x_max":675,"o":"m 63 526 q 80 592 63 563 q 139 624 97 622 q 246 626 196 626 q 344 626 296 626 q 443 626 393 626 q 550 625 493 625 q 596 617 574 625 q 635 592 618 608 q 662 555 651 576 q 672 507 672 533 q 671 465 672 486 q 669 424 669 444 q 672 383 669 404 q 675 343 675 363 q 653 272 675 303 q 586 242 631 242 q 521 267 551 242 q 490 328 490 292 q 490 353 490 339 q 491 382 490 367 q 493 412 492 397 q 497 436 494 426 q 428 427 471 431 q 337 423 386 424 q 237 423 288 422 q 143 425 186 424 q 106 435 121 426 q 81 458 90 444 q 67 490 71 472 q 63 526 63 508 m 568 596 q 557 579 554 593 q 566 563 558 574 q 576 547 574 553 q 585 533 582 542 q 593 518 589 525 q 603 508 597 511 q 617 507 608 504 q 631 522 628 510 q 631 542 633 533 q 609 581 626 563 q 568 596 592 600 m 621 494 q 610 487 614 493 q 610 474 607 481 q 615 460 611 467 q 626 454 619 453 q 642 478 644 460 q 635 491 639 485 q 621 494 631 497 z "},"":{"ha":897,"x_min":17,"x_max":857,"o":"m 400 960 q 426 960 411 960 q 455 958 440 960 q 483 951 469 956 q 504 940 496 947 q 529 906 515 931 q 556 855 543 882 q 581 801 569 828 q 599 760 593 775 q 618 799 604 771 q 648 856 632 826 q 678 911 664 886 q 699 940 693 936 q 724 956 710 950 q 754 963 739 963 q 824 947 794 963 q 854 894 854 932 q 852 784 854 839 q 850 672 850 729 q 853 619 850 644 q 857 565 857 593 q 826 508 857 526 q 760 489 794 489 q 719 501 733 489 q 699 532 706 514 q 692 572 693 550 q 692 613 692 594 q 678 583 688 604 q 658 541 669 563 q 633 503 646 519 q 608 486 619 486 q 581 503 596 486 q 552 542 565 519 q 528 585 539 564 q 513 617 517 607 q 511 572 513 594 q 501 530 510 549 q 476 499 493 511 q 431 488 460 488 q 369 510 390 488 q 347 574 347 533 q 349 681 347 628 q 354 789 351 735 l 297 790 q 295 744 296 767 q 294 697 294 721 q 296 633 294 671 q 292 562 297 596 q 268 504 286 528 q 213 481 250 481 q 151 503 175 481 q 128 564 128 526 q 131 611 128 588 q 133 658 133 635 l 133 789 q 85 790 107 788 q 48 800 63 792 q 25 827 33 808 q 17 878 17 846 q 19 903 17 889 q 28 929 22 917 q 43 951 33 942 q 67 960 53 960 l 400 960 m 464 928 q 454 900 438 919 q 472 870 461 890 q 486 842 482 850 q 494 835 488 836 q 506 838 500 835 q 515 850 515 840 q 508 879 515 860 q 504 891 508 882 q 494 909 500 900 q 480 924 488 918 q 464 928 472 931 m 803 922 q 789 914 793 922 q 783 895 785 906 q 782 874 782 885 q 782 857 782 864 q 782 841 782 851 q 784 820 782 831 q 790 801 786 810 q 801 793 794 793 q 822 810 818 793 q 825 838 825 826 q 824 865 825 850 q 821 893 824 881 q 814 914 818 906 q 803 922 810 922 m 808 775 q 792 768 799 776 q 786 750 786 760 q 799 735 783 735 q 815 740 808 733 q 821 756 821 747 q 819 769 822 763 q 808 775 815 775 z "},"":{"ha":726,"x_min":35,"x_max":674,"o":"m 351 385 q 218 407 276 385 q 119 470 160 429 q 56 568 78 511 q 35 693 35 625 q 59 826 35 767 q 126 926 83 885 q 226 990 168 968 q 351 1013 283 1013 q 478 990 419 1013 q 580 928 536 968 q 649 831 624 888 q 674 706 674 775 q 651 573 674 632 q 588 472 629 514 q 486 408 546 431 q 351 385 426 385 m 519 935 q 514 918 510 928 q 536 900 519 911 q 567 868 553 889 q 580 850 574 858 q 596 843 586 842 q 608 853 607 843 q 600 878 610 863 q 556 924 581 906 q 519 935 532 943 m 122 694 q 183 524 122 588 q 351 460 243 460 q 453 478 408 460 q 529 529 497 496 q 578 608 561 563 q 594 710 594 654 q 574 799 594 758 q 521 868 554 839 q 444 913 488 897 q 354 929 401 929 q 185 865 247 929 q 122 694 122 800 m 451 497 q 413 502 428 497 q 386 517 397 507 q 365 542 375 526 q 343 576 356 557 l 343 561 q 340 524 343 538 q 331 505 336 511 q 317 498 325 499 q 300 497 308 497 q 235 563 235 497 l 235 771 q 215 784 222 776 q 208 815 208 792 q 216 856 208 835 q 247 885 224 878 q 292 892 269 892 q 336 893 314 893 q 388 888 361 893 q 438 869 415 883 q 474 828 460 854 q 488 758 488 801 q 467 690 488 721 q 425 644 446 660 q 444 633 432 635 q 468 632 456 632 q 497 615 490 629 q 503 574 503 601 l 503 571 q 491 523 503 549 q 451 497 479 497 m 342 706 q 365 719 353 706 q 376 756 376 732 q 365 778 376 774 q 342 783 354 783 l 342 706 z "},"":{"ha":1047,"x_min":89,"x_max":993,"o":"m 89 379 q 122 583 89 494 q 215 733 156 672 q 359 824 275 793 q 543 856 443 856 q 726 826 643 856 q 867 741 808 797 q 960 603 926 685 q 993 414 993 521 q 963 220 993 308 q 873 69 932 132 q 728 -30 814 6 q 531 -65 642 -65 q 344 -35 426 -65 q 206 51 263 -6 q 119 191 149 108 q 89 379 89 274 m 767 774 q 761 751 754 764 q 789 724 768 740 q 832 685 810 708 q 853 657 843 674 q 881 643 864 640 q 892 662 896 644 q 875 699 889 679 q 849 733 864 717 q 818 760 833 749 q 789 775 803 771 q 767 774 775 779 m 544 757 q 308 660 393 757 q 222 383 222 563 q 243 248 222 310 q 303 141 264 186 q 401 71 343 96 q 532 46 458 46 q 681 74 618 46 q 783 152 743 103 q 842 269 824 201 q 861 414 861 336 q 840 541 861 479 q 779 651 819 603 q 680 728 739 699 q 544 757 621 757 m 540 76 q 374 159 435 76 q 313 396 313 242 q 374 634 313 551 q 544 717 436 717 q 644 697 607 717 q 701 644 682 678 q 726 565 721 611 q 732 467 732 519 q 709 401 732 418 q 650 383 686 383 q 585 436 597 383 q 574 485 581 460 q 572 497 572 490 q 571 511 572 504 q 564 523 569 518 q 547 528 558 528 q 489 385 489 528 q 503 292 489 319 q 546 265 517 265 q 590 282 586 265 q 616 333 603 319 q 665 347 629 347 q 717 327 701 347 q 733 258 733 307 q 719 186 733 219 q 678 128 704 153 q 617 90 653 104 q 540 76 582 76 m 585 682 q 581 663 575 675 q 604 649 586 654 q 643 624 622 643 q 660 601 653 615 q 679 588 667 586 q 689 605 690 589 q 676 636 688 621 q 636 673 658 660 q 599 686 614 686 q 585 682 592 686 m 882 613 q 893 590 879 596 q 908 594 901 588 q 915 608 915 600 q 913 621 917 615 q 903 629 908 626 q 882 613 885 636 z "},"":{"ha":831,"x_min":67,"x_max":756,"o":"m 126 208 q 87 295 99 249 q 75 389 75 342 q 85 476 75 433 q 115 557 94 518 q 101 578 110 565 q 85 603 92 590 q 72 630 78 617 q 67 653 67 643 q 91 719 67 689 q 153 750 115 750 q 210 731 182 750 q 254 689 238 711 q 331 719 292 707 q 413 732 371 732 q 558 706 486 732 q 605 751 578 729 q 664 774 632 774 q 721 747 694 774 q 747 689 747 721 q 732 638 747 661 q 703 593 717 615 q 744 505 732 553 q 756 408 756 457 q 740 297 756 351 q 689 199 725 243 q 714 108 714 157 q 695 53 714 79 q 644 26 676 26 q 588 47 613 26 q 543 92 563 68 q 475 74 510 81 q 404 68 440 68 q 265 97 332 68 q 224 60 247 76 q 174 44 201 44 q 123 70 140 44 q 106 126 106 96 q 126 208 106 171 m 646 753 q 643 739 638 750 q 654 728 646 735 q 667 719 663 722 q 687 701 678 713 q 707 699 696 690 q 711 711 714 703 q 704 726 708 719 q 678 752 694 742 q 646 753 661 763 m 714 690 q 708 683 710 689 q 710 672 707 678 q 715 661 711 667 q 724 658 719 656 q 732 665 731 660 q 731 678 733 671 q 724 688 728 683 q 714 690 721 693 m 424 538 q 317 499 350 538 q 283 389 283 460 q 318 297 283 331 q 411 263 353 263 q 475 272 450 263 q 515 300 500 282 q 535 346 529 318 q 542 408 542 374 q 513 502 542 467 q 424 538 485 538 m 690 519 q 675 506 678 519 q 683 472 674 494 q 689 419 692 449 q 683 389 688 404 q 689 364 678 374 q 709 368 700 356 q 724 401 718 381 q 726 442 728 421 q 719 479 725 463 q 706 507 714 496 q 690 519 699 518 z "},"":{"ha":569,"x_min":33,"x_max":508,"o":"m 193 42 q 113 86 144 56 q 65 161 82 117 q 40 265 47 206 q 33 394 33 324 q 42 515 33 457 q 69 619 50 572 q 121 699 89 665 q 201 747 153 732 q 198 814 200 776 q 196 872 196 851 q 222 939 196 914 q 290 964 249 964 q 359 943 331 964 q 388 878 388 922 q 386 812 388 846 q 382 746 385 778 q 453 701 426 732 q 492 614 479 671 q 503 543 499 583 q 507 475 507 503 q 478 413 507 431 q 407 394 450 394 q 361 406 379 394 q 336 444 343 417 q 334 481 333 460 q 333 524 335 503 q 323 559 331 544 q 296 574 315 574 q 253 551 268 574 q 230 497 238 528 q 221 433 222 465 q 219 382 219 400 q 221 334 219 363 q 229 278 222 306 q 251 233 236 251 q 294 214 267 214 q 335 222 322 214 q 352 241 347 229 q 358 267 357 253 q 366 292 360 281 q 388 312 372 304 q 435 319 403 319 q 494 296 481 319 q 508 232 508 272 q 472 108 508 156 q 374 43 436 61 q 379 9 376 28 q 383 -24 382 -10 q 358 -102 386 -72 q 282 -132 331 -132 q 208 -103 233 -132 q 182 -26 182 -74 q 186 6 182 -14 q 193 42 190 25 m 368 700 q 362 691 364 697 q 363 678 360 685 q 375 653 368 667 q 392 629 382 640 q 399 612 397 621 q 404 595 401 603 q 413 583 407 588 q 428 578 418 578 q 445 598 442 579 q 438 644 449 617 q 402 692 424 676 q 368 700 381 708 m 425 546 q 427 530 424 538 q 436 519 431 522 q 453 522 444 515 q 464 540 463 529 q 451 564 467 557 q 425 546 429 575 z "},"":{"ha":668,"x_min":51,"x_max":596,"o":"m 51 338 q 58 389 51 369 q 78 419 65 408 q 113 434 92 431 q 164 438 135 438 q 158 465 161 451 q 151 492 154 478 l 151 490 q 138 549 144 519 q 131 608 131 578 q 147 708 131 663 q 193 786 163 753 q 267 838 224 819 q 367 856 311 856 q 482 826 438 856 q 558 756 526 797 q 589 691 582 725 q 596 625 596 657 q 567 552 596 582 q 494 522 538 522 q 452 538 465 522 q 432 581 439 554 q 427 603 429 590 q 423 627 425 615 q 419 649 421 639 q 413 661 417 658 q 376 678 394 678 q 339 656 354 678 q 324 601 324 635 q 335 521 324 561 q 354 440 347 481 l 386 440 q 469 420 438 440 q 500 343 500 400 q 471 268 500 288 q 392 249 442 249 q 367 249 379 249 q 343 250 356 249 q 321 167 335 207 l 381 167 q 451 175 421 167 q 521 186 481 183 q 556 176 542 188 q 579 147 571 164 q 591 108 588 129 q 594 69 594 86 q 588 22 594 39 q 569 -4 582 4 q 536 -14 556 -12 q 490 -15 517 -15 l 426 -17 l 389 -17 l 349 -17 l 267 -18 l 226 -18 q 176 -15 200 -18 q 133 -4 151 -12 q 105 21 115 4 q 94 64 94 38 q 99 104 94 82 q 111 151 104 126 q 126 200 118 175 q 143 247 135 225 q 106 252 122 249 q 77 265 89 256 q 58 292 65 275 q 51 338 51 310 m 432 799 q 427 789 428 796 q 432 776 426 782 q 449 756 439 767 q 472 733 460 744 q 485 718 481 726 q 494 702 489 710 q 505 691 499 694 q 521 690 511 688 q 537 713 536 693 q 518 758 538 733 q 482 792 503 781 q 446 803 461 803 q 432 799 439 803 m 526 657 q 533 642 528 649 q 544 633 538 635 q 563 640 556 631 q 568 660 569 649 q 550 681 565 678 q 526 657 524 688 m 510 160 q 504 147 501 157 q 508 135 507 139 q 514 122 510 131 q 517 106 517 117 q 519 85 518 96 q 524 68 521 75 q 533 61 528 61 q 553 83 549 61 q 553 125 558 106 q 533 155 546 146 q 510 160 521 164 z "},"":{"ha":781,"x_min":57,"x_max":714,"o":"m 274 303 q 234 300 254 301 q 194 299 214 299 q 128 316 151 299 q 106 379 106 333 q 124 439 106 421 q 183 457 142 457 l 219 457 q 172 526 200 486 q 119 608 144 567 q 75 686 93 650 q 57 742 57 722 q 70 786 57 767 q 103 819 83 806 q 147 840 124 833 q 193 847 171 847 q 228 836 213 847 q 254 808 244 825 q 322 686 290 749 q 386 561 354 624 q 450 683 414 619 q 526 806 486 747 q 552 832 538 821 q 586 843 567 843 q 629 835 607 843 q 670 814 651 828 q 701 781 689 800 q 714 739 714 761 q 713 717 714 728 q 704 697 711 707 q 627 579 665 638 q 553 460 589 521 q 597 458 578 460 q 628 450 615 457 q 647 427 640 443 q 653 382 653 411 q 635 323 653 340 q 576 306 618 306 q 530 306 553 306 q 483 307 507 306 l 483 275 l 568 275 q 633 260 610 275 q 656 201 656 246 q 626 128 656 143 q 543 114 596 114 l 485 114 q 485 48 485 78 q 477 -3 486 18 q 445 -35 468 -24 q 375 -47 422 -47 q 296 -17 317 -47 q 275 68 275 14 q 276 91 275 79 q 278 114 276 103 q 242 113 260 113 q 206 113 224 113 q 133 134 160 113 q 106 204 106 156 q 113 243 106 229 q 134 265 121 257 q 165 274 147 272 q 203 276 182 276 q 238 276 221 276 q 274 275 256 275 l 274 303 m 675 763 q 664 763 671 765 q 654 754 657 761 q 644 732 646 739 q 636 715 642 725 q 614 685 625 699 q 614 656 603 672 q 625 650 618 650 q 667 686 646 650 q 675 763 703 749 m 588 638 q 572 613 572 628 q 583 599 574 603 q 603 601 593 596 q 615 626 618 611 q 588 638 611 650 m 614 438 q 604 424 600 435 q 612 405 608 417 q 615 388 615 393 q 626 382 617 382 q 633 406 635 382 q 632 413 633 407 q 628 424 631 418 q 623 433 626 429 q 614 438 619 438 m 614 258 q 607 247 599 256 q 614 233 610 242 q 619 221 618 225 q 623 218 619 218 q 629 218 626 218 q 635 236 639 219 q 629 249 635 239 q 614 258 624 260 z "},"":{"ha":460,"x_min":-139,"x_max":494,"o":"m 0 -243 q -69 -240 -42 -243 q -111 -226 -96 -236 q -133 -199 -126 -217 q -139 -154 -139 -182 q -128 -112 -139 -128 q -101 -87 -118 -96 q -65 -76 -85 -79 q -26 -74 -44 -74 q 1 -67 -12 -74 q 27 -49 15 -60 q 46 -23 39 -37 q 54 7 53 -8 l 86 392 q 22 415 42 392 q 3 481 3 438 q 23 552 3 528 q 92 576 43 576 l 103 576 q 124 683 110 635 q 163 764 138 731 q 224 816 188 797 q 314 835 261 835 q 400 819 365 835 q 456 781 435 803 q 485 737 476 758 q 494 703 494 715 q 476 637 494 654 q 421 619 458 619 q 370 636 393 619 q 331 669 347 653 q 309 632 313 658 q 304 579 306 606 q 354 578 332 579 q 391 568 376 576 q 413 542 406 560 q 421 490 421 524 q 401 422 421 450 q 336 393 381 393 l 289 393 q 274 195 282 290 q 256 -7 267 100 q 181 -183 244 -122 q 0 -243 118 -243 m 378 786 q 379 769 372 776 q 394 759 386 763 q 410 744 401 756 q 427 720 419 733 q 447 713 435 707 q 453 733 456 717 q 436 765 450 750 q 413 786 425 779 q 392 793 400 793 q 378 786 382 793 m 442 683 q 456 665 444 668 q 466 672 463 664 q 467 688 469 679 q 463 698 467 694 q 454 701 458 701 q 442 683 438 707 m 358 551 q 355 547 357 550 q 354 540 353 543 q 358 529 357 533 q 363 518 358 525 q 369 497 368 508 q 381 486 369 486 q 394 496 389 486 q 396 521 400 506 q 380 547 390 539 q 358 551 369 554 z "},"":{"ha":651,"x_min":60,"x_max":588,"o":"m 496 524 q 566 500 544 524 q 588 431 588 476 q 565 355 588 383 q 493 326 543 326 q 465 326 479 326 q 438 328 451 326 l 325 331 l 268 331 q 214 328 240 331 q 160 325 188 325 q 83 351 107 325 q 60 426 60 376 q 75 497 60 474 q 143 521 90 521 l 232 521 l 407 524 l 496 524 m 522 494 q 513 492 518 494 q 507 483 507 489 q 510 464 507 478 q 519 436 514 450 q 531 412 524 422 q 544 401 538 401 q 560 413 556 401 q 564 433 564 425 q 553 473 564 451 q 522 494 543 494 m 544 389 q 533 384 539 389 q 528 372 528 379 q 530 358 528 365 q 540 350 532 350 q 557 368 557 350 q 555 382 557 375 q 544 389 553 389 z "},"":{"ha":726,"x_min":125,"x_max":615,"o":"m 125 276 q 137 308 125 290 q 166 345 149 326 q 204 382 183 364 q 242 413 225 400 q 206 442 226 426 q 169 473 186 457 q 139 505 151 489 q 126 538 126 521 q 137 572 126 553 q 163 608 147 590 q 195 638 178 626 q 228 650 213 650 q 265 637 244 650 q 306 605 285 624 q 344 566 326 586 q 371 533 361 546 q 397 565 381 546 q 431 603 413 585 q 467 636 449 622 q 503 650 486 650 q 537 638 518 650 q 574 608 556 626 q 603 572 592 590 q 615 538 615 553 q 603 502 615 519 q 572 468 590 485 q 533 436 554 451 q 496 408 513 421 q 533 376 513 394 q 572 339 554 357 q 601 304 589 321 q 614 276 614 288 q 601 243 614 261 q 572 210 589 225 q 535 184 554 194 q 500 174 515 174 q 467 185 486 174 q 430 214 449 197 q 394 248 411 231 q 367 278 378 265 q 338 244 353 264 q 309 208 324 225 q 278 180 294 192 q 242 168 261 168 q 208 180 228 168 q 169 208 188 192 q 138 244 151 225 q 125 276 125 263 m 585 564 q 569 561 575 567 q 558 546 564 554 q 547 529 553 538 q 540 519 544 524 q 531 512 535 515 q 525 504 526 508 q 526 493 524 500 q 538 486 529 486 q 568 504 550 486 q 588 540 583 522 q 585 564 593 558 m 506 486 q 493 471 493 481 q 499 460 493 464 q 513 460 506 457 q 524 474 524 463 q 506 486 524 490 m 554 321 q 551 308 549 318 q 557 297 554 301 q 565 286 560 293 q 573 267 572 275 q 585 258 574 258 q 594 266 593 257 q 589 290 596 275 q 570 317 581 310 q 554 321 560 325 z "},"":{"ha":692,"x_min":58,"x_max":621,"o":"m 442 668 q 412 593 442 624 q 335 563 382 563 q 261 590 286 563 q 236 661 236 617 q 261 734 236 706 q 335 763 286 763 q 410 738 379 763 q 442 668 442 713 m 529 525 q 599 501 578 525 q 621 432 621 478 q 599 356 621 383 q 525 328 576 328 q 419 330 472 328 q 314 332 367 332 q 237 329 275 332 q 158 326 199 326 q 81 351 104 326 q 58 428 58 376 q 73 498 58 475 q 140 521 88 521 q 335 523 238 521 q 529 525 432 525 m 549 496 q 539 493 544 496 q 533 485 533 490 q 537 465 533 479 q 545 438 540 451 q 557 413 550 424 q 571 403 564 403 q 586 415 582 403 q 590 435 590 426 q 580 474 590 453 q 549 496 569 496 m 571 390 q 560 385 565 390 q 554 374 554 381 q 556 359 554 367 q 567 351 558 351 q 583 369 583 351 q 581 383 583 376 q 571 390 579 390 m 450 204 q 420 129 450 160 q 344 99 390 99 q 270 126 296 99 q 244 199 244 153 q 269 271 244 243 q 343 299 294 299 q 419 274 388 299 q 450 204 450 250 z "},"":{"ha":371,"x_min":86,"x_max":279,"o":"m 279 868 q 279 776 279 824 q 278 683 279 729 q 276 592 278 636 q 268 513 274 549 q 244 453 261 465 q 197 440 228 440 l 174 440 q 132 456 147 440 q 108 496 117 471 q 98 553 100 521 q 94 618 96 585 q 96 749 93 681 q 99 879 99 817 q 126 940 99 915 q 189 965 153 965 q 256 939 233 965 q 279 868 279 913 m 228 900 q 208 889 214 900 q 201 863 203 878 q 199 833 199 849 q 199 810 199 818 q 198 788 199 803 q 199 758 197 774 q 207 732 201 743 q 222 719 213 721 q 240 726 233 719 q 251 742 247 732 q 256 762 254 751 q 257 781 257 772 q 258 820 258 799 q 253 860 257 842 q 244 890 250 878 q 228 900 238 901 m 232 694 q 208 684 218 696 q 199 660 199 672 q 217 638 196 640 q 238 645 229 636 q 249 668 247 654 q 245 684 249 675 q 232 694 242 693 m 97 333 q 122 381 100 368 q 183 394 143 394 q 210 392 196 394 q 237 384 225 390 q 256 366 249 378 q 265 335 264 354 q 267 285 267 317 q 269 215 268 253 q 271 138 269 178 q 273 65 272 99 q 274 8 274 31 q 275 -21 275 -15 q 250 -103 275 -74 q 179 -132 225 -132 q 86 -11 86 -132 q 86 16 86 -7 q 87 71 86 39 q 89 141 88 103 q 92 216 90 179 q 94 284 93 253 q 97 333 96 315 z "},"":{"ha":383,"x_min":63,"x_max":321,"o":"m 321 446 q 289 338 321 378 q 186 297 257 297 q 91 335 119 297 q 63 435 63 372 q 93 536 63 494 q 186 578 124 578 q 321 446 321 578 m 239 532 q 222 521 225 532 q 226 501 222 514 q 233 483 231 489 q 238 468 236 476 q 241 452 239 460 q 248 440 243 444 q 263 435 253 435 q 278 444 274 435 q 283 464 283 454 q 274 508 285 485 q 239 532 263 531 m 260 421 q 247 413 253 421 q 242 399 242 406 q 243 381 240 392 q 254 369 246 371 q 278 392 275 369 q 275 410 279 401 q 260 421 271 419 z "},"":{"ha":447,"x_min":28,"x_max":418,"o":"m 28 749 q 44 824 28 789 q 87 888 60 860 q 151 931 114 915 q 228 947 188 947 q 299 933 264 947 q 360 895 333 919 q 402 837 386 871 q 418 761 418 803 q 401 676 418 713 q 357 614 385 639 q 292 576 329 589 q 214 563 256 563 q 145 577 179 563 q 85 617 111 592 q 44 676 60 642 q 28 749 28 710 m 278 903 q 279 883 269 893 q 295 867 286 876 q 315 850 304 857 q 327 839 322 846 q 336 826 332 832 q 345 818 340 821 q 358 818 350 815 q 368 839 369 822 q 350 875 367 856 q 319 899 335 890 q 292 907 303 907 q 278 903 282 907 m 188 756 q 199 726 188 736 q 226 717 211 717 q 253 726 240 717 q 267 756 267 736 q 253 786 267 775 q 226 797 240 797 q 201 786 214 797 q 188 756 188 775 z "},"":{"ha":558,"x_min":33,"x_max":544,"o":"m 196 554 q 127 573 157 554 q 76 621 97 592 q 44 686 56 650 q 33 757 33 722 q 52 851 33 808 q 104 926 71 894 q 182 974 138 957 q 276 992 226 992 q 342 984 311 992 q 397 959 374 976 q 433 915 419 942 q 446 849 446 888 q 434 790 446 818 q 422 731 422 761 l 431 725 q 444 739 442 725 q 451 770 447 753 q 463 801 454 788 q 492 815 471 815 q 517 807 507 815 q 533 786 526 799 q 542 759 539 774 q 544 733 544 744 q 533 668 544 700 q 499 611 521 636 q 449 571 478 586 q 385 556 419 556 q 332 576 353 556 q 300 625 311 597 q 257 576 282 597 q 196 554 232 554 m 204 754 q 210 743 204 749 q 231 756 219 743 q 251 784 242 768 q 268 816 261 800 q 276 840 275 832 q 269 846 274 844 q 261 847 265 847 q 236 837 247 847 q 218 812 225 826 q 208 781 211 797 q 204 754 204 765 m 501 801 q 493 794 493 801 q 494 784 493 792 q 497 769 494 776 q 504 756 500 761 q 513 750 508 750 q 522 756 519 750 q 524 768 524 763 q 518 790 524 779 q 501 801 513 801 m 368 533 q 445 516 421 533 q 469 443 469 499 q 456 375 469 403 q 396 347 442 347 q 370 348 383 347 q 344 349 357 349 l 310 351 q 284 353 297 353 q 258 353 271 353 q 198 349 228 353 q 138 346 168 346 q 74 368 93 346 q 56 433 56 390 q 77 506 56 485 q 149 526 99 526 q 195 524 172 526 q 242 522 218 522 q 305 528 274 522 q 368 533 336 533 m 411 506 q 396 493 396 506 q 399 474 396 488 q 408 447 403 460 q 419 423 413 433 q 433 413 426 413 q 449 425 446 413 q 453 447 453 438 q 442 485 453 465 q 411 506 431 506 z "},"":{"ha":490,"x_min":40,"x_max":450,"o":"m 247 560 q 166 576 204 560 q 100 619 128 592 q 56 685 72 647 q 40 767 40 724 q 56 852 40 813 q 98 921 71 892 q 164 967 125 950 q 250 983 203 983 q 333 969 296 983 q 396 927 369 954 q 436 863 422 900 q 450 779 450 825 q 438 692 450 732 q 400 622 425 651 q 337 576 375 593 q 247 560 299 560 m 306 946 q 298 938 300 943 q 299 926 296 932 q 324 904 303 917 q 358 867 344 892 q 369 840 365 856 q 388 824 372 824 q 404 840 403 824 q 399 875 406 856 q 379 908 392 893 q 353 933 367 924 q 326 947 339 943 q 306 946 314 950 m 203 774 q 215 735 203 754 q 247 717 226 717 q 290 733 271 717 q 308 774 308 749 q 292 810 308 797 q 254 824 276 824 q 215 810 228 824 q 203 774 203 797 m 328 542 q 378 540 356 542 q 415 529 400 538 q 439 503 431 521 q 447 451 447 485 q 434 381 447 410 q 372 353 421 353 q 316 356 344 353 q 260 358 288 358 q 197 355 226 358 q 136 351 168 351 q 72 374 90 351 q 53 440 53 397 q 69 508 53 486 q 113 536 86 529 q 174 541 139 543 q 243 539 208 539 q 285 540 264 539 q 328 542 307 542 m 394 506 q 379 493 379 506 q 383 474 379 488 q 391 447 386 460 q 403 423 396 433 q 417 413 410 413 q 433 425 429 413 q 436 447 436 438 q 425 485 436 465 q 394 506 414 506 z "},"":{"ha":393,"x_min":38,"x_max":328,"o":"m 38 753 q 59 812 38 781 q 112 869 81 843 q 178 913 143 896 q 240 931 214 931 q 301 908 275 931 q 328 850 328 886 q 326 665 328 757 q 324 481 324 574 q 303 408 324 433 q 233 382 282 382 q 164 410 185 382 q 143 483 143 438 q 145 581 143 532 q 147 678 147 629 q 122 662 136 671 q 96 653 108 653 q 67 664 79 653 q 49 690 56 675 q 40 723 43 706 q 38 753 38 740 m 283 869 q 269 860 274 869 q 262 840 264 851 q 260 817 260 829 q 261 799 261 806 q 260 782 261 793 q 261 759 260 771 q 267 738 263 747 q 279 729 271 729 q 301 746 297 728 q 306 776 306 764 q 306 807 307 790 q 303 838 306 824 q 297 860 301 851 q 283 869 292 869 m 286 710 q 268 701 275 710 q 261 682 261 692 q 275 665 258 665 q 292 671 285 664 q 300 689 299 678 q 297 701 300 694 q 286 710 293 708 z "},"":{"ha":492,"x_min":38,"x_max":439,"o":"m 49 451 q 81 536 49 499 q 153 608 114 574 q 226 674 193 642 q 258 742 258 707 q 253 758 258 753 q 242 767 249 764 q 230 770 236 769 q 221 771 224 771 q 194 756 200 771 q 183 722 189 740 q 163 689 176 704 q 115 674 150 674 q 60 700 82 674 q 38 758 38 726 q 55 826 38 794 q 101 880 72 857 q 163 916 129 903 q 231 929 197 929 q 308 919 272 929 q 371 887 344 908 q 413 832 397 865 q 428 754 428 799 q 399 633 428 685 q 322 539 371 581 q 357 541 342 540 q 375 542 372 542 q 425 517 411 542 q 439 460 439 492 q 421 402 439 426 q 367 378 403 378 q 294 380 331 378 q 221 382 257 382 l 169 382 q 126 381 147 382 q 87 385 104 381 q 59 406 69 390 q 49 451 49 421 m 289 882 q 284 872 286 878 q 288 860 282 867 q 306 846 294 851 q 328 828 317 840 q 337 812 333 821 q 343 796 340 803 q 351 785 346 789 q 365 782 356 781 q 381 806 378 785 q 368 849 385 828 q 335 878 353 868 q 304 888 318 888 q 289 882 294 888 m 368 753 q 374 739 369 746 q 385 731 378 732 q 399 735 393 728 q 406 754 406 743 q 389 774 404 769 q 373 771 379 776 q 368 753 367 765 z "},"":{"ha":500,"x_min":60,"x_max":457,"o":"m 406 654 q 443 608 429 635 q 457 546 457 582 q 440 465 457 497 q 396 413 424 432 q 330 385 368 393 q 249 376 292 376 q 178 389 213 376 q 118 424 144 401 q 76 479 92 447 q 60 549 60 511 q 78 607 60 581 q 131 633 96 633 q 181 617 167 633 q 202 581 194 601 q 218 545 210 561 q 250 529 226 529 q 276 533 263 529 q 290 553 290 536 q 275 581 290 576 q 242 588 260 585 q 208 601 224 590 q 193 651 193 613 q 208 691 193 682 q 240 704 222 700 q 272 718 257 708 q 286 758 286 728 q 257 789 286 789 q 224 771 235 789 q 204 731 213 753 q 183 692 196 710 q 143 674 171 674 q 88 699 111 674 q 64 757 64 725 q 81 826 64 794 q 126 880 99 857 q 189 916 154 903 q 258 929 224 929 q 342 922 306 929 q 403 897 378 915 q 440 845 428 878 q 453 763 453 813 q 406 654 453 694 m 317 882 q 312 872 314 878 q 315 860 310 867 q 333 846 322 851 q 356 828 344 840 q 365 812 361 821 q 371 796 368 803 q 378 785 374 789 q 393 782 383 781 q 409 806 406 785 q 396 849 413 828 q 363 878 381 868 q 332 888 346 888 q 317 882 322 888 m 396 753 q 401 739 397 746 q 413 731 406 732 q 427 735 421 728 q 433 754 433 743 q 417 774 432 769 q 401 771 407 776 q 396 753 394 765 z "},"":{"ha":1815,"x_min":65,"x_max":1783,"o":"m 307 343 q 202 363 247 343 q 126 419 157 383 q 81 503 96 454 q 65 608 65 551 q 128 805 65 729 q 318 881 190 881 q 503 810 442 881 q 564 621 564 739 q 547 510 564 561 q 498 422 531 460 q 417 364 465 385 q 307 343 369 343 m 547 68 q 524 34 538 54 q 494 -4 511 14 q 459 -35 478 -22 q 421 -49 440 -49 q 347 -19 374 -49 q 319 53 319 11 q 339 110 319 71 q 385 191 358 149 q 436 272 411 233 q 472 326 461 310 q 606 541 543 432 q 733 758 668 650 q 758 797 744 778 q 787 832 771 817 q 823 857 803 847 q 868 867 843 867 q 935 839 907 867 q 964 772 964 811 q 957 738 964 757 q 943 704 950 718 q 749 383 847 542 q 547 68 650 225 m 907 801 q 894 801 901 804 q 883 790 886 797 q 872 763 878 779 q 863 732 867 747 q 853 713 860 722 q 842 697 847 704 q 836 681 838 689 q 842 665 835 674 q 857 658 847 658 q 906 700 883 658 q 923 766 924 735 q 907 801 922 797 m 251 604 q 253 572 251 590 q 263 536 256 553 q 281 508 269 519 q 313 497 293 497 q 345 509 332 497 q 367 538 358 521 q 378 576 375 556 q 382 611 382 596 q 379 645 382 626 q 369 681 376 664 q 349 708 361 697 q 318 719 338 719 q 284 708 297 719 q 264 678 271 696 q 254 640 257 660 q 251 604 251 619 m 814 644 q 799 615 794 632 q 812 601 801 604 q 833 604 822 597 q 847 632 850 617 q 829 650 843 650 q 814 644 821 650 m 988 -43 q 807 30 868 -43 q 746 219 746 103 q 762 333 746 281 q 810 423 778 385 q 890 483 842 461 q 1004 504 939 504 q 1114 483 1068 504 q 1190 426 1160 463 q 1234 338 1219 389 q 1249 229 1249 288 q 1181 30 1249 103 q 988 -43 1114 -43 m 1522 -43 q 1342 30 1403 -43 q 1281 219 1281 103 q 1297 333 1281 281 q 1344 423 1313 385 q 1425 483 1376 461 q 1539 504 1474 504 q 1649 483 1603 504 q 1724 426 1694 463 q 1769 338 1754 389 q 1783 229 1783 288 q 1716 30 1783 103 q 1522 -43 1649 -43 m 1064 451 q 1067 429 1056 440 q 1086 413 1075 422 q 1108 394 1097 403 q 1122 381 1117 389 q 1133 366 1128 372 q 1144 357 1138 360 q 1158 358 1150 354 q 1167 383 1169 364 q 1144 424 1164 403 q 1112 449 1129 440 q 1081 458 1094 458 q 1064 451 1068 458 m 1599 451 q 1601 429 1590 440 q 1621 413 1610 422 q 1643 394 1632 403 q 1657 381 1651 389 q 1667 366 1663 372 q 1678 357 1672 360 q 1693 358 1685 354 q 1701 383 1704 364 q 1679 424 1699 403 q 1647 449 1664 440 q 1615 458 1629 458 q 1599 451 1603 458 m 929 228 q 931 192 929 211 q 940 158 933 174 q 960 133 947 143 q 994 122 974 122 q 1032 133 1018 122 q 1054 159 1046 143 q 1065 194 1063 175 q 1068 232 1068 214 q 1066 268 1068 249 q 1056 304 1064 288 q 1036 333 1049 321 q 1003 344 1024 344 q 966 333 981 344 q 943 305 951 322 q 932 267 935 288 q 929 228 929 246 m 1464 228 q 1466 192 1464 211 q 1475 158 1468 174 q 1495 133 1482 143 q 1529 122 1508 122 q 1567 133 1553 122 q 1589 159 1581 143 q 1600 194 1597 175 q 1603 232 1603 214 q 1601 268 1603 249 q 1591 304 1599 288 q 1571 333 1583 321 q 1538 344 1558 344 q 1501 333 1515 344 q 1478 305 1486 322 q 1467 267 1469 288 q 1464 228 1464 246 z "},"":{"ha":658,"x_min":14,"x_max":658,"o":"m 242 68 q 219 34 232 54 q 189 -4 206 14 q 153 -35 172 -22 q 115 -49 135 -49 q 41 -19 68 -49 q 14 53 14 11 q 33 110 14 71 q 79 191 53 149 q 131 272 106 233 q 167 326 156 310 q 300 541 238 432 q 428 758 363 650 q 452 797 439 778 q 481 832 465 817 q 517 857 497 847 q 563 867 538 867 q 630 839 601 867 q 658 772 658 811 q 651 738 658 757 q 638 704 644 718 q 443 383 542 542 q 242 68 344 225 m 601 801 q 588 801 596 804 q 578 790 581 797 q 567 763 572 779 q 557 732 561 747 q 548 713 554 722 q 537 697 542 704 q 531 681 532 689 q 536 665 529 674 q 551 658 542 658 q 600 700 578 658 q 617 766 618 735 q 601 801 617 797 m 508 644 q 493 615 489 632 q 506 601 496 604 q 528 604 517 597 q 542 632 544 617 q 524 650 538 650 q 508 644 515 650 z "},"":{"ha":1038,"x_min":46,"x_max":1001,"o":"m 46 725 q 67 784 46 753 q 120 842 89 815 q 187 885 151 868 q 249 903 222 903 q 310 881 283 903 q 336 822 336 858 q 334 638 336 729 q 332 453 332 546 q 311 380 332 406 q 242 354 290 354 q 172 382 193 354 q 151 456 151 410 q 153 553 151 504 q 156 650 156 601 q 131 634 144 643 q 104 625 117 625 q 76 636 88 625 q 58 663 64 647 q 49 695 51 678 q 46 725 46 713 m 389 68 q 366 34 379 54 q 336 -4 353 14 q 301 -35 319 -22 q 263 -49 282 -49 q 188 -19 215 -49 q 161 53 161 11 q 181 110 161 71 q 226 191 200 149 q 278 272 253 233 q 314 326 303 310 q 447 541 385 432 q 575 758 510 650 q 599 797 586 778 q 628 832 613 817 q 665 857 644 847 q 710 867 685 867 q 777 839 749 867 q 806 772 806 811 q 799 738 806 757 q 785 704 792 718 q 590 383 689 542 q 389 68 492 225 m 292 842 q 277 833 282 842 q 270 813 272 824 q 269 790 268 801 q 269 771 269 778 q 269 754 269 765 q 269 731 268 743 q 275 710 271 719 q 288 701 279 701 q 310 718 306 700 q 314 749 314 736 q 315 779 315 763 q 312 810 314 796 q 305 833 310 824 q 292 842 300 842 m 749 801 q 735 801 743 804 q 725 790 728 797 q 714 763 719 779 q 704 732 708 747 q 695 713 701 722 q 684 697 689 704 q 678 681 679 689 q 683 665 676 674 q 699 658 689 658 q 747 700 725 658 q 765 766 765 735 q 749 801 764 797 m 294 682 q 276 673 283 682 q 269 654 269 664 q 283 638 267 638 q 300 643 293 636 q 308 661 307 650 q 305 674 308 667 q 294 682 301 681 m 656 644 q 640 615 636 632 q 653 601 643 604 q 675 604 664 597 q 689 632 692 617 q 671 650 685 650 q 656 644 663 650 m 611 35 q 644 119 611 82 q 716 191 676 157 q 788 258 756 225 q 821 325 821 290 q 816 342 821 336 q 805 350 811 347 q 792 353 799 353 q 783 354 786 354 q 759 339 763 354 q 752 305 756 324 q 738 271 749 286 q 692 256 726 256 q 636 282 658 256 q 614 340 614 308 q 629 408 614 376 q 670 463 644 440 q 728 499 696 486 q 793 513 760 513 q 871 502 835 513 q 933 470 907 492 q 975 415 960 449 q 990 338 990 382 q 976 272 990 303 q 942 215 963 242 q 895 163 921 188 q 844 118 869 139 q 869 121 854 119 q 899 123 885 122 q 925 124 914 124 q 938 125 936 125 q 988 100 974 125 q 1001 43 1001 75 q 983 -15 1001 10 q 929 -39 965 -39 q 856 -37 893 -39 q 783 -35 819 -35 l 732 -35 q 688 -35 710 -35 q 649 -31 667 -36 q 622 -11 632 -26 q 611 35 611 4 m 853 465 q 847 456 849 461 q 850 443 844 450 q 869 429 858 435 q 890 411 879 424 q 899 395 896 404 q 906 379 903 386 q 913 368 908 372 q 928 365 918 364 q 944 390 940 368 q 931 432 947 411 q 898 461 915 451 q 867 471 881 471 q 853 465 858 471 m 931 336 q 936 322 932 329 q 947 314 940 315 q 962 319 956 311 q 968 338 968 326 q 951 357 967 353 q 935 354 942 360 q 931 336 929 349 z "},"":{"ha":1058,"x_min":67,"x_max":1000,"o":"m 67 725 q 88 784 67 753 q 141 842 110 815 q 208 885 172 868 q 269 903 243 903 q 331 881 304 903 q 357 822 357 858 q 355 638 357 729 q 353 453 353 546 q 332 380 353 406 q 263 354 311 354 q 193 382 214 354 q 172 456 172 410 q 174 553 172 504 q 176 650 176 601 q 151 634 165 643 q 125 625 138 625 q 97 636 108 625 q 78 663 85 647 q 69 695 72 678 q 67 725 67 713 m 410 68 q 387 34 400 54 q 357 -4 374 14 q 322 -35 340 -22 q 283 -49 303 -49 q 209 -19 236 -49 q 182 53 182 11 q 201 110 182 71 q 247 191 221 149 q 299 272 274 233 q 335 326 324 310 q 468 541 406 432 q 596 758 531 650 q 620 797 607 778 q 649 832 633 817 q 685 857 665 847 q 731 867 706 867 q 798 839 769 867 q 826 772 826 811 q 819 738 826 757 q 806 704 813 718 q 611 383 710 542 q 410 68 513 225 m 313 842 q 298 833 303 842 q 291 813 293 824 q 290 790 289 801 q 290 771 290 778 q 290 754 290 765 q 290 731 289 743 q 296 710 292 719 q 308 701 300 701 q 331 718 326 700 q 335 749 335 736 q 335 779 336 763 q 333 810 335 796 q 326 833 331 824 q 313 842 321 842 m 769 801 q 756 801 764 804 q 746 790 749 797 q 735 763 740 779 q 725 732 729 747 q 716 713 722 722 q 705 697 710 704 q 699 681 700 689 q 704 665 697 674 q 719 658 710 658 q 768 700 746 658 q 785 766 786 735 q 769 801 785 797 m 315 682 q 297 673 304 682 q 290 654 290 664 q 304 638 288 638 q 321 643 314 636 q 329 661 328 650 q 326 674 329 667 q 315 682 322 681 m 676 644 q 661 615 657 632 q 674 601 664 604 q 696 604 685 597 q 710 632 713 617 q 692 650 706 650 q 676 644 683 650 m 963 469 q 958 358 963 415 q 958 315 958 336 q 956 272 957 294 q 988 249 978 265 q 999 200 999 232 q 999 165 999 179 q 997 139 1000 150 q 985 121 993 128 q 958 110 976 114 q 936 19 958 54 q 849 -17 914 -17 q 817 -8 831 -17 q 794 13 804 0 q 780 43 785 26 q 775 75 775 60 q 775 90 775 82 q 776 104 775 97 q 746 102 761 103 q 715 101 731 101 q 668 104 693 101 q 624 116 643 107 q 591 142 604 125 q 578 190 578 160 q 582 225 578 207 q 596 257 586 243 q 691 386 646 324 q 792 510 736 449 q 822 534 804 525 q 872 543 840 543 q 903 539 888 543 q 932 526 918 535 q 954 504 946 518 q 963 469 963 490 m 907 492 q 891 482 896 490 q 885 462 886 474 q 883 439 883 450 q 883 421 883 428 q 883 403 883 415 q 885 381 883 392 q 890 360 886 369 q 903 350 894 351 q 917 355 911 350 q 924 367 922 360 q 928 384 926 375 q 929 399 929 393 q 930 429 931 413 q 927 460 929 446 q 920 483 925 474 q 907 492 915 492 m 753 261 l 811 263 l 813 346 l 753 261 m 910 331 q 892 323 899 332 q 883 304 885 314 q 899 286 883 288 q 915 293 908 286 q 922 311 922 300 q 920 324 924 317 q 910 331 917 331 z "},"":{"ha":1094,"x_min":46,"x_max":1042,"o":"m 392 640 q 429 594 415 621 q 443 532 443 568 q 426 451 443 483 q 382 399 410 418 q 316 371 354 379 q 235 363 278 363 q 165 375 199 363 q 104 410 131 388 q 62 465 78 433 q 46 535 46 497 q 64 593 46 567 q 117 619 82 619 q 167 603 153 619 q 188 567 181 588 q 204 531 196 547 q 236 515 213 515 q 263 519 249 515 q 276 539 276 522 q 261 567 276 563 q 228 574 246 571 q 194 588 210 576 q 179 638 179 599 q 194 677 179 668 q 226 690 208 686 q 258 704 243 694 q 272 744 272 714 q 243 775 272 775 q 210 757 221 775 q 190 717 199 739 q 169 678 182 696 q 129 660 157 660 q 74 685 97 660 q 50 743 50 711 q 67 812 50 781 q 113 866 85 843 q 175 902 140 889 q 244 915 210 915 q 328 908 292 915 q 389 883 364 901 q 426 831 414 864 q 439 749 439 799 q 392 640 439 681 m 303 868 q 298 858 300 864 q 301 846 296 853 q 319 832 308 838 q 342 814 331 826 q 351 798 347 807 q 357 782 354 789 q 365 771 360 775 q 379 768 369 767 q 395 792 392 771 q 382 835 399 814 q 349 864 367 854 q 318 874 332 874 q 303 868 308 874 m 451 68 q 428 34 442 54 q 399 -4 415 14 q 363 -35 382 -22 q 325 -49 344 -49 q 251 -19 278 -49 q 224 53 224 11 q 243 110 224 71 q 289 191 263 149 q 340 272 315 233 q 376 326 365 310 q 510 541 447 432 q 638 758 572 650 q 662 797 649 778 q 691 832 675 817 q 727 857 707 847 q 772 867 747 867 q 840 839 811 867 q 868 772 868 811 q 861 738 868 757 q 847 704 854 718 q 653 383 751 542 q 451 68 554 225 m 811 801 q 798 801 806 804 q 788 790 790 797 q 776 763 782 779 q 767 732 771 747 q 758 713 764 722 q 747 697 751 704 q 740 681 742 689 q 746 665 739 674 q 761 658 751 658 q 810 700 788 658 q 827 766 828 735 q 811 801 826 797 m 382 739 q 388 725 383 732 q 399 717 392 718 q 413 722 407 714 q 419 740 419 729 q 403 760 418 756 q 387 757 393 763 q 382 739 381 751 m 718 644 q 703 615 699 632 q 716 601 706 604 q 738 604 726 597 q 751 632 754 617 q 733 650 747 650 q 718 644 725 650 m 1004 469 q 1000 358 1004 415 q 999 315 1000 336 q 997 272 999 294 q 1030 249 1019 265 q 1040 200 1040 232 q 1041 165 1040 179 q 1038 139 1042 150 q 1026 121 1035 128 q 1000 110 1018 114 q 978 19 1000 54 q 890 -17 956 -17 q 859 -8 872 -17 q 836 13 846 0 q 822 43 826 26 q 817 75 817 60 q 817 90 817 82 q 818 104 817 97 q 788 102 803 103 q 757 101 772 101 q 710 104 735 101 q 665 116 685 107 q 633 142 646 125 q 619 190 619 160 q 624 225 619 207 q 638 257 628 243 q 733 386 688 324 q 833 510 778 449 q 864 534 846 525 q 914 543 882 543 q 944 539 929 543 q 974 526 960 535 q 996 504 988 518 q 1004 469 1004 490 m 949 492 q 933 482 938 490 q 926 462 928 474 q 925 439 925 450 q 925 421 925 428 q 925 403 925 415 q 926 381 925 392 q 932 360 928 369 q 944 350 936 351 q 958 355 953 350 q 966 367 964 360 q 969 384 968 375 q 971 399 971 393 q 972 429 972 413 q 969 460 971 446 q 962 483 967 474 q 949 492 957 492 m 794 261 l 853 263 l 854 346 l 794 261 m 951 331 q 933 323 940 332 q 925 304 926 314 q 940 286 925 288 q 957 293 950 286 q 964 311 964 300 q 962 324 965 317 q 951 331 958 331 z "},"":{"ha":676,"x_min":67,"x_max":657,"o":"m 67 -144 q 69 -18 67 -81 q 75 108 72 44 q 78 228 78 161 q 78 363 78 294 q 79 499 78 432 q 86 618 81 565 q 99 652 89 638 q 125 677 110 667 q 158 693 140 688 q 194 699 176 699 q 225 692 207 699 q 260 676 243 686 q 288 653 276 667 q 300 626 300 640 q 298 554 300 597 q 294 466 296 511 q 290 378 292 421 q 288 304 288 335 q 288 289 288 299 q 292 269 289 279 q 299 253 294 260 q 311 246 303 246 q 347 268 331 246 q 376 326 364 290 q 396 408 389 363 q 403 503 403 454 q 404 556 403 531 q 406 610 406 582 q 416 645 406 629 q 442 672 426 661 q 478 690 458 683 q 514 696 497 696 q 583 676 551 696 q 614 615 614 657 q 611 533 614 581 q 605 435 608 486 q 599 337 601 385 q 596 254 596 289 q 613 220 603 240 q 633 179 624 200 q 650 138 643 158 q 657 104 657 118 q 646 63 657 85 q 618 24 635 42 q 581 -5 601 7 q 540 -17 560 -17 q 508 -4 522 -17 q 484 26 494 8 q 465 63 474 44 q 451 94 457 82 q 390 51 428 67 q 315 36 351 36 q 281 43 297 36 q 250 61 265 50 q 255 48 253 57 q 259 17 257 39 q 262 -44 261 -4 q 263 -147 263 -83 q 236 -213 263 -187 q 169 -239 210 -239 q 133 -231 151 -239 q 99 -211 114 -224 q 76 -181 85 -199 q 67 -144 67 -164 m 544 628 q 528 618 533 628 q 521 596 522 608 q 519 571 519 583 q 519 551 519 558 q 519 533 519 546 q 521 507 519 519 q 527 484 522 494 q 540 474 532 474 q 556 479 550 474 q 565 493 561 485 q 569 510 568 501 q 569 526 569 519 q 570 560 571 542 q 567 594 569 578 q 558 619 564 610 q 544 628 553 629 m 549 453 q 529 444 538 454 q 519 422 521 433 q 536 404 519 404 q 555 410 547 403 q 563 431 563 418 q 560 444 563 436 q 549 453 557 451 m 604 163 q 599 158 601 161 q 596 151 596 156 q 596 138 596 143 q 599 125 596 133 q 599 99 601 111 q 610 83 597 86 q 629 89 621 81 q 638 117 638 97 q 626 151 636 139 q 604 163 617 164 z "},"":{"ha":875,"x_min":78,"x_max":826,"o":"m 540 372 q 535 170 540 278 q 526 -29 529 63 q 517 -58 526 -46 q 496 -76 508 -69 q 468 -87 483 -83 q 439 -90 453 -90 q 410 -85 426 -90 q 378 -72 393 -81 q 353 -51 364 -64 q 343 -24 343 -39 l 346 296 q 242 322 290 303 q 157 372 193 340 q 99 449 121 404 q 78 556 78 494 q 119 718 78 651 q 228 825 161 785 q 377 883 294 865 q 542 901 460 901 q 659 897 599 901 q 775 885 719 893 q 816 853 806 881 q 826 800 826 826 q 824 772 826 789 q 814 740 821 756 q 797 714 807 725 q 772 703 788 703 l 740 703 q 734 574 736 636 q 731 458 732 511 q 731 366 731 406 q 732 306 732 326 q 735 81 732 171 q 726 -49 738 -8 q 696 -78 722 -67 q 644 -89 669 -89 q 617 -85 632 -89 q 590 -73 603 -81 q 569 -54 578 -65 q 561 -29 561 -43 q 560 167 561 71 q 561 363 558 263 l 569 700 l 546 700 q 542 536 543 613 q 540 372 540 460 m 765 860 q 757 858 761 860 q 753 850 753 856 q 756 836 753 846 q 760 822 758 826 q 767 797 765 811 q 783 783 768 783 q 795 792 792 783 q 799 807 799 800 q 792 841 800 824 q 765 860 783 858 m 783 774 q 769 760 772 774 q 771 748 769 754 q 779 742 772 742 q 793 757 793 739 q 792 768 794 763 q 783 774 790 774 z "},"":{"ha":847,"x_min":93,"x_max":804,"o":"m 250 156 q 265 122 261 136 q 289 90 269 108 q 318 75 296 83 q 372 67 340 67 q 417 75 401 67 q 432 96 432 83 q 401 116 432 100 q 329 154 371 132 q 253 197 293 174 q 181 251 214 219 q 127 324 149 282 q 106 426 106 367 q 152 571 106 510 q 276 658 199 632 q 310 735 286 700 q 367 794 333 769 q 444 832 401 818 q 536 846 488 846 q 644 825 597 846 q 723 773 692 804 q 770 704 754 742 q 786 635 786 667 q 765 543 786 578 q 690 508 743 508 q 619 528 636 508 q 604 588 601 547 q 592 637 607 624 q 540 650 578 650 q 492 635 513 650 q 471 596 471 619 q 513 544 471 568 q 608 497 554 521 q 678 464 643 482 q 741 421 713 446 q 787 361 769 396 q 804 276 804 326 q 756 144 804 197 q 636 67 708 90 q 603 -13 628 22 q 542 -73 578 -49 q 460 -110 506 -97 q 365 -124 414 -124 q 266 -105 315 -124 q 178 -53 217 -86 q 117 24 140 -21 q 93 122 93 69 q 185 204 93 204 q 225 190 207 204 q 250 156 243 175 m 621 788 q 618 763 608 778 q 635 738 625 751 q 656 711 644 724 q 667 694 663 704 q 675 677 671 685 q 685 665 679 669 q 703 661 692 660 q 719 686 718 664 q 704 736 721 708 q 659 783 685 768 q 621 788 633 797 m 706 626 q 722 599 706 606 q 741 604 732 596 q 749 625 750 613 q 744 640 749 633 q 731 649 739 647 q 706 626 706 658 m 318 453 q 307 422 307 438 q 349 372 307 396 q 444 324 390 349 q 515 290 479 308 q 578 247 550 272 q 596 269 596 257 q 565 289 596 272 q 494 326 535 306 q 401 379 450 350 q 318 453 353 408 m 694 394 q 692 369 682 385 q 706 354 699 358 q 719 335 713 350 q 725 318 724 328 q 730 300 726 308 q 739 288 733 292 q 756 285 744 283 q 769 305 771 288 q 758 350 768 322 q 735 388 750 376 q 708 399 721 399 q 694 394 701 399 z "},"":{"ha":614,"x_min":15,"x_max":589,"o":"m 15 660 q 33 732 15 710 q 104 754 50 754 q 155 754 129 754 q 206 753 181 754 q 208 810 206 783 q 219 858 210 838 q 250 890 229 878 q 308 901 271 901 q 382 881 350 901 q 414 814 414 860 q 414 801 414 807 q 413 788 414 794 l 413 789 l 408 754 q 449 756 428 754 q 490 758 471 758 q 564 737 539 758 q 589 667 589 715 q 568 592 589 624 q 500 561 547 561 q 450 562 475 561 q 400 563 425 563 q 396 478 397 521 q 394 393 394 436 q 401 185 394 289 q 407 -24 407 81 q 378 -103 407 -75 q 299 -132 350 -132 q 218 -103 246 -132 q 190 -22 190 -75 q 198 194 190 86 q 206 411 206 303 l 206 563 q 185 560 197 560 q 163 560 172 560 q 105 562 132 560 q 58 573 78 564 q 27 602 39 582 q 15 660 15 622 m 514 726 q 506 724 510 726 q 501 715 501 722 q 504 701 501 711 q 510 685 507 690 q 517 658 515 672 q 535 643 518 643 q 548 652 544 643 q 551 669 551 661 q 544 706 554 686 q 514 726 535 725 m 535 632 q 525 628 529 633 q 519 617 521 622 q 521 604 519 611 q 529 597 522 597 q 541 601 536 596 q 546 614 546 607 q 544 626 547 621 q 535 632 542 632 m 371 -10 q 354 -8 363 -1 q 346 -22 350 -11 q 339 -37 342 -32 q 326 -62 335 -50 q 328 -85 317 -74 q 344 -87 335 -92 q 358 -78 353 -83 q 378 -45 372 -65 q 371 -10 385 -25 z "},"":{"ha":601,"x_min":17,"x_max":572,"o":"m 190 4 q 127 1 158 3 q 72 8 96 0 q 32 39 47 17 q 17 104 17 61 q 34 175 17 153 q 103 197 51 197 l 200 197 q 204 381 203 289 q 206 564 206 472 q 172 561 189 563 q 139 560 156 560 q 50 578 83 560 q 17 661 17 597 q 33 733 17 710 q 103 756 50 756 q 154 756 129 756 q 206 754 179 756 q 208 810 206 783 q 219 857 210 836 q 248 890 228 878 q 306 901 268 901 q 377 880 346 901 q 408 814 408 858 q 408 785 408 799 q 406 757 407 772 q 465 758 435 757 q 518 753 494 760 q 557 728 542 747 q 572 667 572 708 q 552 594 572 626 q 488 563 532 563 q 441 563 464 563 q 394 564 418 564 q 390 393 390 479 q 392 296 390 344 q 396 199 393 247 q 456 201 425 199 q 513 196 488 203 q 556 169 539 189 q 572 108 572 150 q 552 36 572 68 q 488 4 532 4 q 446 5 467 4 q 404 7 425 6 q 401 -48 406 -22 q 385 -92 397 -74 q 351 -122 372 -111 q 296 -132 329 -132 q 217 -102 244 -132 q 190 -22 190 -72 l 190 4 m 508 726 q 500 724 504 726 q 496 715 496 722 q 499 701 496 711 q 504 685 501 690 q 511 658 510 672 q 529 643 513 643 q 542 652 539 643 q 546 669 546 661 q 539 706 549 686 q 508 726 529 725 m 529 632 q 519 628 524 633 q 514 617 515 622 q 515 604 514 611 q 524 597 517 597 q 535 601 531 596 q 540 614 540 607 q 539 626 542 621 q 529 632 536 632 m 508 171 q 499 163 499 174 q 500 149 497 158 q 506 138 503 140 q 511 114 510 126 q 525 101 513 101 q 537 109 533 101 q 540 124 540 117 q 534 154 542 139 q 508 171 526 169 z "},"~":{"ha":738,"x_min":69,"x_max":683,"o":"m 601 565 q 638 555 622 565 q 664 528 654 544 q 678 493 674 513 q 683 456 683 474 q 670 385 683 418 q 633 328 657 353 q 576 289 608 303 q 506 275 543 275 q 438 285 469 275 q 378 308 407 296 q 324 330 350 319 q 269 340 297 340 q 226 328 240 340 q 201 300 211 315 q 181 272 192 285 q 146 260 169 260 q 110 272 125 260 q 87 301 96 283 q 74 340 78 319 q 69 378 69 361 q 83 449 69 415 q 121 508 97 482 q 178 550 144 535 q 249 565 211 565 q 314 555 282 565 q 377 532 346 544 q 440 509 408 519 q 503 499 471 499 q 544 513 524 499 q 558 527 553 518 q 570 544 564 536 q 583 559 576 553 q 601 565 590 565 m 618 542 q 610 539 614 542 q 606 531 606 536 q 608 515 604 526 q 614 500 611 504 q 621 473 619 488 q 639 458 622 458 q 652 467 649 458 q 656 483 656 476 q 648 520 657 501 q 618 542 639 539 m 639 447 q 629 442 633 447 q 624 432 625 438 q 625 419 624 426 q 633 413 626 413 q 645 416 640 411 q 650 428 650 421 q 648 441 650 435 q 639 447 646 447 z "},"":{"ha":465,"x_min":44,"x_max":381,"o":"m 44 401 q 50 435 44 421 q 72 460 56 449 q 128 499 106 479 q 172 540 151 519 q 214 582 193 561 q 264 625 235 603 q 296 636 279 636 q 322 629 310 636 q 344 613 335 622 q 360 592 354 603 q 369 572 367 581 q 375 522 376 544 q 354 478 374 500 q 306 431 333 454 q 251 396 279 407 q 312 351 279 379 q 368 289 344 324 q 375 247 381 269 q 354 206 369 225 q 320 174 339 186 q 289 161 301 161 q 238 185 268 161 q 176 239 207 208 q 117 298 144 269 q 76 335 90 326 q 53 360 61 346 q 44 401 44 374 m 303 604 q 293 592 292 601 q 299 578 294 588 q 306 567 303 569 q 319 543 314 556 q 338 533 324 531 q 349 544 347 536 q 349 561 350 553 q 334 592 346 576 q 303 604 322 607 m 340 524 q 333 519 335 524 q 332 508 331 514 q 335 497 333 503 q 343 492 338 492 q 356 510 358 494 q 340 524 353 525 z "},"":{"ha":421,"x_min":68,"x_max":404,"o":"m 404 401 q 396 360 404 374 q 372 335 388 346 q 331 298 358 326 q 273 239 304 269 q 211 185 242 208 q 160 161 181 161 q 128 174 147 161 q 94 206 110 186 q 74 247 79 225 q 81 289 68 269 q 109 321 92 306 q 143 349 126 336 q 175 374 160 363 q 197 396 190 386 q 142 431 169 407 q 94 478 115 454 q 73 522 74 500 q 79 572 72 544 q 104 613 85 589 q 151 636 124 636 q 185 625 169 636 q 235 582 214 603 q 276 540 256 561 q 320 499 297 519 q 375 460 343 479 q 399 435 393 449 q 404 401 404 421 m 358 446 q 349 438 349 446 q 352 426 350 433 q 356 415 354 418 q 359 402 358 411 q 361 385 360 393 q 365 371 363 376 q 374 367 368 365 q 383 383 381 367 q 386 406 385 399 q 379 433 386 419 q 358 446 372 447 z "},"":{"ha":714,"x_min":33,"x_max":663,"o":"m 33 401 q 39 435 33 421 q 61 460 44 449 q 117 499 94 479 q 161 540 140 519 q 203 582 182 561 q 253 625 224 603 q 285 636 268 636 q 311 629 299 636 q 333 613 324 622 q 349 592 343 603 q 358 572 356 581 q 364 522 365 544 q 343 478 363 500 q 295 431 322 454 q 240 396 268 407 q 301 351 268 379 q 357 289 333 324 q 364 247 369 269 q 343 206 358 225 q 309 174 328 186 q 278 161 290 161 q 226 185 257 161 q 165 239 196 208 q 106 298 133 269 q 65 335 79 326 q 42 360 50 346 q 33 401 33 374 m 326 401 q 332 435 326 421 q 356 460 338 449 q 410 499 388 479 q 454 540 433 519 q 496 582 475 561 q 546 625 517 603 q 579 636 561 636 q 626 613 607 636 q 651 572 646 589 q 657 522 658 544 q 636 478 656 500 q 588 431 615 454 q 533 396 561 407 q 594 351 561 379 q 650 289 626 324 q 657 247 663 269 q 636 206 651 225 q 602 174 621 186 q 571 161 583 161 q 519 185 550 161 q 458 239 489 208 q 399 298 426 269 q 358 335 372 326 q 335 360 343 346 q 326 401 326 374 m 585 604 q 575 592 574 601 q 581 578 576 588 q 589 567 586 569 q 601 543 596 556 q 619 533 606 531 q 631 544 629 536 q 631 561 632 553 q 616 592 628 576 q 585 604 604 607 m 622 524 q 615 519 618 524 q 614 508 613 514 q 617 497 615 503 q 625 492 619 492 q 638 510 640 494 q 622 524 635 525 z "},"":{"ha":724,"x_min":47,"x_max":676,"o":"m 676 401 q 668 360 676 374 q 644 335 660 346 q 603 298 631 326 q 545 239 576 269 q 483 185 514 208 q 432 161 453 161 q 401 174 419 161 q 367 206 382 186 q 346 247 351 225 q 353 289 340 269 q 409 351 376 324 q 469 396 442 379 q 415 431 442 407 q 367 478 388 454 q 346 522 347 500 q 351 572 344 544 q 360 592 354 581 q 376 613 367 603 q 399 629 386 622 q 425 636 411 636 q 457 625 442 636 q 507 582 486 603 q 549 540 528 561 q 592 499 569 519 q 649 460 615 479 q 671 435 665 449 q 676 401 676 421 m 383 401 q 375 360 383 374 q 351 335 367 346 q 310 298 338 326 q 252 239 283 269 q 190 185 221 208 q 139 161 160 161 q 108 174 126 161 q 74 206 89 186 q 53 247 58 225 q 60 289 47 269 q 116 351 83 324 q 176 396 149 379 q 122 431 149 407 q 74 478 94 454 q 52 522 53 500 q 58 572 51 544 q 83 613 64 589 q 131 636 103 636 q 164 625 149 636 q 214 582 193 603 q 256 540 235 561 q 299 499 276 519 q 354 460 322 479 q 378 435 372 449 q 383 401 383 421 m 618 446 q 610 438 610 446 q 612 426 610 435 q 617 415 614 418 q 620 402 619 411 q 622 385 621 393 q 626 371 624 376 q 635 367 629 365 q 644 383 642 367 q 646 406 646 399 q 640 433 647 419 q 618 446 633 447 z "},"":{"ha":447,"x_min":39,"x_max":403,"o":"m 335 1125 q 367 1115 354 1125 q 388 1091 381 1106 q 399 1059 396 1076 q 403 1025 403 1042 q 388 956 403 988 q 349 899 374 924 q 290 862 324 875 q 221 849 257 849 q 153 861 186 849 q 94 897 119 874 q 54 950 69 919 q 39 1018 39 981 q 42 1051 39 1033 q 51 1083 44 1068 q 71 1107 58 1097 q 103 1117 83 1117 q 137 1106 125 1117 q 159 1082 149 1094 q 184 1058 169 1069 q 226 1047 199 1047 q 266 1060 254 1047 q 285 1087 278 1072 q 303 1113 293 1101 q 335 1125 313 1125 m 338 1104 q 329 1092 328 1101 q 334 1078 329 1088 q 342 1065 339 1068 q 355 1038 349 1054 q 375 1025 361 1022 q 385 1040 385 1028 q 385 1058 386 1051 q 369 1091 382 1075 q 338 1104 357 1107 z "},"":{"ha":317,"x_min":63,"x_max":261,"o":"m 261 988 q 256 949 261 971 q 238 909 250 928 q 206 878 225 890 q 161 865 188 865 q 93 895 124 865 q 63 979 63 925 q 86 1056 63 1022 q 161 1090 110 1090 q 233 1062 204 1090 q 261 988 261 1033 m 186 1068 q 178 1056 176 1065 q 183 1043 178 1053 q 190 1029 188 1033 q 203 1002 197 1018 q 224 989 210 986 q 234 1004 233 992 q 233 1024 235 1017 q 218 1055 231 1039 q 186 1068 206 1071 z "},"":{"ha":436,"x_min":68,"x_max":372,"o":"m 68 988 q 79 1047 68 1018 q 111 1097 90 1075 q 160 1131 132 1118 q 224 1143 189 1143 q 284 1131 257 1143 q 331 1100 311 1119 q 361 1053 350 1081 q 372 997 372 1026 q 332 886 372 932 q 225 840 292 840 q 113 881 158 840 q 68 988 68 921 m 282 1097 q 276 1083 274 1092 q 284 1071 278 1079 q 294 1060 290 1063 q 303 1049 299 1056 q 312 1036 307 1042 q 322 1027 317 1031 q 335 1026 328 1024 q 342 1042 343 1031 q 338 1061 340 1054 q 317 1090 332 1076 q 282 1097 301 1104 m 200 992 q 206 967 200 981 q 222 954 211 954 q 242 967 236 954 q 247 999 247 981 q 243 1025 247 1014 q 224 1036 239 1036 q 206 1024 211 1036 q 200 992 200 1011 z "},"":{"ha":679,"x_min":51,"x_max":636,"o":"m 51 926 q 76 976 51 944 q 135 1038 101 1007 q 203 1090 169 1068 q 253 1113 236 1113 q 285 1104 268 1113 q 316 1083 301 1096 q 340 1055 331 1071 q 350 1024 350 1039 q 322 965 350 996 q 257 906 294 933 q 181 862 219 879 q 119 844 142 844 q 98 854 110 844 q 76 877 86 864 q 58 904 65 890 q 51 926 51 918 m 338 926 q 363 976 338 944 q 422 1038 388 1007 q 489 1090 456 1068 q 539 1113 522 1113 q 570 1104 553 1113 q 602 1083 588 1096 q 626 1055 617 1071 q 636 1024 636 1039 q 608 965 636 996 q 543 906 581 933 q 467 862 506 879 q 406 844 428 844 q 384 854 396 844 q 362 877 372 864 q 344 904 351 890 q 338 926 338 918 m 253 1086 q 246 1074 242 1083 q 256 1061 249 1069 q 265 1050 263 1053 q 285 1028 275 1042 q 308 1019 294 1014 q 314 1035 317 1024 q 308 1054 311 1047 q 286 1082 301 1069 q 253 1086 271 1094 m 538 1086 q 532 1074 528 1083 q 542 1061 535 1069 q 551 1050 549 1053 q 571 1028 561 1042 q 593 1019 581 1014 q 600 1035 603 1024 q 594 1054 597 1047 q 572 1082 588 1069 q 538 1086 557 1094 z "},"":{"ha":422,"x_min":69,"x_max":351,"o":"m 275 4 q 270 -33 275 -21 q 258 -51 265 -44 q 244 -65 251 -58 q 235 -83 238 -71 q 249 -100 235 -100 q 267 -96 257 -100 q 283 -90 276 -92 q 333 -108 314 -86 q 351 -165 351 -129 q 324 -235 351 -207 q 254 -262 296 -262 q 185 -250 218 -262 q 126 -215 151 -237 q 85 -160 100 -192 q 69 -90 69 -128 q 81 -36 69 -65 q 113 17 93 -7 q 159 56 133 40 q 211 72 185 72 q 258 53 242 72 q 275 4 275 33 m 276 -111 q 269 -125 265 -114 q 278 -137 272 -128 q 288 -149 285 -146 q 296 -160 292 -153 q 306 -172 300 -167 q 317 -181 311 -178 q 328 -181 322 -183 q 335 -165 338 -178 q 331 -146 333 -153 q 310 -117 325 -131 q 276 -111 294 -104 z "},"":{"ha":583,"x_min":82,"x_max":489,"o":"m 82 1003 q 92 1033 82 1017 q 115 1065 101 1050 q 143 1091 128 1081 q 171 1101 158 1101 q 194 1093 179 1101 q 227 1072 210 1085 q 262 1045 244 1060 q 292 1018 279 1031 q 317 1043 303 1029 q 347 1068 332 1057 q 377 1087 363 1079 q 401 1094 392 1094 q 429 1085 414 1094 q 458 1061 444 1075 q 480 1031 471 1047 q 489 1000 489 1014 q 463 940 489 971 q 403 885 438 910 q 336 844 369 860 q 288 828 303 828 q 233 851 268 828 q 165 905 199 875 q 107 964 132 935 q 82 1003 82 993 m 389 1071 q 383 1057 378 1065 q 392 1044 385 1053 q 401 1033 399 1036 q 421 1011 411 1025 q 444 1003 431 997 q 450 1019 453 1007 q 444 1038 447 1031 q 422 1065 438 1053 q 389 1071 407 1078 z "},"`":{"ha":418,"x_min":51,"x_max":350,"o":"m 350 926 q 343 904 350 918 q 326 877 336 890 q 303 854 315 864 q 282 844 292 844 q 221 862 260 844 q 144 906 182 879 q 79 965 107 933 q 51 1024 51 996 q 61 1055 51 1039 q 85 1083 71 1071 q 117 1104 100 1096 q 149 1113 135 1113 q 199 1090 165 1113 q 266 1038 232 1068 q 325 976 300 1007 q 350 926 350 944 m 314 965 q 299 963 306 971 q 293 949 296 960 q 289 935 290 939 q 279 906 286 922 q 285 882 272 890 q 301 885 293 876 q 315 900 310 893 q 327 933 325 913 q 314 965 329 954 z "},"":{"ha":550,"x_min":82,"x_max":489,"o":"m 82 928 q 107 967 82 939 q 165 1026 132 996 q 233 1081 199 1057 q 288 1104 268 1104 q 340 1088 306 1104 q 407 1045 374 1071 q 465 990 440 1019 q 489 933 489 960 q 480 901 489 918 q 458 870 471 885 q 429 847 444 856 q 401 838 414 838 q 377 845 392 838 q 347 865 363 853 q 317 890 332 876 q 292 915 303 903 q 262 888 279 903 q 227 860 244 872 q 194 839 210 847 q 171 831 179 831 q 143 841 158 831 q 115 866 128 851 q 92 897 101 881 q 82 928 82 914 m 439 967 q 425 963 428 969 q 421 948 422 958 q 418 933 419 938 q 413 904 418 921 q 421 881 408 888 q 437 885 429 876 q 449 901 444 894 q 457 937 457 917 q 439 967 457 957 z "},"":{"ha":543,"x_min":63,"x_max":469,"o":"m 261 988 q 256 949 261 971 q 238 909 250 928 q 206 878 225 890 q 161 865 188 865 q 93 895 124 865 q 63 979 63 925 q 86 1056 63 1022 q 161 1090 110 1090 q 233 1062 204 1090 q 261 988 261 1033 m 469 988 q 464 949 469 971 q 446 909 458 928 q 415 878 433 890 q 369 865 396 865 q 301 895 332 865 q 271 979 271 925 q 294 1056 271 1022 q 369 1090 318 1090 q 441 1062 413 1090 q 469 988 469 1033 m 186 1068 q 178 1056 176 1065 q 183 1043 178 1053 q 190 1029 188 1033 q 203 1002 197 1018 q 224 989 210 986 q 234 1004 233 992 q 233 1024 235 1017 q 218 1055 231 1039 q 186 1068 206 1071 m 394 1068 q 386 1056 385 1065 q 391 1043 386 1053 q 399 1029 396 1033 q 412 1002 406 1018 q 432 989 418 986 q 442 1004 442 992 q 442 1024 443 1017 q 426 1055 439 1039 q 394 1068 414 1071 z "},"":{"ha":438,"x_min":65,"x_max":364,"o":"m 65 926 q 90 976 65 944 q 149 1038 115 1007 q 217 1090 183 1068 q 267 1113 250 1113 q 299 1104 282 1113 q 330 1083 315 1096 q 354 1055 344 1071 q 364 1024 364 1039 q 336 965 364 996 q 271 906 308 933 q 194 862 233 879 q 133 844 156 844 q 112 854 124 844 q 90 877 100 864 q 72 904 79 890 q 65 926 65 918 m 267 1086 q 260 1074 256 1083 q 269 1061 263 1069 q 279 1050 276 1053 q 299 1028 289 1042 q 322 1019 308 1014 q 328 1035 331 1024 q 322 1054 325 1047 q 300 1082 315 1069 q 267 1086 285 1094 z "},"":{"ha":443,"x_min":101,"x_max":385,"o":"m 125 -74 q 135 -38 125 -57 q 159 -3 144 -19 q 192 24 174 14 q 228 35 211 35 q 276 17 260 35 q 285 -35 292 0 q 293 -51 283 -42 q 321 -64 303 -60 q 371 -100 357 -75 q 385 -164 385 -125 q 367 -229 385 -201 q 323 -276 350 -257 q 262 -306 296 -296 q 194 -315 228 -315 q 128 -297 154 -315 q 101 -233 101 -278 q 110 -183 101 -199 q 158 -168 118 -168 q 172 -169 164 -168 q 189 -169 181 -169 q 203 -164 197 -168 q 208 -150 208 -160 q 195 -135 208 -142 q 167 -121 182 -129 q 138 -101 151 -112 q 125 -74 125 -90 m 315 -94 q 306 -107 304 -97 q 312 -121 307 -111 q 319 -133 317 -131 q 333 -160 326 -144 q 353 -174 339 -176 q 363 -159 363 -171 q 363 -140 363 -147 q 347 -108 360 -124 q 315 -94 335 -92 z "},"":{"ha":738,"x_min":43,"x_max":710,"o":"m 47 351 l 47 424 l 46 568 l 46 640 q 70 738 46 697 q 134 806 94 779 q 223 847 174 833 q 322 860 272 860 q 422 846 371 860 q 514 804 472 832 q 583 735 556 776 q 610 638 610 693 q 593 550 610 583 q 556 496 576 517 q 518 461 535 475 q 501 431 501 447 q 517 410 501 419 q 556 388 532 400 q 606 360 579 376 q 656 322 632 344 q 694 267 679 299 q 710 193 710 236 q 686 108 710 146 q 626 44 663 71 q 544 4 589 18 q 458 -10 500 -10 q 333 29 381 -10 q 286 153 286 68 q 306 217 286 196 q 351 239 326 239 q 403 222 383 239 q 421 176 422 204 q 435 155 421 157 q 458 153 450 153 q 483 171 475 153 q 483 204 490 189 q 441 231 474 221 q 373 258 408 240 q 310 312 338 276 q 282 417 282 347 q 297 491 282 458 q 331 549 313 524 q 365 592 350 574 q 381 626 381 611 q 361 658 381 650 q 322 667 342 667 q 285 649 297 667 q 266 607 272 632 q 259 556 260 582 q 258 514 258 531 q 265 298 258 406 q 272 82 272 190 q 263 44 272 61 q 238 15 253 28 q 203 -3 222 3 q 165 -10 185 -10 q 126 -3 147 -10 q 85 15 104 3 q 55 44 67 26 q 43 82 43 61 q 45 217 43 150 q 47 351 47 283 m 418 792 q 410 778 413 786 q 415 764 408 771 q 440 745 426 753 q 468 721 454 738 q 481 699 476 711 q 489 678 485 688 q 499 663 493 668 q 518 661 506 658 q 532 672 526 664 q 539 693 538 681 q 537 720 540 706 q 522 749 533 735 q 479 786 503 774 q 438 799 456 799 q 418 792 425 799 m 522 622 q 530 603 524 611 q 543 592 536 594 q 563 599 554 589 q 571 624 572 610 q 564 640 571 633 q 550 649 557 646 q 522 622 519 656 z "},"":{"ha":669,"x_min":22,"x_max":649,"o":"m 319 -29 q 194 -5 249 -29 q 101 63 139 19 q 42 165 63 106 q 22 293 22 224 q 44 404 22 353 q 104 494 65 456 q 198 553 143 532 q 319 575 253 575 q 365 569 343 575 q 353 585 361 575 q 336 606 344 594 q 320 628 328 618 q 308 643 313 638 q 274 615 294 632 q 233 597 253 597 q 204 606 218 597 q 183 633 190 614 q 192 672 176 656 q 232 706 208 688 q 187 736 207 722 q 167 788 167 750 q 177 823 167 807 q 204 851 188 839 q 240 871 221 864 q 278 878 260 878 q 305 871 290 878 q 335 854 319 864 q 363 833 350 844 q 383 813 375 821 q 419 841 401 828 q 451 857 438 854 q 475 853 464 858 q 494 839 486 847 q 508 820 503 831 q 514 801 514 810 q 507 789 514 796 q 490 774 500 782 q 468 760 479 767 q 449 749 457 753 q 525 665 489 715 q 589 556 561 614 q 633 439 617 499 q 649 329 649 379 q 624 194 649 258 q 556 80 600 129 q 452 1 513 31 q 319 -29 392 -29 m 446 839 q 443 829 440 832 q 451 824 447 826 q 460 815 456 821 q 467 803 467 810 q 479 801 468 797 q 487 813 486 804 q 481 828 488 821 q 461 840 471 838 q 446 839 451 843 m 497 713 l 497 711 l 497 713 m 551 453 q 538 445 544 450 q 535 431 532 440 q 543 400 538 415 q 551 363 549 385 q 553 339 554 350 q 551 318 551 328 q 556 301 551 308 q 572 290 560 294 q 599 306 589 285 q 604 363 608 328 q 582 433 597 407 q 551 453 567 458 m 339 408 q 299 399 318 408 q 267 374 281 389 q 245 338 253 358 q 238 297 238 318 q 260 219 238 251 q 331 188 282 188 q 416 219 383 188 q 449 301 449 250 q 416 379 449 350 q 339 408 383 408 z "},"":{"ha":706,"x_min":88,"x_max":621,"o":"m 258 410 q 194 408 225 410 q 140 414 164 407 q 101 441 115 421 q 88 504 88 461 q 102 573 88 551 q 140 602 117 594 q 196 608 164 610 q 261 607 228 606 q 259 670 261 640 q 263 722 257 700 q 290 758 269 744 q 354 771 310 771 q 427 754 404 771 q 450 685 450 738 q 450 647 450 665 q 449 608 450 628 q 513 609 482 607 q 566 605 543 611 q 602 578 589 599 q 615 510 615 557 q 603 444 615 465 q 570 416 592 424 q 518 410 549 408 q 451 411 488 411 q 451 352 451 381 q 442 302 450 324 q 413 268 433 281 q 353 256 393 256 q 281 270 306 256 q 257 338 257 285 q 257 374 257 356 q 258 410 257 392 m 528 578 q 518 575 524 578 q 513 567 513 572 q 516 547 513 561 q 524 519 519 533 q 536 495 529 506 q 550 485 543 485 q 565 497 561 485 q 569 517 569 508 q 559 556 569 535 q 528 578 549 578 m 550 472 q 539 467 544 472 q 533 456 533 463 q 535 441 533 449 q 546 433 538 433 q 563 451 563 433 q 560 465 563 458 q 550 472 558 472 m 531 240 q 600 217 579 240 q 621 149 621 193 q 601 72 621 100 q 528 44 581 44 q 415 47 471 44 q 301 49 360 49 q 249 45 275 49 q 194 42 222 42 q 118 67 142 42 q 94 143 94 93 q 110 213 94 189 q 176 238 125 238 l 265 238 l 443 240 l 531 240 m 553 204 q 540 200 549 204 q 532 188 532 196 q 543 168 532 176 q 561 140 554 160 q 568 135 563 135 q 582 140 575 135 q 589 153 589 146 q 579 188 589 171 q 553 204 569 204 z "},"":{"ha":649,"x_min":51,"x_max":618,"o":"m 186 -40 q 92 -12 132 -40 q 53 75 53 15 l 53 236 l 51 560 l 51 721 l 51 761 q 63 798 51 783 q 93 822 75 813 q 132 835 111 831 q 171 839 153 839 q 249 818 215 839 q 282 747 282 797 l 282 713 q 406 701 346 718 q 514 647 467 685 q 590 551 561 610 q 618 410 618 492 q 600 274 618 338 q 544 162 582 210 q 449 87 507 114 q 313 60 392 60 q 297 60 306 60 q 281 61 289 60 q 258 -14 278 13 q 186 -40 239 -40 m 390 654 q 383 624 374 640 q 399 613 388 618 q 425 599 411 607 q 453 581 439 592 q 481 554 468 569 q 492 536 488 546 q 501 518 496 526 q 514 504 507 510 q 531 500 521 499 q 550 526 550 503 q 535 574 550 549 q 475 636 513 613 q 410 660 438 660 q 390 654 397 660 m 536 464 q 540 446 535 454 q 551 435 544 438 q 569 439 561 431 q 578 458 578 447 q 561 483 578 479 q 543 483 550 489 q 536 464 536 478 m 385 414 q 376 451 385 438 q 351 471 367 464 q 317 481 336 478 q 278 485 297 483 l 278 426 q 278 349 278 388 q 279 272 278 311 q 285 272 282 272 q 292 271 289 271 q 338 285 319 271 q 366 320 356 299 q 381 367 376 342 q 385 414 385 392 z "},"":{"ha":649,"x_min":51,"x_max":618,"o":"m 186 -40 q 92 -12 132 -40 q 53 75 53 15 l 53 236 l 51 560 l 51 721 l 51 761 q 63 798 51 783 q 93 822 75 813 q 132 835 111 831 q 171 839 153 839 q 249 818 215 839 q 282 747 282 797 l 282 713 q 406 701 346 718 q 514 647 467 685 q 590 551 561 610 q 618 410 618 492 q 600 274 618 338 q 544 162 582 210 q 449 87 507 114 q 313 60 392 60 q 297 60 306 60 q 281 61 289 60 q 258 -14 278 13 q 186 -40 239 -40 m 390 654 q 383 624 374 640 q 399 613 388 618 q 425 599 411 607 q 453 581 439 592 q 481 554 468 569 q 492 536 488 546 q 501 518 496 526 q 514 504 507 510 q 531 500 521 499 q 550 526 550 503 q 535 574 550 549 q 475 636 513 613 q 410 660 438 660 q 390 654 397 660 m 536 464 q 540 446 535 454 q 551 435 544 438 q 569 439 561 431 q 578 458 578 447 q 561 483 578 479 q 543 483 550 489 q 536 464 536 478 m 385 414 q 376 451 385 438 q 351 471 367 464 q 317 481 336 478 q 278 485 297 483 l 278 426 q 278 349 278 388 q 279 272 278 311 q 285 272 282 272 q 292 271 289 271 q 338 285 319 271 q 366 320 356 299 q 381 367 376 342 q 385 414 385 392 z "},"a":{"ha":658,"x_min":7,"x_max":651,"o":"m 135 -26 q 37 1 67 -26 q 7 92 7 29 q 13 147 7 111 q 26 227 18 182 q 47 324 35 272 q 72 426 58 375 q 98 522 85 476 q 124 601 111 568 q 169 709 147 667 q 215 777 190 751 q 271 813 240 803 q 343 824 301 824 q 440 808 400 824 q 509 747 479 792 q 560 626 539 703 q 601 425 582 549 q 617 324 608 382 q 633 211 625 267 q 646 111 640 156 q 651 49 651 67 q 529 -39 651 -39 q 463 -26 486 -39 q 428 11 440 -12 q 409 67 415 35 q 393 140 403 100 l 244 140 q 237 84 240 114 q 223 30 233 54 q 192 -10 213 6 q 135 -26 172 -26 m 429 722 q 417 692 417 715 q 431 632 418 668 q 493 567 460 551 q 500 647 524 582 q 465 709 485 688 q 429 722 444 731 m 492 528 q 494 492 482 504 q 507 486 500 486 q 524 492 515 486 q 535 506 532 497 q 528 539 542 525 q 513 546 521 546 q 492 528 500 546 m 369 343 q 369 399 371 365 q 364 463 368 432 q 354 515 360 493 q 342 538 349 538 q 325 519 335 538 q 306 471 315 500 q 290 408 297 442 q 282 343 283 374 l 369 343 z "},"b":{"ha":644,"x_min":38,"x_max":621,"o":"m 297 -43 q 169 -26 219 -43 q 89 28 118 -8 q 49 123 60 65 q 38 260 38 181 l 38 501 q 38 632 38 571 q 56 738 39 693 q 117 809 74 783 q 246 835 161 835 q 401 826 335 835 q 513 793 468 818 q 579 722 557 768 q 601 601 601 676 q 592 542 601 574 q 567 484 583 511 q 528 436 551 457 q 476 408 506 415 q 581 357 540 406 q 621 218 621 308 q 594 98 621 147 q 522 17 567 49 q 418 -28 476 -14 q 297 -43 360 -43 m 442 754 q 433 743 436 751 q 433 726 431 735 q 451 702 439 714 q 472 675 463 690 q 481 653 479 665 q 487 632 483 642 q 496 616 490 622 q 514 610 501 610 q 536 633 531 610 q 531 689 542 657 q 486 746 515 729 q 442 754 457 763 m 263 513 q 275 511 265 511 q 351 529 319 511 q 383 579 383 547 q 365 606 383 594 q 307 618 347 618 q 288 618 299 618 q 261 615 276 618 q 258 564 258 590 q 258 513 258 538 l 263 513 m 486 565 q 489 544 485 554 q 500 532 493 535 q 522 535 511 526 q 533 557 532 543 q 518 586 536 579 q 486 565 490 600 m 263 197 q 272 174 263 178 q 313 171 281 171 q 400 229 400 171 q 368 290 400 263 q 260 321 336 318 l 263 197 z "},"c":{"ha":607,"x_min":14,"x_max":594,"o":"m 325 -51 q 167 -21 228 -51 q 72 67 106 10 q 26 207 38 124 q 14 394 14 290 q 26 567 14 486 q 72 708 39 647 q 165 805 106 769 q 318 840 224 840 q 489 803 426 840 q 575 664 551 765 q 588 576 583 626 q 593 493 593 526 q 558 416 593 438 q 471 394 524 394 q 415 408 438 394 q 385 456 393 421 q 381 501 381 474 q 380 553 382 528 q 368 596 378 578 q 335 614 358 614 q 281 585 300 614 q 253 519 263 557 q 242 441 244 481 q 240 379 240 401 q 242 321 240 356 q 252 253 243 286 q 280 197 261 221 q 333 174 299 174 q 383 183 368 174 q 403 207 397 193 q 412 238 410 221 q 422 269 414 256 q 448 293 429 283 q 506 303 467 303 q 578 274 561 303 q 594 194 594 244 q 574 88 594 133 q 519 10 554 42 q 434 -36 483 -21 q 325 -51 385 -51 m 424 769 q 415 758 418 767 q 417 742 413 750 q 432 713 424 729 q 451 682 440 697 q 461 661 458 672 q 467 641 464 650 q 477 626 471 632 q 496 619 483 619 q 517 644 513 621 q 508 700 522 668 q 465 759 492 739 q 424 769 439 779 m 493 581 q 496 560 492 569 q 507 547 500 550 q 528 550 518 542 q 540 572 539 558 q 525 601 543 594 q 493 581 497 615 z "},"d":{"ha":676,"x_min":38,"x_max":649,"o":"m 269 -42 q 103 -1 156 -42 q 49 129 50 40 l 40 614 q 61 760 38 711 q 142 824 85 810 q 258 828 176 832 q 438 798 364 822 q 559 726 513 774 q 627 604 606 678 q 649 428 649 531 q 556 73 649 188 q 269 -42 464 -42 m 415 731 q 406 717 408 726 q 407 701 403 708 q 422 689 411 696 q 445 673 432 682 q 472 652 458 664 q 497 624 486 640 q 506 605 503 615 q 514 585 510 594 q 525 571 518 576 q 542 565 532 565 q 563 589 561 567 q 553 638 565 611 q 528 676 543 658 q 496 707 513 694 q 463 727 479 719 q 432 735 446 735 q 415 731 422 735 m 267 196 q 278 176 267 181 q 301 171 289 171 q 365 200 340 171 q 402 269 389 229 q 420 351 415 308 q 425 421 425 394 q 389 560 425 514 q 265 610 353 606 l 267 196 m 543 528 q 545 509 542 518 q 556 497 549 500 q 574 501 565 493 q 585 519 583 508 q 582 535 586 528 q 571 546 578 543 q 543 528 547 557 z "},"e":{"ha":539,"x_min":39,"x_max":539,"o":"m 153 -47 q 65 -15 89 -47 q 42 76 42 17 l 42 576 q 40 638 42 600 q 44 712 39 675 q 65 776 49 749 q 119 807 82 803 q 277 822 197 814 q 435 829 357 829 q 464 816 450 829 q 488 785 478 803 q 505 747 499 767 q 511 715 511 728 q 509 679 511 697 q 500 647 507 661 q 480 622 493 632 q 444 611 467 613 l 256 596 l 263 510 l 399 510 q 457 481 442 510 q 472 415 472 453 q 470 383 472 401 q 462 347 468 364 q 444 317 456 329 q 414 304 433 304 l 263 304 l 271 181 l 346 181 q 370 190 361 181 q 388 210 379 199 q 409 231 397 222 q 439 240 421 240 q 511 217 483 240 q 539 147 539 193 q 533 57 539 93 q 510 -1 528 21 q 458 -34 492 -24 q 371 -46 425 -44 q 306 -47 339 -47 q 240 -47 272 -47 l 153 -47 m 382 800 q 376 794 379 799 q 375 783 372 789 q 386 766 382 772 q 393 754 390 760 q 404 725 400 739 q 433 710 408 711 q 456 725 449 710 q 453 764 464 740 q 419 799 439 790 q 382 800 400 807 m 428 682 q 429 669 426 675 q 438 660 432 663 q 451 663 444 657 q 460 676 458 668 q 450 697 460 693 q 428 682 432 706 m 392 488 q 387 483 389 486 q 386 475 385 479 q 390 463 389 467 q 396 450 392 458 q 403 426 403 439 q 417 413 404 413 q 434 423 428 413 q 435 453 440 433 q 415 482 428 474 q 392 488 403 490 z "},"f":{"ha":497,"x_min":39,"x_max":486,"o":"m 39 65 l 39 193 l 40 453 l 40 581 q 41 699 40 654 q 51 768 42 743 q 81 802 60 793 q 142 815 101 811 q 274 826 208 822 q 407 831 340 831 q 470 799 454 831 q 486 714 486 767 q 484 679 486 699 q 475 643 482 660 q 456 615 468 626 q 424 601 443 603 l 263 593 l 258 440 q 310 456 283 450 q 364 463 336 463 q 411 451 393 463 q 438 422 429 440 q 451 381 447 404 q 454 335 454 358 q 431 268 454 286 q 364 244 408 250 q 312 235 338 242 q 260 229 286 229 q 264 165 260 201 q 268 101 268 129 q 265 39 268 67 q 250 -8 263 11 q 213 -36 238 -26 q 147 -46 189 -46 q 60 -23 82 -46 q 39 65 39 0 m 386 803 q 372 789 372 803 q 378 769 372 783 q 388 750 385 756 q 396 721 394 736 q 415 703 397 706 l 418 703 q 434 714 429 703 q 439 735 439 725 q 424 779 439 756 q 386 803 410 803 m 424 692 q 413 685 417 692 q 408 672 408 679 q 411 658 408 665 q 421 651 414 651 q 440 671 440 651 q 437 685 440 678 q 424 692 433 692 m 368 435 q 364 422 361 431 q 369 410 368 414 q 376 399 371 406 q 388 374 385 388 q 401 364 390 361 q 417 376 413 365 q 415 406 422 388 q 392 432 406 425 q 368 435 379 439 z "},"g":{"ha":660,"x_min":19,"x_max":640,"o":"m 592 418 q 617 408 607 418 q 631 385 626 399 q 638 357 636 372 q 640 329 640 342 q 638 305 640 318 q 628 280 635 292 q 613 260 622 268 q 590 251 603 251 l 582 251 q 586 194 586 225 q 523 17 586 85 q 331 -51 460 -51 q 172 -21 233 -51 q 77 67 111 10 q 31 207 43 124 q 19 394 19 290 q 32 567 19 486 q 78 708 44 647 q 170 805 111 769 q 324 840 229 840 q 526 773 461 840 q 590 576 590 706 q 557 497 590 521 q 471 474 524 474 q 419 487 438 474 q 397 535 401 500 q 395 567 396 553 q 390 592 394 582 q 375 608 386 603 q 340 614 364 614 q 287 585 306 614 q 259 519 268 557 q 248 441 250 481 q 246 379 246 401 q 247 321 246 356 q 258 253 249 286 q 285 197 267 221 q 339 174 304 174 q 376 180 364 174 q 392 197 388 186 q 395 222 396 208 q 393 251 394 236 l 372 251 q 322 274 333 251 q 311 333 311 297 q 312 362 311 347 q 317 388 313 376 q 333 408 322 400 q 361 415 343 415 l 479 415 l 507 415 l 563 418 l 592 418 m 429 769 q 421 758 424 767 q 422 742 418 750 q 438 713 429 729 q 457 682 446 697 q 467 661 464 672 q 473 641 469 650 q 483 626 476 632 q 501 619 489 619 q 523 644 518 621 q 514 700 528 668 q 471 759 497 739 q 429 769 444 779 m 499 581 q 501 560 497 569 q 513 547 506 550 q 534 550 524 542 q 546 572 544 558 q 531 601 549 594 q 499 581 503 615 m 569 399 q 565 394 567 397 q 564 386 563 390 q 568 374 567 378 q 574 361 569 369 q 581 337 581 350 q 594 324 582 324 q 612 334 606 324 q 613 364 618 344 q 593 394 606 385 q 569 399 581 403 z "},"h":{"ha":657,"x_min":46,"x_max":617,"o":"m 46 324 l 46 393 l 47 532 l 47 601 q 50 685 47 646 q 64 751 53 724 q 98 795 75 779 q 160 811 121 811 q 247 790 215 811 q 279 711 279 769 q 276 596 279 653 q 274 481 274 539 q 331 481 303 481 q 389 483 360 482 l 389 522 l 386 601 q 385 621 385 611 q 385 640 385 631 q 388 703 385 671 q 404 763 392 736 q 440 806 417 789 q 503 824 464 824 q 565 813 542 824 q 599 782 588 801 q 613 735 610 763 q 617 675 617 708 l 617 522 l 614 215 q 613 140 613 178 q 613 63 613 101 q 582 -19 613 3 q 496 -42 551 -42 q 427 -22 451 -42 q 391 28 403 -3 q 377 94 379 58 q 375 164 375 131 q 378 221 375 192 q 381 278 381 250 l 272 275 q 277 199 272 236 q 282 122 282 161 q 279 62 282 92 q 266 10 276 32 q 233 -26 256 -12 q 171 -40 211 -40 q 122 -36 144 -40 q 82 -22 99 -32 q 56 8 65 -11 q 46 57 46 26 l 46 324 m 215 763 q 196 756 201 763 q 194 738 190 749 q 204 708 200 725 q 208 682 208 692 q 215 672 208 675 q 226 669 221 669 q 246 713 246 669 q 244 724 246 715 q 240 740 243 732 q 231 756 236 749 q 215 763 225 763 m 544 746 q 526 733 531 744 q 519 706 521 721 q 519 677 518 692 q 521 654 521 663 q 521 634 521 647 q 522 608 521 621 q 529 587 524 596 q 544 578 535 578 q 562 585 556 578 q 571 601 568 592 q 574 622 574 611 q 575 640 575 632 q 574 665 575 647 q 569 701 572 682 q 560 733 567 719 q 544 746 554 747 m 556 553 q 533 540 542 553 q 525 515 525 528 q 544 496 525 496 q 566 505 557 496 q 575 526 575 514 q 570 544 575 535 q 556 553 565 553 z "},"i":{"ha":436,"x_min":7,"x_max":418,"o":"m 354 819 q 395 788 378 821 q 413 708 413 754 q 392 625 413 658 q 340 592 372 592 l 321 592 q 330 392 329 496 q 324 192 331 288 q 418 88 418 192 q 385 -6 418 26 q 293 -39 353 -39 q 280 -39 288 -39 q 263 -37 272 -39 l 175 -35 q 156 -33 164 -33 q 143 -33 149 -33 q 47 1 81 -33 q 13 99 13 36 q 30 168 13 143 q 79 193 47 193 l 108 193 q 106 382 101 281 q 110 583 110 483 q 29 606 51 583 q 7 688 7 629 q 24 778 7 746 q 72 813 42 811 l 354 819 m 342 788 q 326 775 329 788 q 331 757 326 769 q 338 739 335 744 q 342 723 340 732 q 345 706 343 714 q 351 694 347 699 q 365 689 356 689 q 381 699 376 689 q 388 719 386 710 q 377 763 389 740 q 342 788 365 785 m 365 676 q 354 671 358 676 q 349 658 350 665 q 351 644 349 651 q 360 636 353 636 q 374 640 368 635 q 381 654 379 646 q 378 668 381 661 q 365 676 375 675 m 342 160 q 322 153 328 160 q 321 135 317 146 q 331 106 326 122 q 335 79 335 89 q 341 69 335 72 q 353 67 347 67 q 372 110 372 67 q 371 121 372 113 q 366 138 369 129 q 357 153 363 146 q 342 160 351 160 z "},"j":{"ha":497,"x_min":14,"x_max":458,"o":"m 14 128 q 19 165 14 144 q 37 203 25 186 q 68 233 49 221 q 115 246 88 246 q 148 234 138 246 q 165 208 158 222 q 178 181 171 193 q 199 169 185 169 q 218 174 211 169 q 228 194 225 179 q 234 288 235 243 q 231 381 233 333 l 221 661 q 245 785 218 747 q 338 824 272 824 q 426 803 393 824 q 458 724 458 782 q 456 468 458 601 q 453 196 453 335 q 435 101 453 149 q 387 18 418 54 q 311 -41 356 -18 q 213 -64 267 -64 q 135 -49 171 -64 q 72 -9 99 -35 q 29 51 44 17 q 14 128 14 86 m 389 756 q 370 742 375 754 q 364 716 365 731 q 364 687 363 701 q 365 664 365 672 q 365 644 365 657 q 367 618 365 631 q 374 597 368 606 q 389 588 379 588 q 406 594 400 588 q 415 611 413 601 q 419 631 418 621 q 419 650 419 642 q 418 674 419 657 q 414 710 417 692 q 405 743 411 729 q 389 756 399 757 m 400 563 q 378 550 386 563 q 369 525 369 538 q 389 506 369 506 q 410 515 401 506 q 419 536 419 524 q 415 553 419 544 q 400 563 410 563 z "},"k":{"ha":672,"x_min":39,"x_max":650,"o":"m 156 -33 q 66 -6 93 -33 q 39 85 39 22 l 39 711 q 73 792 39 765 q 156 818 107 818 q 228 801 199 818 q 267 735 258 783 q 276 629 276 676 q 264 515 275 582 q 314 571 293 540 q 351 635 335 601 q 382 702 368 668 q 410 768 396 736 q 449 812 425 801 q 507 822 472 822 q 547 814 526 822 q 585 792 568 806 q 614 760 603 778 q 625 721 625 742 q 623 705 625 713 q 618 690 621 697 q 585 596 604 644 q 542 502 565 547 q 489 419 518 457 q 425 357 460 382 q 449 316 433 340 q 483 268 464 292 q 522 228 501 244 q 560 208 542 211 q 629 181 608 203 q 650 97 650 158 q 519 -39 650 -39 q 476 -35 497 -39 q 436 -19 456 -32 q 392 28 417 -7 q 342 103 367 63 q 296 182 317 143 q 264 242 275 221 q 274 150 267 201 q 281 58 281 99 q 272 11 281 29 q 246 -17 263 -7 q 206 -30 229 -26 q 156 -33 183 -33 m 561 749 q 546 747 554 751 q 535 735 538 743 q 524 704 529 722 q 515 669 518 686 q 506 649 513 658 q 495 630 500 639 q 490 612 490 621 q 499 594 490 603 q 513 589 504 589 q 567 639 543 589 q 581 711 583 678 q 561 749 578 744 m 468 569 q 455 553 460 563 q 453 538 450 544 q 475 522 457 522 q 494 529 485 522 q 505 544 501 535 q 506 560 508 553 q 488 576 501 576 q 468 569 479 576 m 589 165 q 569 158 575 165 q 568 140 564 151 q 578 104 574 128 q 582 71 582 81 q 588 61 582 64 q 600 58 594 58 q 619 101 619 58 q 618 115 619 104 q 613 136 617 125 q 604 156 610 147 q 589 165 599 165 z "},"l":{"ha":497,"x_min":39,"x_max":472,"o":"m 136 -33 q 57 3 75 -33 q 39 117 39 39 l 39 607 q 42 721 39 678 q 56 788 44 764 q 93 819 68 811 q 163 826 118 826 q 213 822 192 826 q 246 806 233 818 q 264 771 258 793 q 269 711 269 749 q 270 542 269 628 q 271 350 271 457 q 270 313 271 335 q 267 267 269 290 q 261 224 265 244 q 250 188 257 203 l 392 211 q 429 203 414 215 q 454 171 444 192 q 468 123 464 150 q 472 69 472 96 q 462 9 472 29 q 432 -20 451 -11 q 387 -30 413 -29 q 329 -31 361 -31 l 297 -31 l 232 -33 l 200 -33 l 136 -33 m 200 756 q 181 742 186 754 q 175 716 176 731 q 175 687 174 701 q 176 664 176 672 q 176 644 176 657 q 178 618 176 631 q 185 597 179 606 q 200 588 190 588 q 217 594 211 588 q 226 611 224 601 q 230 631 229 621 q 231 650 231 642 q 229 674 231 657 q 225 710 228 692 q 216 743 222 729 q 200 756 210 757 m 211 563 q 189 550 197 563 q 181 525 181 538 q 200 506 181 506 q 222 515 213 506 q 231 536 231 524 q 226 553 231 544 q 211 563 221 563 m 392 175 q 372 168 378 175 q 371 150 367 161 q 376 132 374 144 q 380 107 378 119 q 383 83 382 94 q 385 67 385 71 q 391 57 385 60 q 403 54 397 54 q 422 97 422 54 q 421 113 422 100 q 416 139 419 125 q 407 164 413 153 q 392 175 401 175 z "},"m":{"ha":936,"x_min":39,"x_max":899,"o":"m 39 67 q 46 326 39 197 q 64 585 53 454 q 74 669 68 626 q 94 748 79 713 q 138 806 110 783 q 211 828 165 828 q 279 818 256 828 q 321 772 303 808 q 365 671 342 732 q 410 548 389 610 q 448 431 431 486 q 475 349 465 376 q 492 422 483 374 q 515 531 501 471 q 549 653 529 590 q 600 767 569 715 q 626 798 611 786 q 655 816 640 810 q 683 824 669 822 q 707 826 697 826 q 794 808 765 826 q 842 736 824 789 q 856 681 850 714 q 867 610 863 647 q 874 536 871 574 q 879 465 878 499 q 892 268 885 365 q 899 71 899 171 q 869 -16 899 6 q 779 -37 840 -37 q 723 -26 744 -37 q 690 8 701 -15 q 675 65 679 31 q 669 144 671 99 l 663 410 q 649 361 658 396 q 626 282 639 326 q 599 188 614 238 q 568 97 583 139 q 538 24 553 54 q 511 -14 524 -7 q 493 -19 504 -17 q 472 -22 482 -22 q 429 -7 447 -22 q 401 33 417 4 q 368 102 385 63 q 334 186 351 142 q 302 272 317 231 q 276 347 288 313 q 258 397 264 381 q 263 244 260 328 q 265 90 265 160 q 260 22 265 49 q 241 -21 256 -6 q 201 -42 226 -36 q 132 -49 175 -49 q 57 -19 75 -49 q 39 67 39 11 m 258 772 q 243 739 224 763 q 252 723 247 733 q 262 701 257 713 q 271 681 267 690 q 276 665 275 671 q 286 658 279 658 q 300 658 293 657 q 313 673 313 661 q 308 710 314 685 q 303 725 307 714 q 292 747 299 736 q 277 767 286 758 q 258 772 268 775 m 758 739 q 740 724 744 736 q 735 698 735 713 q 738 669 735 683 q 740 646 740 654 q 742 624 740 639 q 749 595 744 610 q 760 570 753 581 q 776 560 767 560 q 794 568 788 561 q 802 585 800 575 q 803 606 804 596 q 803 625 803 617 q 798 663 801 643 q 789 701 794 683 q 776 729 783 718 q 758 739 768 740 m 789 536 q 767 522 775 535 q 761 497 760 510 q 782 478 764 478 q 803 489 794 479 q 810 511 811 499 q 804 528 810 519 q 789 536 799 536 z "},"n":{"ha":708,"x_min":32,"x_max":669,"o":"m 163 -42 q 42 50 50 -42 q 33 292 32 163 q 42 578 35 422 q 49 681 44 636 q 67 757 54 726 q 103 803 81 788 q 164 819 126 819 q 221 808 193 819 q 268 774 249 796 q 285 750 276 764 q 301 720 293 736 q 315 689 308 704 q 326 661 321 674 q 353 595 339 633 q 382 517 367 557 q 413 441 397 478 q 444 378 429 404 q 444 463 444 415 q 442 556 443 510 q 440 642 440 603 q 439 704 439 682 q 470 796 439 771 q 542 821 501 821 q 631 790 596 821 q 667 713 667 760 q 668 542 667 628 q 669 372 669 456 q 665 208 668 288 q 651 57 661 128 q 640 10 647 28 q 621 -18 633 -8 q 590 -31 608 -28 q 544 -35 571 -35 q 478 -9 508 -35 q 422 53 447 17 q 376 128 396 89 q 340 193 356 167 q 298 277 321 229 q 261 369 275 325 q 263 297 263 336 q 265 216 264 257 q 265 135 265 175 q 265 63 265 96 q 243 -14 265 14 q 163 -42 221 -42 m 207 754 q 196 719 178 742 q 219 684 207 708 q 236 649 231 660 q 247 643 239 643 q 260 644 254 643 q 272 660 272 649 q 263 697 271 672 q 256 711 261 700 q 243 733 251 722 q 226 751 235 743 q 207 754 217 758 m 604 743 q 585 731 590 742 q 577 705 579 719 q 575 676 575 690 q 575 653 575 661 q 574 631 575 646 q 576 601 574 615 q 583 574 578 586 q 599 563 589 563 q 617 568 610 561 q 627 585 624 575 q 632 605 631 594 q 633 624 633 615 q 634 663 635 642 q 630 702 633 685 q 620 731 626 719 q 604 743 614 743 m 608 538 q 585 527 594 539 q 575 503 576 515 q 593 481 575 482 q 615 488 606 479 q 625 511 624 497 q 622 527 625 518 q 608 538 618 536 z "},"o":{"ha":704,"x_min":28,"x_max":676,"o":"m 347 -43 q 197 -21 258 -43 q 99 51 136 1 q 44 183 61 101 q 28 385 28 265 q 48 603 28 517 q 110 743 68 690 q 216 817 151 796 q 369 839 281 839 q 603 737 529 839 q 676 414 676 635 q 659 201 676 288 q 603 60 642 114 q 501 -19 564 6 q 347 -43 438 -43 m 451 758 q 441 746 444 754 q 442 731 438 738 q 455 716 444 724 q 478 699 465 708 q 503 677 490 690 q 526 647 517 664 q 534 628 531 639 q 542 608 538 617 q 552 592 546 599 q 568 586 558 586 q 591 608 588 586 q 583 658 594 631 q 556 705 574 683 q 518 740 538 726 q 481 760 499 754 q 451 758 463 765 m 261 356 q 262 300 261 331 q 271 244 263 269 q 297 201 279 218 q 350 183 315 183 q 412 208 392 183 q 440 267 432 232 q 447 340 447 301 q 446 408 446 379 q 420 551 446 500 q 350 603 394 603 q 297 574 315 603 q 271 505 279 544 q 262 423 263 465 q 261 356 261 381 m 567 549 q 567 530 564 539 q 578 518 571 521 q 597 519 588 513 q 608 538 606 526 q 606 554 610 546 q 596 565 603 563 q 577 567 585 572 q 567 549 569 563 z "},"p":{"ha":619,"x_min":39,"x_max":599,"o":"m 39 411 l 39 447 l 40 518 l 40 554 q 44 651 40 604 q 59 736 49 699 q 88 796 69 774 q 133 818 106 818 l 164 818 l 226 821 q 384 814 315 821 q 501 778 453 807 q 574 690 549 749 q 599 528 599 631 q 586 379 599 443 q 541 272 574 315 q 453 208 508 229 q 310 188 397 188 q 288 188 299 188 q 265 190 276 189 l 265 179 q 269 132 265 158 q 274 85 274 106 q 272 31 274 56 q 260 -10 269 7 q 231 -35 251 -26 q 172 -44 210 -44 q 123 -40 147 -44 q 80 -24 99 -36 q 50 7 61 -12 q 39 57 39 26 l 39 411 m 410 751 q 399 741 403 749 q 397 725 394 733 q 408 710 400 718 q 428 690 417 701 q 451 665 440 679 q 471 633 463 651 q 476 613 475 624 q 481 592 478 601 q 490 575 485 582 q 506 567 496 568 q 531 587 525 564 q 529 638 536 610 q 507 687 522 664 q 474 726 492 710 q 439 749 457 742 q 410 751 421 757 m 276 371 q 375 405 344 374 q 406 506 406 436 q 384 579 406 547 q 317 611 363 611 q 295 611 306 611 q 274 610 285 611 q 278 490 281 550 q 276 371 276 431 m 500 531 q 507 499 493 508 q 526 498 515 492 q 540 514 538 504 q 540 531 543 522 q 531 543 538 539 q 512 547 521 550 q 500 531 503 543 z "},"q":{"ha":726,"x_min":28,"x_max":682,"o":"m 636 107 q 660 97 651 107 q 674 74 669 88 q 681 45 679 61 q 682 17 682 29 q 667 -27 682 -4 q 626 -53 653 -50 q 554 -58 590 -56 q 482 -60 518 -60 q 362 -54 419 -60 q 260 -37 304 -49 q 258 -37 258 -37 q 256 -36 257 -36 q 79 88 131 -14 q 28 385 28 189 q 48 603 28 517 q 110 743 68 690 q 216 817 151 796 q 369 839 281 839 q 507 814 449 839 q 603 732 565 789 q 658 581 640 675 q 676 350 676 488 q 655 219 676 282 q 597 106 633 157 q 618 106 608 106 q 636 107 628 107 m 451 758 q 441 746 444 754 q 442 731 438 738 q 455 716 444 724 q 478 699 465 708 q 503 677 490 690 q 526 647 517 664 q 534 628 531 639 q 542 608 538 617 q 552 592 546 599 q 568 586 558 586 q 591 608 588 586 q 583 658 594 631 q 556 705 574 683 q 518 740 538 726 q 481 760 499 754 q 451 758 463 765 m 261 356 q 262 300 261 331 q 271 244 263 269 q 297 201 279 218 q 350 183 315 183 q 412 208 392 183 q 440 267 432 232 q 447 340 447 301 q 446 408 446 379 q 420 551 446 500 q 350 603 394 603 q 297 574 315 603 q 271 505 279 544 q 262 423 263 465 q 261 356 261 381 m 567 549 q 567 530 564 539 q 578 518 571 521 q 597 519 588 513 q 608 538 606 526 q 606 554 610 546 q 596 565 603 563 q 577 567 585 572 q 567 549 569 563 m 618 82 q 615 78 617 81 q 613 71 613 75 q 617 60 615 64 q 622 50 618 57 q 627 29 626 40 q 639 18 628 18 q 653 27 647 18 q 654 51 658 36 q 639 78 649 71 q 618 82 629 85 z "},"r":{"ha":644,"x_min":39,"x_max":639,"o":"m 39 411 l 39 447 l 40 518 l 40 554 q 44 651 40 604 q 60 736 49 699 q 93 796 72 774 q 146 818 114 818 q 197 819 168 818 q 257 821 225 821 q 408 810 343 821 q 515 769 472 800 q 578 680 557 738 q 599 528 599 622 q 592 453 599 492 q 572 376 586 414 q 533 306 557 339 q 471 250 508 274 q 512 213 490 229 q 553 194 533 197 q 585 189 569 193 q 613 174 600 185 q 632 146 625 164 q 639 97 639 128 q 508 -39 639 -39 q 465 -35 486 -39 q 425 -19 444 -32 q 387 19 408 -8 q 344 81 365 47 q 303 151 322 115 q 269 213 283 186 l 265 213 l 265 201 q 267 176 265 192 q 269 143 268 160 q 272 111 271 126 q 274 85 274 96 q 272 31 274 56 q 260 -10 269 7 q 231 -35 251 -26 q 172 -44 210 -44 q 123 -40 147 -44 q 80 -24 99 -36 q 50 7 61 -12 q 39 57 39 26 l 39 411 m 410 751 q 399 741 403 749 q 397 725 394 733 q 408 710 400 718 q 428 690 417 701 q 451 665 440 679 q 471 633 463 651 q 476 613 475 624 q 481 592 478 601 q 490 575 485 582 q 506 567 496 568 q 531 587 525 564 q 529 638 536 610 q 507 687 522 664 q 474 726 492 710 q 439 749 457 742 q 410 751 421 757 m 276 393 q 335 399 310 394 q 375 417 360 404 q 398 450 390 429 q 406 506 406 471 q 384 579 406 547 q 317 611 363 611 q 295 611 306 611 q 274 610 285 611 q 278 501 281 550 q 276 393 276 453 m 500 531 q 507 499 493 508 q 526 498 515 492 q 540 514 538 504 q 540 531 543 522 q 531 543 538 539 q 512 547 521 550 q 500 531 503 543 m 578 165 q 558 158 564 165 q 557 140 553 151 q 567 104 563 128 q 571 71 571 81 q 577 61 571 64 q 589 58 583 58 q 608 101 608 58 q 607 115 608 104 q 602 136 606 125 q 593 156 599 147 q 578 165 588 165 z "},"s":{"ha":642,"x_min":15,"x_max":621,"o":"m 189 274 q 207 235 201 251 q 232 200 213 219 q 264 184 239 193 q 325 175 289 175 q 374 184 357 175 q 390 207 390 193 q 357 229 390 211 q 278 271 324 247 q 194 317 238 292 q 113 378 150 343 q 53 460 76 413 q 29 572 29 507 q 51 682 29 632 q 113 769 74 732 q 207 826 153 806 q 325 846 261 846 q 444 823 393 846 q 531 765 496 800 q 583 689 565 729 q 601 613 601 649 q 578 511 601 550 q 494 472 554 472 q 416 494 435 472 q 400 560 397 515 q 387 615 403 600 q 329 629 371 629 q 275 612 297 629 q 253 568 253 594 q 265 539 253 553 q 299 512 278 525 q 347 485 319 499 q 404 460 374 472 q 481 422 443 442 q 551 375 519 403 q 601 309 582 347 q 621 215 621 271 q 596 110 621 157 q 528 31 571 64 q 431 -19 486 -1 q 317 -36 376 -36 q 207 -15 261 -36 q 110 42 153 6 q 42 128 68 78 q 15 236 15 178 q 117 326 15 326 q 161 310 140 326 q 189 274 182 293 m 418 781 q 411 768 413 776 q 415 753 410 760 q 433 726 422 742 q 457 697 444 711 q 469 678 465 689 q 478 659 474 668 q 490 645 483 650 q 510 642 497 640 q 528 669 526 644 q 511 724 529 693 q 460 776 489 760 q 418 781 432 792 m 513 603 q 531 572 513 579 q 551 578 542 569 q 560 601 561 588 q 540 628 560 624 q 513 603 513 638 z "},"t":{"ha":546,"x_min":7,"x_max":539,"o":"m 175 586 q 103 585 135 586 q 51 592 72 583 q 18 626 29 600 q 7 706 7 651 q 16 778 7 754 q 44 810 25 801 q 94 817 64 818 q 164 817 124 817 q 266 819 215 818 q 368 821 317 821 l 471 821 q 525 794 511 821 q 539 704 539 767 q 516 613 539 642 q 429 586 493 583 l 383 586 q 389 328 381 456 q 397 71 397 201 q 371 -12 397 10 q 274 -35 344 -35 q 177 -7 203 -35 q 154 71 151 21 q 163 328 161 201 q 175 586 165 456 m 472 788 q 457 775 460 788 q 460 757 457 769 q 467 739 464 744 q 471 723 469 732 q 475 706 472 714 q 482 694 478 699 q 496 689 486 689 q 511 699 507 689 q 517 719 515 710 q 507 763 518 740 q 472 788 496 785 m 496 676 q 485 671 489 676 q 479 658 481 665 q 481 643 479 651 q 490 635 483 635 q 503 640 499 633 q 510 654 508 646 q 508 668 510 661 q 496 676 506 675 z "},"u":{"ha":663,"x_min":38,"x_max":625,"o":"m 324 -43 q 194 -20 247 -43 q 110 44 142 3 q 63 144 78 86 q 46 274 49 203 q 40 460 43 367 q 38 647 38 553 q 40 715 38 683 q 54 769 43 746 q 90 805 65 792 q 157 818 114 818 q 244 785 219 818 q 269 693 269 753 l 269 296 q 272 269 269 283 q 281 242 275 254 q 298 221 288 229 q 325 213 308 213 q 378 239 360 213 q 406 302 397 265 q 415 377 414 339 q 417 439 417 415 q 416 494 417 467 q 415 550 415 522 l 413 624 q 412 679 413 651 q 411 735 411 707 q 442 799 411 779 q 513 818 472 818 q 583 784 560 818 q 616 702 607 750 q 624 603 625 654 q 624 519 624 553 q 623 433 624 476 q 621 346 622 390 q 608 188 619 260 q 566 65 597 117 q 477 -15 535 14 q 324 -43 419 -43 m 551 756 q 533 742 538 754 q 526 716 528 731 q 526 687 525 701 q 528 664 528 672 q 528 644 528 657 q 529 618 528 631 q 536 597 531 606 q 551 588 542 588 q 569 594 563 588 q 578 611 575 601 q 581 631 581 621 q 582 650 582 642 q 581 674 582 657 q 576 710 579 692 q 567 743 574 729 q 551 756 561 757 m 563 563 q 540 550 549 563 q 532 525 532 538 q 551 506 532 506 q 573 515 564 506 q 582 536 582 524 q 577 553 582 544 q 563 563 572 563 z "},"v":{"ha":671,"x_min":38,"x_max":656,"o":"m 340 -43 q 288 -40 310 -43 q 249 -30 265 -37 q 222 -9 233 -22 q 199 25 210 4 q 177 90 192 38 q 145 214 163 142 q 108 369 128 286 q 74 525 89 451 q 48 653 58 599 q 38 724 38 707 q 44 777 38 757 q 64 807 50 797 q 100 819 78 817 q 153 822 122 822 q 217 813 193 822 q 261 764 242 803 q 274 719 267 753 q 288 638 281 685 q 304 538 296 592 q 319 435 313 485 q 333 345 326 386 q 343 283 339 304 q 396 516 371 401 q 444 749 421 631 q 456 787 449 772 q 473 809 463 801 q 499 819 483 817 q 539 822 515 822 q 577 816 557 822 q 615 799 597 810 q 644 772 632 788 q 656 735 656 756 q 644 665 656 718 q 616 539 633 611 q 578 385 599 467 q 537 230 557 303 q 501 103 517 157 q 476 32 485 49 q 427 -27 457 -11 q 340 -43 397 -43 m 586 774 q 565 770 574 776 q 556 749 556 764 q 559 724 556 739 q 563 693 563 710 q 560 669 563 681 q 555 646 557 657 q 556 625 553 635 q 568 608 558 615 q 594 615 583 597 q 611 668 604 633 q 613 740 621 708 q 586 774 606 771 m 207 768 q 194 758 197 765 q 191 741 190 750 q 194 723 192 732 q 199 707 197 714 q 201 692 200 701 q 206 676 203 683 q 215 663 210 668 q 228 658 219 657 q 241 665 238 660 q 246 676 244 669 q 246 690 247 682 q 243 703 244 697 q 240 720 243 708 q 233 743 238 732 q 222 763 228 754 q 207 768 215 771 m 238 639 q 221 626 226 636 q 218 606 215 615 q 236 592 219 589 q 252 602 246 594 q 256 619 258 610 q 249 633 254 626 q 238 639 244 640 m 543 578 q 533 560 536 569 q 535 543 531 550 q 554 533 540 533 q 576 543 568 533 q 584 559 583 550 q 582 575 585 568 q 564 589 572 589 q 543 578 554 589 z "},"w":{"ha":838,"x_min":21,"x_max":815,"o":"m 194 -35 q 119 -7 146 -35 q 81 65 93 21 q 52 200 63 128 q 35 345 42 272 q 26 485 29 418 q 22 606 24 553 q 22 697 21 656 q 31 767 22 738 q 58 813 39 797 q 113 829 78 829 q 163 822 136 829 q 206 789 190 814 q 219 744 213 776 q 230 669 225 711 q 239 578 235 626 q 245 486 243 531 q 249 406 247 442 q 250 353 250 369 q 263 395 254 365 q 282 464 271 425 q 306 546 293 503 q 332 626 319 589 q 356 690 344 663 q 374 724 367 717 q 396 735 382 732 q 422 739 410 739 q 448 736 436 739 q 469 725 460 733 q 492 690 479 717 q 517 626 504 663 q 543 548 531 589 q 566 470 556 507 q 585 404 576 433 q 596 363 593 375 q 599 456 597 403 q 601 560 600 510 q 603 649 601 610 q 606 697 604 688 q 614 749 608 725 q 631 791 619 774 q 663 818 643 808 q 715 828 683 828 q 794 803 772 828 q 815 724 815 779 q 808 560 815 644 q 788 392 800 475 q 764 235 776 310 q 742 100 751 160 q 730 43 736 68 q 713 1 724 18 q 683 -26 701 -17 q 635 -35 664 -35 q 578 -27 604 -35 q 528 0 551 -19 q 506 33 518 8 q 482 90 494 57 q 458 160 469 122 q 436 233 446 197 q 418 298 426 268 q 404 343 410 328 q 383 267 397 319 q 353 160 369 215 q 321 58 338 104 q 289 0 304 11 q 244 -27 263 -19 q 194 -35 225 -35 m 157 792 q 133 779 136 793 q 137 761 133 774 q 143 743 140 749 q 148 727 146 736 q 152 710 150 718 q 159 696 154 701 q 174 690 164 690 q 188 703 185 690 q 192 726 192 717 q 181 769 192 749 q 157 792 171 789 m 757 774 q 735 770 744 776 q 726 749 726 764 q 730 724 726 739 q 733 693 733 710 q 731 666 733 681 q 730 639 729 651 q 735 617 731 626 q 751 608 739 608 q 775 625 769 608 q 781 694 781 642 q 776 747 781 722 q 757 774 772 771 m 174 678 q 163 672 167 678 q 157 660 158 667 q 159 644 157 653 q 168 636 161 636 q 181 641 176 635 q 188 656 186 647 q 185 669 188 663 q 174 678 183 676 m 726 578 q 717 560 719 569 q 718 543 714 550 q 738 533 724 533 q 760 543 751 533 q 767 559 767 550 q 765 575 768 568 q 747 589 756 589 q 726 578 738 589 z "},"x":{"ha":685,"x_min":14,"x_max":671,"o":"m 19 103 q 56 178 33 143 q 104 248 78 214 q 157 316 131 282 q 206 385 183 350 q 168 444 190 410 q 122 515 146 478 q 76 588 99 551 q 39 651 54 624 q 17 715 21 685 q 24 767 14 744 q 54 803 33 789 q 104 821 75 817 q 147 818 128 824 q 181 801 165 813 q 209 775 196 790 q 233 743 222 760 q 284 653 260 706 q 336 551 308 600 q 372 622 357 588 q 407 693 388 656 q 431 740 419 718 q 457 779 443 763 q 490 806 471 796 q 539 815 510 815 q 613 790 583 815 q 643 717 643 765 q 619 644 643 690 q 564 548 596 597 q 499 453 532 499 q 450 383 467 408 q 481 327 465 360 q 516 263 497 294 q 555 208 535 232 q 596 178 575 185 q 653 134 636 167 q 671 69 671 101 q 660 10 671 32 q 634 -23 650 -12 q 600 -36 618 -33 q 565 -39 582 -39 q 510 -35 533 -39 q 470 -22 488 -31 q 440 1 453 -12 q 417 32 428 14 q 368 126 386 78 q 322 224 350 175 q 293 167 307 197 q 264 105 279 136 q 232 45 249 74 q 194 -4 215 17 q 125 -35 165 -35 q 43 -10 72 -35 q 14 74 14 15 q 16 90 14 79 q 19 103 18 100 m 592 757 q 577 753 585 758 q 567 740 569 747 q 559 715 563 729 q 549 685 556 700 q 528 649 539 665 q 533 615 518 632 q 546 610 539 610 q 570 622 557 610 q 593 657 583 635 q 608 724 608 693 q 592 757 608 754 m 507 593 q 495 579 500 588 q 493 564 490 571 q 514 549 497 549 q 531 556 521 549 q 540 568 538 560 q 539 583 542 576 q 522 600 535 600 q 507 593 517 600 m 610 140 q 594 132 599 139 q 594 117 590 125 q 604 85 600 106 q 610 57 608 65 q 615 50 610 51 q 626 49 621 49 q 638 86 642 49 q 636 98 638 89 q 631 117 635 107 q 623 133 628 126 q 610 140 618 140 z "},"y":{"ha":628,"x_min":26,"x_max":606,"o":"m 256 274 q 130 297 175 274 q 63 363 85 321 q 35 460 40 404 q 29 583 29 517 l 31 596 l 31 601 q 28 663 31 625 q 33 735 26 700 q 58 796 39 771 q 119 821 76 821 q 128 822 124 821 l 142 822 q 213 808 188 822 q 254 750 238 794 q 263 703 263 728 q 257 610 263 656 q 251 517 251 564 q 266 483 251 489 q 304 476 281 476 q 342 485 328 476 q 365 507 357 493 q 376 540 374 521 q 379 578 379 558 q 374 653 379 615 q 369 728 369 690 q 381 774 369 756 q 412 802 393 792 q 454 817 431 813 q 500 822 478 822 q 575 802 544 822 q 606 733 606 782 q 599 559 606 646 q 593 385 593 472 q 594 354 593 369 q 594 324 594 339 l 597 283 q 598 253 597 268 q 599 222 599 238 q 577 94 599 146 q 515 11 556 43 q 417 -35 475 -21 q 289 -49 360 -49 q 106 10 178 -49 q 51 68 75 33 q 26 146 26 103 q 37 184 26 165 q 64 217 47 203 q 101 240 81 232 q 139 249 121 249 q 164 241 153 249 q 182 222 175 233 q 237 170 204 188 q 308 153 269 153 q 351 168 336 153 q 374 206 367 183 q 383 253 381 228 q 385 299 385 279 q 385 312 385 306 q 383 326 385 318 q 324 288 357 303 q 256 274 292 274 m 199 761 q 181 754 186 761 q 175 739 176 747 q 174 722 174 731 q 174 707 174 713 q 173 694 174 703 q 174 676 172 685 q 180 661 175 668 q 193 654 185 654 q 217 667 213 653 q 224 690 222 681 q 221 737 226 713 q 199 761 215 761 m 544 758 q 525 746 531 757 q 517 720 519 735 q 515 691 515 706 q 515 668 515 676 q 515 646 515 661 q 516 616 514 631 q 524 590 518 601 q 539 578 529 578 q 557 583 550 576 q 567 600 564 590 q 572 620 571 610 q 574 639 574 631 q 574 678 575 657 q 570 717 574 700 q 560 747 567 735 q 544 758 554 758 m 549 553 q 526 542 535 554 q 515 518 517 531 q 533 496 515 497 q 555 503 546 494 q 565 526 564 513 q 562 542 565 533 q 549 553 558 551 z "},"z":{"ha":622,"x_min":21,"x_max":607,"o":"m 117 -47 q 69 -33 88 -47 q 40 2 50 -19 q 25 49 29 24 q 21 96 21 74 q 69 257 21 183 q 133 348 99 301 q 206 440 168 394 q 283 529 244 486 q 358 608 322 572 q 242 591 296 597 q 129 585 189 585 q 54 618 74 585 q 35 708 35 651 q 52 796 35 765 q 119 826 69 826 q 304 823 219 826 q 489 814 389 819 q 562 779 535 811 q 589 703 589 747 q 588 663 589 686 q 582 617 586 640 q 572 573 578 594 q 558 536 567 551 q 497 433 531 486 q 426 329 463 379 q 349 234 389 279 q 272 154 310 189 q 328 174 296 165 q 395 188 360 182 q 467 197 431 193 q 535 200 503 200 q 590 167 574 200 q 607 71 607 133 q 590 -10 607 13 q 529 -33 574 -33 q 323 -40 429 -33 q 117 -47 217 -47 m 503 771 q 488 758 490 771 q 491 740 488 753 q 497 722 494 728 q 501 706 500 715 q 506 690 503 697 q 513 677 508 682 q 526 672 517 672 q 542 683 538 672 q 547 703 546 693 q 538 746 549 724 q 503 771 526 768 m 526 660 q 515 654 519 660 q 510 642 511 649 q 512 626 510 635 q 521 618 514 618 q 534 623 529 617 q 540 638 539 629 q 538 651 540 644 q 526 660 536 658 m 546 163 q 531 154 535 161 q 531 139 526 147 q 540 108 536 128 q 546 79 544 88 q 551 72 546 74 q 563 71 557 71 q 574 108 578 71 q 572 120 574 111 q 567 139 571 129 q 559 156 564 149 q 546 163 554 163 z "},"":{"ha":1150,"x_min":63,"x_max":1088,"o":"m 321 113 q 289 3 321 44 q 186 -37 257 -37 q 91 1 119 -37 q 63 101 63 39 q 93 203 63 161 q 186 244 124 244 q 321 113 321 244 m 704 113 q 672 3 704 44 q 569 -37 640 -37 q 474 1 503 -37 q 446 101 446 39 q 476 203 446 161 q 569 244 507 244 q 704 113 704 244 m 1088 113 q 1056 3 1088 44 q 953 -37 1024 -37 q 858 1 886 -37 q 829 101 829 39 q 860 203 829 161 q 953 244 890 244 q 1088 113 1088 244 m 239 199 q 222 188 225 199 q 226 168 222 181 q 233 150 231 156 q 238 135 236 143 q 241 119 239 126 q 247 106 243 111 q 261 101 251 101 q 278 111 274 101 q 283 131 283 121 q 274 174 285 151 q 239 199 263 197 m 622 199 q 606 188 608 199 q 610 168 606 181 q 617 150 614 156 q 621 135 619 143 q 624 119 622 126 q 631 106 626 111 q 646 101 636 101 q 662 111 657 101 q 667 131 667 121 q 657 174 668 151 q 622 199 646 197 m 1006 199 q 989 188 992 199 q 993 168 989 181 q 1000 150 997 156 q 1004 135 1003 143 q 1008 119 1006 126 q 1014 106 1010 111 q 1028 101 1018 101 q 1045 111 1040 101 q 1050 131 1050 121 q 1040 174 1051 151 q 1006 199 1029 197 m 260 88 q 248 80 253 88 q 242 65 243 72 q 244 48 242 58 q 254 38 246 38 q 271 42 265 35 q 278 58 276 49 q 275 76 279 68 q 260 88 271 85 m 643 88 q 631 80 636 88 q 625 65 626 72 q 627 48 625 58 q 638 38 629 38 q 654 42 649 35 q 661 58 660 49 q 658 76 663 68 q 643 88 654 85 m 1026 88 q 1015 80 1019 88 q 1008 65 1010 72 q 1010 48 1008 58 q 1021 38 1013 38 q 1038 42 1032 35 q 1044 58 1043 49 q 1042 76 1046 68 q 1026 88 1038 85 z "},"":{"ha":408,"x_min":96,"x_max":329,"o":"m 107 646 q 115 692 107 669 q 138 731 124 714 q 174 760 153 749 q 218 771 194 771 q 296 737 267 771 q 325 656 325 703 q 299 573 325 607 q 219 539 272 539 q 140 568 172 539 q 107 646 107 597 m 238 743 q 226 733 228 739 q 227 720 225 726 q 233 708 229 714 q 239 699 238 703 q 251 677 242 692 q 276 664 261 663 q 288 669 285 664 q 291 681 292 675 q 288 694 290 688 q 285 706 286 701 q 263 737 276 725 q 238 743 250 749 m 279 654 q 272 644 272 651 q 275 631 272 638 q 281 622 276 626 q 294 621 286 617 q 305 634 306 625 q 301 649 304 643 q 279 654 293 661 m 329 -26 q 299 -100 329 -74 q 221 -126 268 -126 q 129 -104 163 -126 q 96 -32 96 -82 q 101 101 96 31 q 113 234 107 171 q 124 347 119 297 q 129 418 129 397 q 153 485 129 460 q 219 510 178 510 q 281 485 263 510 q 300 419 300 460 q 305 348 300 397 q 315 236 310 299 q 324 104 319 174 q 329 -26 329 35 m 300 8 q 283 1 289 11 q 271 -19 278 -8 q 258 -37 264 -29 q 253 -50 253 -44 q 271 -72 250 -72 q 291 -65 283 -75 q 303 -42 299 -56 q 306 -31 304 -39 q 307 -15 307 -24 q 306 0 307 -7 q 300 8 304 7 z "},"":{"ha":649,"x_min":44,"x_max":607,"o":"m 232 640 q 239 685 232 663 q 260 724 246 707 q 294 752 274 742 q 344 763 315 763 q 420 728 393 763 q 447 649 447 694 q 422 568 447 601 q 346 535 396 535 q 267 564 301 535 q 232 640 232 593 m 361 729 q 350 719 351 725 q 351 708 349 714 q 358 697 353 703 q 364 688 363 692 q 376 665 367 681 q 400 651 385 650 q 412 657 408 651 q 415 669 415 663 q 413 683 415 676 q 410 694 411 690 q 388 725 401 714 q 361 729 374 736 m 403 640 q 396 631 396 638 q 399 618 396 625 q 405 608 400 613 q 418 607 410 603 q 428 621 428 613 q 425 635 428 629 q 403 640 418 649 m 325 68 q 379 81 360 68 q 409 111 399 93 q 424 151 419 129 q 437 192 429 174 q 458 222 444 210 q 497 235 471 235 q 574 203 540 235 q 607 126 607 171 q 583 24 607 71 q 518 -58 558 -24 q 427 -113 478 -93 q 324 -133 376 -133 q 216 -122 267 -133 q 128 -83 165 -111 q 67 -9 90 -56 q 44 107 44 38 q 58 194 44 160 q 91 253 71 229 q 136 292 111 276 q 185 324 161 308 q 229 357 210 339 q 257 403 249 375 q 268 442 264 422 q 280 478 272 463 q 302 504 288 494 q 344 514 317 514 q 406 494 378 514 q 435 433 435 475 q 422 329 435 371 q 388 260 408 288 q 344 215 368 232 q 301 184 321 199 q 267 155 281 169 q 254 118 254 140 q 269 79 254 90 q 325 68 285 68 m 518 201 q 509 189 508 197 q 515 172 510 181 q 528 154 521 163 q 539 142 535 146 q 544 133 542 139 q 551 120 547 126 q 561 110 556 114 q 574 106 567 106 q 589 126 592 107 q 572 168 586 146 q 563 179 569 172 q 549 192 557 186 q 533 201 542 197 q 518 201 525 204 z "},"":{"ha":436,"x_min":7,"x_max":418,"o":"m 354 819 q 395 788 378 821 q 413 708 413 754 q 392 625 413 658 q 340 592 372 592 l 321 592 q 330 392 329 496 q 324 192 331 288 q 418 88 418 192 q 385 -6 418 26 q 293 -39 353 -39 q 280 -39 288 -39 q 263 -37 272 -39 l 175 -35 q 156 -33 164 -33 q 143 -33 149 -33 q 47 1 81 -33 q 13 99 13 36 q 30 168 13 143 q 79 193 47 193 l 108 193 q 106 382 101 281 q 110 583 110 483 q 29 606 51 583 q 7 688 7 629 q 24 778 7 746 q 72 813 42 811 l 354 819 m 342 788 q 326 775 329 788 q 331 757 326 769 q 338 739 335 744 q 342 723 340 732 q 345 706 343 714 q 351 694 347 699 q 365 689 356 689 q 381 699 376 689 q 388 719 386 710 q 377 763 389 740 q 342 788 365 785 m 365 676 q 354 671 358 676 q 349 658 350 665 q 351 644 349 651 q 360 636 353 636 q 374 640 368 635 q 381 654 379 646 q 378 668 381 661 q 365 676 375 675 m 342 160 q 322 153 328 160 q 321 135 317 146 q 331 106 326 122 q 335 79 335 89 q 341 69 335 72 q 353 67 347 67 q 372 110 372 67 q 371 121 372 113 q 366 138 369 129 q 357 153 363 146 q 342 160 351 160 z "},"":{"ha":933,"x_min":39,"x_max":915,"o":"m 39 65 l 39 193 l 40 453 l 40 581 q 41 699 40 654 q 51 768 42 743 q 81 802 60 793 q 142 815 101 811 q 274 826 208 822 q 407 831 340 831 q 470 799 454 831 q 486 714 486 767 q 484 679 486 699 q 475 643 482 660 q 456 615 468 626 q 424 601 443 603 l 263 593 l 258 440 q 310 456 283 450 q 364 463 336 463 q 411 451 393 463 q 438 422 429 440 q 451 381 447 404 q 454 335 454 358 q 431 268 454 286 q 364 244 408 250 q 312 235 338 242 q 260 229 286 229 q 264 165 260 201 q 268 101 268 129 q 265 39 268 67 q 250 -8 263 11 q 213 -36 238 -26 q 147 -46 189 -46 q 60 -23 82 -46 q 39 65 39 0 m 851 819 q 892 788 875 821 q 910 708 910 754 q 890 625 910 658 q 838 592 869 592 l 818 592 q 827 392 826 496 q 821 192 828 288 q 915 88 915 192 q 883 -6 915 26 q 790 -39 850 -39 q 777 -39 785 -39 q 760 -37 769 -39 l 672 -35 q 653 -33 661 -33 q 640 -33 646 -33 q 544 1 578 -33 q 510 99 510 36 q 527 168 510 143 q 576 193 544 193 l 606 193 q 603 382 599 281 q 607 583 607 483 q 526 606 549 583 q 504 688 504 629 q 522 778 504 746 q 569 813 539 811 l 851 819 m 386 803 q 372 789 372 803 q 378 769 372 783 q 388 750 385 756 q 396 721 394 736 q 415 703 397 706 l 418 703 q 434 714 429 703 q 439 735 439 725 q 424 779 439 756 q 386 803 410 803 m 839 788 q 824 775 826 788 q 828 757 824 769 q 835 739 832 744 q 839 723 838 732 q 842 706 840 714 q 849 694 844 699 q 863 689 853 689 q 878 699 874 689 q 885 719 883 710 q 874 763 886 740 q 839 788 863 785 m 424 692 q 413 685 417 692 q 408 672 408 679 q 411 658 408 665 q 421 651 414 651 q 440 671 440 651 q 437 685 440 678 q 424 692 433 692 m 863 676 q 851 671 856 676 q 846 658 847 665 q 848 644 846 651 q 857 636 850 636 q 871 640 865 635 q 878 654 876 646 q 875 668 878 661 q 863 676 872 675 m 368 435 q 364 422 361 431 q 369 410 368 414 q 376 399 371 406 q 388 374 385 388 q 401 364 390 361 q 417 376 413 365 q 415 406 422 388 q 392 432 406 425 q 368 435 379 439 m 839 160 q 819 153 825 160 q 818 135 814 146 q 828 106 824 122 q 832 79 832 89 q 838 69 832 72 q 850 67 844 67 q 869 110 869 67 q 868 121 869 113 q 863 138 867 129 q 854 153 860 146 q 839 160 849 160 z "},"":{"ha":994,"x_min":39,"x_max":969,"o":"m 39 65 l 39 193 l 40 453 l 40 581 q 41 699 40 654 q 51 768 42 743 q 81 802 60 793 q 142 815 101 811 q 274 826 208 822 q 407 831 340 831 q 470 799 454 831 q 486 714 486 767 q 484 679 486 699 q 475 643 482 660 q 456 615 468 626 q 424 601 443 603 l 263 593 l 258 440 q 310 456 283 450 q 364 463 336 463 q 411 451 393 463 q 438 422 429 440 q 451 381 447 404 q 454 335 454 358 q 431 268 454 286 q 364 244 408 250 q 312 235 338 242 q 260 229 286 229 q 264 165 260 201 q 268 101 268 129 q 265 39 268 67 q 250 -8 263 11 q 213 -36 238 -26 q 147 -46 189 -46 q 60 -23 82 -46 q 39 65 39 0 m 633 -33 q 554 3 572 -33 q 536 117 536 39 l 536 607 q 539 721 536 678 q 553 788 542 764 q 590 819 565 811 q 660 826 615 826 q 710 822 689 826 q 743 806 731 818 q 761 771 756 793 q 767 711 767 749 q 767 542 767 628 q 768 350 768 457 q 767 313 768 335 q 765 267 767 290 q 758 224 763 244 q 747 188 754 203 l 889 211 q 926 203 911 215 q 951 171 942 192 q 965 123 961 150 q 969 69 969 96 q 959 9 969 29 q 929 -20 949 -11 q 884 -30 910 -29 q 826 -31 858 -31 l 794 -31 l 729 -33 l 697 -33 l 633 -33 m 386 803 q 372 789 372 803 q 378 769 372 783 q 388 750 385 756 q 396 721 394 736 q 415 703 397 706 l 418 703 q 434 714 429 703 q 439 735 439 725 q 424 779 439 756 q 386 803 410 803 m 697 756 q 678 742 683 754 q 672 716 674 731 q 672 687 671 701 q 674 664 674 672 q 674 644 674 657 q 675 618 674 631 q 682 597 676 606 q 697 588 688 588 q 715 594 708 588 q 724 611 721 601 q 727 631 726 621 q 728 650 728 642 q 726 674 728 657 q 722 710 725 692 q 713 743 719 729 q 697 756 707 757 m 424 692 q 413 685 417 692 q 408 672 408 679 q 411 658 408 665 q 421 651 414 651 q 440 671 440 651 q 437 685 440 678 q 424 692 433 692 m 708 563 q 686 550 694 563 q 678 525 678 538 q 697 506 678 506 q 719 515 710 506 q 728 536 728 524 q 723 553 728 544 q 708 563 718 563 m 368 435 q 364 422 361 431 q 369 410 368 414 q 376 399 371 406 q 388 374 385 388 q 401 364 390 361 q 417 376 413 365 q 415 406 422 388 q 392 432 406 425 q 368 435 379 439 m 889 175 q 869 168 875 175 q 868 150 864 161 q 873 132 871 144 q 877 107 875 119 q 881 83 879 94 q 882 67 882 71 q 888 57 882 60 q 900 54 894 54 q 919 97 919 54 q 918 113 919 100 q 913 139 917 125 q 904 164 910 153 q 889 175 899 175 z "},"":{"ha":658,"x_min":7,"x_max":651,"o":"m 479 926 q 472 904 479 918 q 455 877 465 890 q 433 854 444 864 q 411 844 421 844 q 350 862 389 844 q 274 906 311 879 q 208 965 236 933 q 181 1024 181 996 q 190 1055 181 1039 q 215 1083 200 1071 q 247 1104 229 1096 q 278 1113 264 1113 q 328 1090 294 1113 q 395 1038 361 1068 q 454 976 429 1007 q 479 926 479 944 m 442 965 q 428 963 433 971 q 422 949 425 960 q 418 935 419 939 q 408 906 415 922 q 413 882 401 890 q 430 885 421 876 q 443 900 439 893 q 456 933 454 913 q 442 965 458 954 m 135 -26 q 37 1 67 -26 q 7 92 7 29 q 13 147 7 111 q 26 227 18 182 q 47 324 35 272 q 72 426 58 375 q 98 522 85 476 q 124 601 111 568 q 169 709 147 667 q 215 777 190 751 q 271 813 240 803 q 343 824 301 824 q 440 808 400 824 q 509 747 479 792 q 560 626 539 703 q 601 425 582 549 q 617 324 608 382 q 633 211 625 267 q 646 111 640 156 q 651 49 651 67 q 529 -39 651 -39 q 463 -26 486 -39 q 428 11 440 -12 q 409 67 415 35 q 393 140 403 100 l 244 140 q 237 84 240 114 q 223 30 233 54 q 192 -10 213 6 q 135 -26 172 -26 m 429 722 q 417 692 417 715 q 431 632 418 668 q 493 567 460 551 q 500 647 524 582 q 465 709 485 688 q 429 722 444 731 m 492 528 q 494 492 482 504 q 507 486 500 486 q 524 492 515 486 q 535 506 532 497 q 528 539 542 525 q 513 546 521 546 q 492 528 500 546 m 369 343 q 369 399 371 365 q 364 463 368 432 q 354 515 360 493 q 342 538 349 538 q 325 519 335 538 q 306 471 315 500 q 290 408 297 442 q 282 343 283 374 l 369 343 z "},"":{"ha":658,"x_min":7,"x_max":651,"o":"m 181 926 q 206 976 181 944 q 264 1038 231 1007 q 331 1090 297 1068 q 382 1113 365 1113 q 413 1104 396 1113 q 445 1083 431 1096 q 469 1055 460 1071 q 479 1024 479 1039 q 451 965 479 996 q 386 906 424 933 q 310 862 349 879 q 249 844 271 844 q 227 854 239 844 q 205 877 215 864 q 188 904 194 890 q 181 926 181 918 m 381 1086 q 375 1074 369 1083 q 384 1061 378 1069 q 394 1050 390 1053 q 413 1028 403 1042 q 436 1019 424 1014 q 442 1035 444 1024 q 438 1054 440 1047 q 415 1082 431 1069 q 381 1086 399 1094 m 135 -26 q 37 1 67 -26 q 7 92 7 29 q 13 147 7 111 q 26 227 18 182 q 47 324 35 272 q 72 426 58 375 q 98 522 85 476 q 124 601 111 568 q 169 709 147 667 q 215 777 190 751 q 271 813 240 803 q 343 824 301 824 q 440 808 400 824 q 509 747 479 792 q 560 626 539 703 q 601 425 582 549 q 617 324 608 382 q 633 211 625 267 q 646 111 640 156 q 651 49 651 67 q 529 -39 651 -39 q 463 -26 486 -39 q 428 11 440 -12 q 409 67 415 35 q 393 140 403 100 l 244 140 q 237 84 240 114 q 223 30 233 54 q 192 -10 213 6 q 135 -26 172 -26 m 429 722 q 417 692 417 715 q 431 632 418 668 q 493 567 460 551 q 500 647 524 582 q 465 709 485 688 q 429 722 444 731 m 492 528 q 494 492 482 504 q 507 486 500 486 q 524 492 515 486 q 535 506 532 497 q 528 539 542 525 q 513 546 521 546 q 492 528 500 546 m 369 343 q 369 399 371 365 q 364 463 368 432 q 354 515 360 493 q 342 538 349 538 q 325 519 335 538 q 306 471 315 500 q 290 408 297 442 q 282 343 283 374 l 369 343 z "},"":{"ha":658,"x_min":7,"x_max":651,"o":"m 126 928 q 151 967 126 939 q 210 1026 176 996 q 278 1081 243 1057 q 332 1104 313 1104 q 383 1088 350 1104 q 450 1045 417 1071 q 508 990 483 1019 q 533 933 533 960 q 524 901 533 918 q 502 870 515 885 q 474 847 489 856 q 446 838 458 838 q 422 845 436 838 q 392 865 407 853 q 362 890 376 876 q 336 915 347 903 q 306 888 324 903 q 272 860 289 872 q 239 839 254 847 q 215 831 224 831 q 188 841 203 831 q 159 866 172 851 q 136 897 146 881 q 126 928 126 914 m 482 967 q 468 963 472 969 q 464 948 465 958 q 463 933 463 938 q 456 904 461 921 q 465 881 451 888 q 481 885 474 876 q 492 901 489 894 q 500 937 500 917 q 482 967 500 957 m 135 -26 q 37 1 67 -26 q 7 92 7 29 q 13 147 7 111 q 26 227 18 182 q 47 324 35 272 q 72 426 58 375 q 98 522 85 476 q 124 601 111 568 q 169 709 147 667 q 215 777 190 751 q 271 813 240 803 q 343 824 301 824 q 440 808 400 824 q 509 747 479 792 q 560 626 539 703 q 601 425 582 549 q 617 324 608 382 q 633 211 625 267 q 646 111 640 156 q 651 49 651 67 q 529 -39 651 -39 q 463 -26 486 -39 q 428 11 440 -12 q 409 67 415 35 q 393 140 403 100 l 244 140 q 237 84 240 114 q 223 30 233 54 q 192 -10 213 6 q 135 -26 172 -26 m 429 722 q 417 692 417 715 q 431 632 418 668 q 493 567 460 551 q 500 647 524 582 q 465 709 485 688 q 429 722 444 731 m 492 528 q 494 492 482 504 q 507 486 500 486 q 524 492 515 486 q 535 506 532 497 q 528 539 542 525 q 513 546 521 546 q 492 528 500 546 m 369 343 q 369 399 371 365 q 364 463 368 432 q 354 515 360 493 q 342 538 349 538 q 325 519 335 538 q 306 471 315 500 q 290 408 297 442 q 282 343 283 374 l 369 343 z "},"":{"ha":658,"x_min":7,"x_max":651,"o":"m 475 1101 q 507 1090 494 1101 q 527 1063 519 1079 q 538 1029 535 1047 q 542 996 542 1011 q 534 942 542 969 q 510 891 526 914 q 472 854 494 868 q 418 840 449 840 q 362 850 386 840 q 320 872 338 860 q 289 894 303 885 q 264 904 275 904 q 256 894 258 904 q 247 872 253 885 q 228 850 240 860 q 194 840 217 840 q 158 851 172 840 q 134 880 143 863 q 122 917 125 897 q 118 956 118 938 q 128 1008 118 982 q 155 1056 138 1035 q 196 1090 172 1076 q 249 1103 219 1103 q 300 1092 276 1103 q 343 1068 324 1081 q 376 1044 363 1056 q 397 1033 390 1033 q 410 1044 404 1033 q 424 1067 417 1054 q 444 1091 432 1081 q 475 1101 456 1101 m 488 1075 q 476 1065 476 1075 q 478 1051 476 1061 q 483 1036 481 1040 q 490 1011 488 1025 q 507 997 492 997 q 519 1006 517 997 q 524 1021 522 1014 q 516 1056 525 1038 q 488 1075 507 1074 m 135 -26 q 37 1 67 -26 q 7 92 7 29 q 13 147 7 111 q 26 227 18 182 q 47 324 35 272 q 72 426 58 375 q 98 522 85 476 q 124 601 111 568 q 169 709 147 667 q 215 777 190 751 q 271 813 240 803 q 343 824 301 824 q 440 808 400 824 q 509 747 479 792 q 560 626 539 703 q 601 425 582 549 q 617 324 608 382 q 633 211 625 267 q 646 111 640 156 q 651 49 651 67 q 529 -39 651 -39 q 463 -26 486 -39 q 428 11 440 -12 q 409 67 415 35 q 393 140 403 100 l 244 140 q 237 84 240 114 q 223 30 233 54 q 192 -10 213 6 q 135 -26 172 -26 m 429 722 q 417 692 417 715 q 431 632 418 668 q 493 567 460 551 q 500 647 524 582 q 465 709 485 688 q 429 722 444 731 m 492 528 q 494 492 482 504 q 507 486 500 486 q 524 492 515 486 q 535 506 532 497 q 528 539 542 525 q 513 546 521 546 q 492 528 500 546 m 369 343 q 369 399 371 365 q 364 463 368 432 q 354 515 360 493 q 342 538 349 538 q 325 519 335 538 q 306 471 315 500 q 290 408 297 442 q 282 343 283 374 l 369 343 z "},"":{"ha":658,"x_min":7,"x_max":651,"o":"m 325 988 q 319 949 325 971 q 301 909 314 928 q 270 878 289 890 q 225 865 251 865 q 157 895 188 865 q 126 979 126 925 q 150 1056 126 1022 q 225 1090 174 1090 q 297 1062 268 1090 q 325 988 325 1033 m 533 988 q 528 949 533 971 q 510 909 522 928 q 478 878 497 890 q 433 865 460 865 q 365 895 396 865 q 335 979 335 925 q 358 1056 335 1022 q 433 1090 382 1090 q 505 1062 476 1090 q 533 988 533 1033 m 249 1068 q 240 1056 239 1065 q 247 1043 242 1053 q 254 1029 251 1033 q 267 1002 261 1018 q 288 989 272 986 q 297 1004 297 992 q 296 1024 297 1017 q 281 1055 293 1039 q 249 1068 268 1071 m 457 1068 q 449 1056 447 1065 q 455 1043 450 1053 q 463 1029 460 1033 q 475 1002 469 1018 q 496 989 481 986 q 506 1004 506 992 q 504 1024 506 1017 q 489 1055 501 1039 q 457 1068 476 1071 m 135 -26 q 37 1 67 -26 q 7 92 7 29 q 13 147 7 111 q 26 227 18 182 q 47 324 35 272 q 72 426 58 375 q 98 522 85 476 q 124 601 111 568 q 169 709 147 667 q 215 777 190 751 q 271 813 240 803 q 343 824 301 824 q 440 808 400 824 q 509 747 479 792 q 560 626 539 703 q 601 425 582 549 q 617 324 608 382 q 633 211 625 267 q 646 111 640 156 q 651 49 651 67 q 529 -39 651 -39 q 463 -26 486 -39 q 428 11 440 -12 q 409 67 415 35 q 393 140 403 100 l 244 140 q 237 84 240 114 q 223 30 233 54 q 192 -10 213 6 q 135 -26 172 -26 m 429 722 q 417 692 417 715 q 431 632 418 668 q 493 567 460 551 q 500 647 524 582 q 465 709 485 688 q 429 722 444 731 m 492 528 q 494 492 482 504 q 507 486 500 486 q 524 492 515 486 q 535 506 532 497 q 528 539 542 525 q 513 546 521 546 q 492 528 500 546 m 369 343 q 369 399 371 365 q 364 463 368 432 q 354 515 360 493 q 342 538 349 538 q 325 519 335 538 q 306 471 315 500 q 290 408 297 442 q 282 343 283 374 l 369 343 z "}}}
